<svg width="32" height="32" viewBox="0 0 32 32" fill="none" xmlns="http://www.w3.org/2000/svg">
<path d="M5 23.5C4.99998 23.4343 5.0129 23.3693 5.03803 23.3086C5.06315 23.248 5.09998 23.1929 5.14641 23.1464C5.19284 23.1 5.24797 23.0632 5.30864 23.038C5.36931 23.0129 5.43433 23 5.5 23H13C13.1326 23 13.2598 23.0527 13.3536 23.1465C13.4473 23.2402 13.5 23.3674 13.5 23.5C13.5 23.6326 13.4473 23.7598 13.3536 23.8536C13.2598 23.9473 13.1326 24 13 24H5.5C5.43433 24 5.36931 23.9871 5.30864 23.962C5.24797 23.9369 5.19284 23.9 5.14641 23.8536C5.09998 23.8072 5.06315 23.752 5.03803 23.6914C5.0129 23.6307 4.99998 23.5657 5 23.5ZM16.5 20.5C16.5 20.4343 16.4871 20.3693 16.462 20.3086C16.4369 20.248 16.4 20.1929 16.3536 20.1464C16.3072 20.1 16.252 20.0632 16.1914 20.038C16.1307 20.0129 16.0657 20 16 20H10.5C10.3674 20 10.2402 20.0527 10.1464 20.1465C10.0527 20.2402 10 20.3674 10 20.5C10 20.6326 10.0527 20.7598 10.1464 20.8536C10.2402 20.9473 10.3674 21 10.5 21H16C16.0657 21 16.1307 20.9871 16.1914 20.962C16.252 20.9369 16.3072 20.9 16.3536 20.8536C16.4 20.8072 16.4369 20.752 16.462 20.6914C16.4871 20.6307 16.5 20.5657 16.5 20.5ZM5.5 21H8.5C8.63261 21 8.75979 20.9473 8.85355 20.8536C8.94732 20.7598 9 20.6326 9 20.5C9 20.3674 8.94732 20.2402 8.85355 20.1465C8.75979 20.0527 8.63261 20 8.5 20H5.5C5.36739 20 5.24021 20.0527 5.14645 20.1465C5.05268 20.2402 5 20.3674 5 20.5C5 20.6326 5.05268 20.7598 5.14645 20.8536C5.24021 20.9473 5.36739 21 5.5 21ZM11.3921 27.5C11.3921 27.5657 11.3792 27.6307 11.3541 27.6914C11.3289 27.752 11.2921 27.8072 11.2457 27.8536C11.1992 27.9 11.1441 27.9369 11.0835 27.962C11.0228 27.9871 10.9578 28 10.8921 28H4.5C3.8372 27.9992 3.20176 27.7356 2.73309 27.2669C2.26442 26.7982 2.00078 26.1628 2 25.5V3.50001C2.00078 2.83721 2.26442 2.20177 2.73309 1.7331C3.20176 1.26443 3.8372 1.00079 4.5 1.00001H17.6714C17.9999 0.999086 18.3253 1.06332 18.6288 1.189C18.9322 1.31468 19.2078 1.49931 19.4395 1.73219L22.2676 4.5608C22.5005 4.79238 22.6851 5.06784 22.8108 5.37124C22.9365 5.67464 23.0008 5.99996 23 6.32838V14.1716C23 14.3042 22.9473 14.4314 22.8536 14.5252C22.7598 14.619 22.6326 14.6716 22.5 14.6716C22.3674 14.6716 22.2402 14.619 22.1464 14.5252C22.0527 14.4314 22 14.3042 22 14.1716V6.32838C21.9989 6.21777 21.9854 6.10762 21.9598 6.00001H19.5C19.1023 5.99958 18.721 5.8414 18.4398 5.56019C18.1586 5.27898 18.0004 4.8977 18 4.50001V2.03898C17.8922 2.01397 17.782 2.0009 17.6714 2.00001H4.5C4.10231 2.00044 3.72103 2.15862 3.43982 2.43983C3.15861 2.72104 3.00043 3.10232 3 3.50001V25.5C3.00043 25.8977 3.15861 26.279 3.43982 26.5602C3.72103 26.8414 4.10231 26.9996 4.5 27H10.8921C10.9578 27 11.0228 27.0129 11.0835 27.038C11.1441 27.0632 11.1992 27.1 11.2457 27.1464C11.2921 27.1929 11.3289 27.248 11.3541 27.3086C11.3792 27.3693 11.3921 27.4343 11.3921 27.5ZM19 2.70686V4.50001C19.0001 4.63258 19.0529 4.75968 19.1466 4.85342C19.2403 4.94716 19.3674 4.99988 19.5 5.00001H21.2928L19 2.70686ZM29.4395 15.7678L28.5443 16.6628C28.6045 16.9104 28.5994 17.1693 28.5297 17.4143C28.46 17.6593 28.328 17.8821 28.1465 18.0608L27.7072 18.5001L28.0073 18.8001C28.3223 19.1152 28.4995 19.5422 28.5 19.9877C28.5005 20.4332 28.3244 20.8607 28.0103 21.1766L24.3545 24.8525C24.3082 24.8991 24.2532 24.9361 24.1926 24.9614C24.132 24.9867 24.067 24.9998 24.0014 25C23.9357 25.0001 23.8707 24.9874 23.81 24.9624C23.7492 24.9375 23.694 24.9008 23.6475 24.8545C23.6009 24.8082 23.5639 24.7532 23.5386 24.6926C23.5133 24.632 23.5002 24.5671 23.5 24.5014C23.4999 24.4357 23.5126 24.3707 23.5376 24.31C23.5625 24.2492 23.5992 24.194 23.6455 24.1475L27.3013 20.4712C27.4287 20.343 27.5002 20.1696 27.5 19.9888C27.4998 19.8081 27.428 19.6348 27.3003 19.5068L27.0002 19.207L16.8535 29.3535C16.7987 29.4084 16.7318 29.4498 16.6582 29.4744L12.1582 30.9744C12.0701 31.0037 11.9756 31.008 11.8852 30.9866C11.7948 30.9653 11.7121 30.9192 11.6465 30.8535C11.5808 30.7879 11.5348 30.7052 11.5135 30.6148C11.4922 30.5244 11.4965 30.4299 11.5259 30.3418L13.0259 25.8418C13.0504 25.7682 13.0917 25.7014 13.1465 25.6465L24.4395 14.3535C24.6195 14.1745 24.8422 14.0441 25.0864 13.9748C25.3307 13.9055 25.5886 13.8994 25.8358 13.9572L26.7324 13.0608C27.0971 12.7127 27.5818 12.5184 28.0859 12.5184C28.5901 12.5184 29.0748 12.7127 29.4395 13.0608C29.7978 13.4201 29.999 13.9068 29.999 14.4143C29.999 14.9218 29.7978 15.4085 29.4395 15.7678ZM18.7071 21.5001L21 23.793L27.4395 17.3535C27.4859 17.3071 27.5227 17.252 27.5479 17.1914C27.573 17.1308 27.5859 17.0658 27.5859 17.0001C27.5859 16.9345 27.573 16.8695 27.5479 16.8088C27.5227 16.7482 27.4859 16.6931 27.4395 16.6467L25.8535 15.0606C25.7597 14.9669 25.6325 14.9143 25.4999 14.9144C25.3674 14.9144 25.2402 14.9671 25.1465 15.0608L18.7071 21.5001ZM16.5 28.293L20.293 24.5L18 22.2071L14.207 26L16.5 28.293ZM12.7905 29.7095L15.5745 28.7815L13.7185 26.9255L12.7905 29.7095ZM28.7324 13.7678C28.5583 13.6014 28.3268 13.5086 28.0859 13.5086C27.8451 13.5086 27.6135 13.6014 27.4395 13.7678L26.7072 14.4999L28.0001 15.793L28.7324 15.0608C28.9036 14.8892 28.9998 14.6567 28.9998 14.4143C28.9998 14.1719 28.9036 13.9394 28.7324 13.7678ZM16.9707 18H8C7.93433 18 7.86931 17.9871 7.80864 17.962C7.74797 17.9369 7.69284 17.9 7.64641 17.8536C7.59998 17.8072 7.56315 17.752 7.53803 17.6914C7.5129 17.6307 7.49998 17.5657 7.5 17.5V12.2118C7.39529 12.2878 7.26513 12.32 7.13707 12.3017C7.00902 12.2833 6.89314 12.2158 6.81396 12.1135L5.604 10.5435C5.5231 10.4383 5.48727 10.3054 5.50439 10.1738C5.52151 10.0423 5.59019 9.92296 5.6953 9.84205L11.5854 5.31105C11.8477 5.10944 12.1692 5.00014 12.5 5.00014C12.8308 5.00014 13.1523 5.10944 13.4145 5.31105L19.3047 9.84205C19.4098 9.92296 19.4785 10.0423 19.4956 10.1738C19.5127 10.3054 19.4769 10.4383 19.396 10.5435L18.186 12.1135C18.146 12.1655 18.0961 12.2091 18.0393 12.2418C17.9824 12.2745 17.9196 12.2957 17.8546 12.3042C17.7895 12.3126 17.7234 12.3082 17.66 12.2911C17.5967 12.274 17.5373 12.2446 17.4853 12.2046L17.4707 12.1933V17.5C17.4707 17.5657 17.4578 17.6307 17.4327 17.6914C17.4076 17.752 17.3707 17.8072 17.3243 17.8536C17.2779 17.9 17.2227 17.9369 17.1621 17.962C17.1014 17.9871 17.0364 18 16.9707 18ZM7.30127 11.1074L12.1953 7.34205C12.2826 7.27477 12.3898 7.23829 12.5 7.23829C12.6102 7.23829 12.7174 7.27477 12.8047 7.34205L17.6987 11.1074L18.2983 10.3294L12.8052 6.10351C12.7176 6.03642 12.6103 6.00005 12.5 6.00005C12.3897 6.00005 12.2824 6.03642 12.1948 6.10351L6.70166 10.3294L7.30127 11.1074ZM13.5 13.5H11.4707V17H13.5V13.5ZM16.4707 17V11.424L12.5 8.36915L8.5 11.4465V17H10.4707V13C10.4707 12.9343 10.4836 12.8693 10.5087 12.8086C10.5338 12.748 10.5707 12.6928 10.6171 12.6464C10.6635 12.6 10.7187 12.5632 10.7793 12.538C10.84 12.5129 10.905 12.5 10.9707 12.5H14C14.0657 12.5 14.1307 12.5129 14.1914 12.538C14.252 12.5632 14.3072 12.6 14.3536 12.6464C14.4 12.6929 14.4369 12.748 14.462 12.8086C14.4871 12.8693 14.5 12.9343 14.5 13V17H16.4707Z" fill="#004020"/>
</svg>
