<svg width="32" height="32" viewBox="0 0 32 32" fill="none" xmlns="http://www.w3.org/2000/svg">
<path d="M13.1395 25.2582C12.9189 25.2582 12.7176 25.1113 12.6576 24.8882C12.5864 24.6219 12.7445 24.3482 13.0108 24.2769L22.7276 21.6738C22.9939 21.6025 23.2676 21.7607 23.3389 22.0269C23.4101 22.2932 23.252 22.5669 22.9858 22.6382L13.2689 25.2413C13.2258 25.2525 13.1826 25.2582 13.1395 25.2582ZM13.6495 26.6607L23.3664 24.0569C23.6326 23.9857 23.7908 23.7119 23.7195 23.4457C23.6483 23.1794 23.3745 23.0213 23.1083 23.0925L13.3914 25.6963C13.1251 25.7675 12.967 26.0413 13.0383 26.3075C13.0983 26.5307 13.2995 26.6775 13.5201 26.6775C13.5626 26.6782 13.6064 26.6725 13.6495 26.6607ZM23.4883 24.5125L13.7708 27.1157C13.5045 27.1869 13.3464 27.4607 13.4176 27.7269C13.4776 27.95 13.6789 28.0969 13.8995 28.0969C13.942 28.0969 13.9858 28.0913 14.0289 28.08L23.7464 25.4769C24.0126 25.4057 24.1708 25.1319 24.0995 24.8657C24.0283 24.5994 23.7551 24.4413 23.4883 24.5125ZM9.85265 13.2882C9.49077 11.9375 9.6764 10.5263 10.3758 9.31504C11.0739 8.10629 12.2001 7.24067 13.5483 6.87692C13.5489 6.87692 13.5495 6.87629 13.5501 6.87629C13.552 6.87567 13.5539 6.87504 13.5564 6.87442C13.5583 6.87379 13.5595 6.87379 13.5614 6.87317C13.5633 6.87254 13.5645 6.87254 13.5664 6.87192C14.9145 6.51317 16.3214 6.69942 17.5301 7.39754C18.7414 8.09692 19.6076 9.22629 19.9695 10.5775C20.3314 11.9282 20.1458 13.3394 19.4464 14.5513C18.7501 15.7569 17.6276 16.6213 16.2839 16.9863C16.2826 16.9863 16.282 16.9869 16.2808 16.9869C16.2758 16.9882 16.2708 16.99 16.2658 16.9913C15.8145 17.1119 15.357 17.1719 14.902 17.1719C13.9945 17.1719 13.0989 16.9338 12.292 16.4682C11.0808 15.7682 10.2139 14.6388 9.85265 13.2882ZM14.9758 16.1719C13.8714 15.1544 13.1076 14.1244 12.662 13.0513L10.9745 13.5032C11.3245 14.3857 11.9558 15.1207 12.7908 15.6025C13.4658 15.9925 14.217 16.185 14.9758 16.1719ZM13.3233 11.8413L16.2389 11.06C15.8776 9.88067 15.0926 8.89379 13.8751 8.07004C13.2326 9.39191 13.0458 10.6388 13.3233 11.8413ZM16.437 12.04L13.6414 12.7894C14.0758 13.7688 14.8308 14.7232 15.9108 15.67C16.3733 14.3094 16.5508 13.1057 16.437 12.04ZM19.1039 11.3257L17.4158 11.7782C17.5658 12.9307 17.4195 14.2044 16.9714 15.6382C17.6358 15.27 18.1908 14.7269 18.5808 14.0519C19.0626 13.2169 19.242 12.265 19.1039 11.3257ZM17.0295 8.26192C16.4139 7.90692 15.7351 7.71504 15.0445 7.69442C16.127 8.57192 16.852 9.61192 17.2095 10.8L18.8458 10.3613C18.4958 9.47879 17.8645 8.74379 17.0295 8.26192ZM10.7164 12.5394L12.3533 12.1007C12.0689 10.8932 12.177 9.63004 12.6758 8.32879C12.0876 8.69254 11.5951 9.19754 11.2401 9.81316C10.7576 10.6482 10.5783 11.6 10.7164 12.5394ZM28.372 26.9632C28.0858 27.4588 27.6258 27.8125 27.0758 27.9594L22.5539 29.1713L22.2289 30.3844C22.0814 30.9344 21.7276 31.3944 21.232 31.6807C20.9014 31.8713 20.5358 31.9688 20.1651 31.9688C19.9801 31.9688 19.7945 31.9444 19.6114 31.8957L16.0001 30.9275L12.3876 31.8957C12.2045 31.9444 12.0189 31.9688 11.8345 31.9688C11.4645 31.9688 11.0983 31.8713 10.7676 31.6807C10.272 31.3944 9.91827 30.9344 9.77077 30.385L9.44577 29.1713L4.92389 27.9594C4.37452 27.8125 3.91452 27.4588 3.62827 26.9632C3.34202 26.4675 3.26577 25.8919 3.41327 25.3425L5.9164 16L3.41327 6.65754C3.10827 5.52004 3.78577 4.34567 4.92389 4.04067L9.44577 2.82879L9.77077 1.61567C10.0764 0.476915 11.2501 -0.200585 12.3876 0.104415L16.0001 1.07254L19.6126 0.104415C20.162 -0.0430846 20.737 0.0337904 21.2326 0.319415C21.7283 0.605665 22.082 1.06567 22.2295 1.61504L22.5545 2.82879L27.0764 4.04067C28.2145 4.34567 28.892 5.52004 28.587 6.65754L26.0839 16.0007L28.587 25.3432C28.7345 25.8925 28.6583 26.4682 28.372 26.9632ZM10.5589 2.53067L14.0714 1.58942L12.1289 1.06879C12.0308 1.04254 11.932 1.03004 11.8345 1.03004C11.332 1.03004 10.8708 1.36567 10.7345 1.87442L10.5589 2.53067ZM21.4414 29.4694L17.9289 30.4107L19.8714 30.9313C20.1633 31.0094 20.4695 30.9688 20.7339 30.8163C20.9983 30.6638 21.187 30.4188 21.2658 30.1263L21.4414 29.4694ZM22.8526 3.94192L25.567 14.0719L27.6226 6.39879C27.7851 5.79254 27.4239 5.16692 26.8176 5.00442L22.8526 3.94192ZM4.37702 6.39879L8.14327 20.4557L8.84952 23.0907L25.7376 18.565L25.0733 16.0863L21.6645 3.36504C21.6639 3.36317 21.6639 3.36067 21.6633 3.35879L21.2651 1.87317C21.187 1.58129 20.9983 1.33629 20.7333 1.18379C20.4689 1.03129 20.1626 0.99004 19.8708 1.06817L5.18202 5.00442C4.57577 5.16692 4.21452 5.79254 4.37702 6.39879ZM9.14702 28.0582L7.17327 20.6913L6.43265 17.9282L4.37702 25.6013C4.29889 25.8932 4.33952 26.2 4.49264 26.4644C4.64514 26.7288 4.89015 26.9175 5.18202 26.9957L9.14702 28.0582ZM27.6233 25.6013L25.9964 19.53L9.10827 24.0557L10.3358 28.635C10.3364 28.6369 10.3364 28.6388 10.337 28.6407L10.7351 30.1269C10.8133 30.4188 11.002 30.6638 11.267 30.8169C11.5314 30.9694 11.8376 31.0107 12.1295 30.9319L26.8183 26.9963C27.1101 26.9182 27.3551 26.7294 27.5076 26.465C27.6601 26.2 27.7014 25.8932 27.6233 25.6013Z" fill="#004020"/>
</svg>
