<svg width="27" height="27" viewBox="0 0 27 27" fill="none" xmlns="http://www.w3.org/2000/svg">
<path d="M3.03755 6.31787H3.84897V5.08705C3.84879 5.0172 3.87048 4.94904 3.91101 4.89214C3.95153 4.83524 4.00886 4.79246 4.07494 4.7698L13.3714 0.893824C13.4538 0.859773 13.5463 0.859773 13.6287 0.893824L22.9456 4.77776C23.0066 4.80322 23.0588 4.84612 23.0957 4.9011C23.1325 4.95607 23.1523 5.02068 23.1525 5.08684V6.31766H23.9625C24.0067 6.31753 24.0505 6.32614 24.0914 6.34299C24.1323 6.35984 24.1694 6.38461 24.2006 6.41586C24.2319 6.44712 24.2567 6.48424 24.2735 6.5251C24.2904 6.56596 24.299 6.60975 24.2988 6.65395V9.16864C24.2989 9.21281 24.2902 9.25655 24.2733 9.29736C24.2564 9.33818 24.2316 9.37526 24.2004 9.4065C24.1692 9.43773 24.1321 9.46251 24.0913 9.4794C24.0505 9.4963 24.0067 9.50499 23.9625 9.50498H22.9415V11.2381C22.9415 11.2823 22.9328 11.3261 22.9159 11.3669C22.8991 11.4077 22.8743 11.4448 22.8431 11.476C22.8118 11.5072 22.7747 11.532 22.7339 11.5489C22.6931 11.5658 22.6494 11.5745 22.6052 11.5745H21.9313V18.8847H22.6052C22.6494 18.8847 22.6931 18.8933 22.7339 18.9102C22.7747 18.9271 22.8118 18.9519 22.8431 18.9831C22.8743 19.0144 22.8991 19.0514 22.9159 19.0923C22.9328 19.1331 22.9415 19.1768 22.9415 19.221V21.0195H23.9625C24.0067 21.0194 24.0505 21.028 24.0914 21.0449C24.1323 21.0617 24.1694 21.0865 24.2006 21.1177C24.2319 21.149 24.2567 21.1861 24.2735 21.227C24.2904 21.2678 24.299 21.3116 24.2988 21.3558V23.2388H25.1403C25.1844 23.2388 25.2282 23.2475 25.269 23.2644C25.3098 23.2813 25.3469 23.306 25.3781 23.3373C25.4093 23.3685 25.4341 23.4056 25.451 23.4464C25.4679 23.4872 25.4766 23.5309 25.4765 23.5751V25.7957C25.4766 25.8399 25.4679 25.8836 25.451 25.9245C25.4341 25.9653 25.4093 26.0023 25.3781 26.0336C25.3469 26.0648 25.3098 26.0896 25.269 26.1065C25.2282 26.1234 25.1844 26.132 25.1403 26.132H1.85978C1.77064 26.1318 1.6852 26.0964 1.62217 26.0333C1.55913 25.9703 1.52363 25.8849 1.52344 25.7957V23.5751C1.52363 23.486 1.55913 23.4005 1.62217 23.3375C1.6852 23.2745 1.77064 23.239 1.85978 23.2388H2.70121V21.3558C2.70119 21.3116 2.70987 21.2679 2.72676 21.2271C2.74366 21.1863 2.76843 21.1492 2.79966 21.118C2.83089 21.0867 2.86797 21.062 2.90878 21.0451C2.94959 21.0282 2.99333 21.0195 3.03749 21.0195H4.05996V19.221C4.05994 19.1768 4.06862 19.1331 4.08552 19.0923C4.10241 19.0514 4.12718 19.0144 4.15841 18.9831C4.18964 18.9519 4.22672 18.9271 4.26753 18.9102C4.30834 18.8933 4.35208 18.8847 4.39625 18.8847H5.06888V11.5747H4.39625C4.35208 11.5747 4.30834 11.566 4.26753 11.5491C4.22672 11.5322 4.18964 11.5074 4.15841 11.4762C4.12718 11.445 4.10241 11.4079 4.08552 11.3671C4.06862 11.3263 4.05994 11.2825 4.05996 11.2384V9.50519H3.03755C2.94841 9.505 2.86298 9.46949 2.79995 9.40646C2.73693 9.34342 2.70144 9.25799 2.70126 9.16885V6.65416C2.70124 6.60999 2.70992 6.56625 2.72682 6.52544C2.74371 6.48463 2.76848 6.44755 2.79971 6.41632C2.83094 6.38509 2.86802 6.36032 2.90883 6.34343C2.94964 6.32653 2.99338 6.31785 3.03755 6.31787ZM21.2587 18.8845V11.5747H19.4465V18.8847L21.2587 18.8845ZM18.774 18.8845V11.5747H18.1013C18.0571 11.5747 18.0134 11.566 17.9726 11.5491C17.9317 11.5322 17.8947 11.5074 17.8634 11.4762C17.8322 11.445 17.8074 11.4079 17.7905 11.3671C17.7737 11.3263 17.765 11.2825 17.765 11.2384V9.50519H16.089V11.2384C16.089 11.2825 16.0803 11.3263 16.0634 11.3671C16.0465 11.4079 16.0218 11.445 15.9905 11.4762C15.9593 11.5074 15.9222 11.5322 15.8814 11.5491C15.8406 11.566 15.7969 11.5747 15.7527 11.5747H15.0788V18.8847H15.7527C15.7969 18.8847 15.8406 18.8933 15.8814 18.9102C15.9222 18.9271 15.9593 18.9519 15.9905 18.9831C16.0218 19.0144 16.0465 19.0514 16.0634 19.0923C16.0803 19.1331 16.089 19.1768 16.089 19.221V21.0195H17.765V19.221C17.765 19.1768 17.7737 19.1331 17.7905 19.0923C17.8074 19.0514 17.8322 19.0144 17.8634 18.9831C17.8947 18.9519 17.9318 18.9271 17.9726 18.9102C18.0134 18.8933 18.0571 18.8847 18.1013 18.8847L18.774 18.8845ZM22.2689 19.557H18.4376V20.954H22.2689L22.2689 19.557ZM22.2689 9.50498H18.4376V10.9019H22.2689L22.2689 9.50498ZM14.4062 18.8845V11.5747H12.594V18.8847L14.4062 18.8845ZM11.9215 18.8845V11.5747H11.2488C11.2046 11.5747 11.1609 11.566 11.1201 11.5491C11.0793 11.5322 11.0422 11.5075 11.0109 11.4762C10.9797 11.445 10.9549 11.4079 10.938 11.3671C10.9211 11.3263 10.9125 11.2825 10.9125 11.2384V9.50519H9.23647V11.2384C9.23649 11.2825 9.22781 11.3263 9.21092 11.3671C9.19403 11.4079 9.16926 11.445 9.13803 11.4762C9.1068 11.5074 9.06972 11.5322 9.02891 11.5491C8.9881 11.566 8.94436 11.5747 8.90019 11.5747H8.22624V18.8847H8.90019C8.94435 18.8847 8.98809 18.8933 9.0289 18.9102C9.06971 18.9271 9.10679 18.9519 9.13802 18.9831C9.16925 19.0144 9.19402 19.0514 9.21092 19.0923C9.22781 19.1331 9.23649 19.1768 9.23647 19.221V21.0195H10.9125V19.221C10.9125 19.1768 10.9212 19.1331 10.9381 19.0923C10.955 19.0514 10.9797 19.0144 11.011 18.9831C11.0422 18.9519 11.0793 18.9271 11.1201 18.9102C11.1609 18.8933 11.2046 18.8847 11.2488 18.8847L11.9215 18.8845ZM15.4165 19.557H11.5851V20.954H15.4164L15.4165 19.557ZM15.4165 9.50498H11.5851V10.9019H15.4164L15.4165 9.50498ZM7.55382 18.8845V11.5747H5.74145V18.8847L7.55382 18.8845ZM8.56411 19.5573H4.73259V20.9542H8.56411V19.5573ZM8.56411 9.50519H4.73259V10.9021H8.56411V9.50519ZM24.8054 23.9114H2.19606V25.4594H24.8054V23.9114ZM23.6264 21.6907H3.37378V23.2388H23.6264V21.6907ZM4.52154 5.3117V6.31787H22.48V5.3117L13.5007 1.56756L4.52154 5.3117ZM23.6264 6.99045H3.37378V8.83256H23.6264V6.99045Z" fill="#004020"/>
</svg>
