<svg width="30" height="32" viewBox="0 0 30 32" fill="none" xmlns="http://www.w3.org/2000/svg">
<path fill-rule="evenodd" clip-rule="evenodd" d="M23.8182 14.1513H19.0654L21.4401 9.85456L23.8182 14.1513ZM21.4401 17.3719C20.1107 17.3719 18.9988 16.4105 18.7638 15.1453H24.1198C23.8848 16.4105 22.7729 17.3719 21.4401 17.3719ZM8.56035 17.3719C7.22749 17.3719 6.11559 16.4105 5.88411 15.1453H11.2401C11.0051 16.4105 9.89321 17.3719 8.56035 17.3719ZM8.56035 9.85456L10.9384 14.1513H6.18226L8.56035 9.85456ZM8.12547 8.58693L4.90556 14.4081C4.86696 14.4796 4.84241 14.5613 4.84241 14.6483C4.84241 16.6985 6.51202 18.366 8.56042 18.366C10.6088 18.366 12.2784 16.6985 12.2784 14.6483C12.2784 14.5613 12.2539 14.4796 12.2153 14.4081L9.40224 9.32457H14.5022V21.2628H10.8473C10.5702 21.2628 10.3492 21.4852 10.3492 21.7602C10.3492 22.0345 10.5702 22.2572 10.8473 22.2572H19.1567C19.4303 22.2572 19.6548 22.0345 19.6548 21.7602C19.6548 21.4852 19.4303 21.2628 19.1567 21.2628H15.4983V9.32457H20.5983L17.7853 14.4081C17.7467 14.4796 17.7257 14.5613 17.7257 14.6483C17.7257 16.6985 19.3917 18.366 21.4401 18.366C23.4921 18.366 25.1581 16.6985 25.1581 14.6483C25.1581 14.5613 25.1371 14.4796 25.095 14.4081L21.8751 8.58693C21.7874 8.42839 21.6225 8.33054 21.4401 8.33054H8.56035C8.37797 8.33054 8.21309 8.42839 8.12547 8.58693ZM15.0002 30.3383C23.1553 25.5305 28.2763 16.7718 28.4657 7.32563C22.6607 7.03735 17.701 4.25167 15.0002 1.77256C12.2995 4.25167 7.3398 7.03735 1.5348 7.32571C1.72416 16.7718 6.84524 25.5305 15.0002 30.3383ZM28.9813 6.35018C22.9939 6.20042 17.8975 3.2302 15.3475 0.732162C15.1546 0.54273 14.8459 0.54273 14.653 0.732162C12.1065 3.2302 7.00659 6.20042 1.01921 6.35018C0.74914 6.35651 0.535156 6.57748 0.535156 6.84791C0.545668 11.9065 1.91014 16.8679 4.47413 21.1966C6.96447 25.3993 10.5211 28.9082 14.7512 31.3439C14.9048 31.4322 15.0967 31.4315 15.2493 31.3439C19.4829 28.9083 23.036 25.3994 25.5264 21.1966C28.0939 16.8679 29.4548 11.9065 29.4653 6.84791C29.4688 6.57748 29.2513 6.35651 28.9813 6.35018Z" fill="#004020"/>
</svg>
