<svg width="26" height="26" viewBox="0 0 26 26" fill="none" xmlns="http://www.w3.org/2000/svg">
<path d="M12.1696 22.4487H3.16C2.85637 22.4487 2.60938 22.2017 2.60938 21.8981V9.37C2.60938 9.15961 2.43885 8.98914 2.22852 8.98914C2.01818 8.98914 1.84766 9.15961 1.84766 9.37V21.8981C1.84766 22.6217 2.43636 23.2104 3.16 23.2104H12.1696C12.3799 23.2104 12.5504 23.04 12.5504 22.8296C12.5504 22.6192 12.3799 22.4487 12.1696 22.4487Z" fill="#004020"/>
<path d="M5.55664 8.15369H7.62659C7.83692 8.15369 8.00745 7.98321 8.00745 7.77283C8.00745 7.56244 7.83692 7.39197 7.62659 7.39197H5.55664C5.3463 7.39197 5.17578 7.56244 5.17578 7.77283C5.17578 7.98316 5.3463 8.15369 5.55664 8.15369Z" fill="#004020"/>
<path d="M17.4722 10.3051C17.4722 10.0947 17.3017 9.92419 17.0913 9.92419H9.37891C9.16857 9.92419 8.99805 10.0947 8.99805 10.3051C8.99805 10.5154 9.16857 10.6859 9.37891 10.6859H17.0913C17.3017 10.6859 17.4722 10.5154 17.4722 10.3051Z" fill="#004020"/>
<path d="M17.0913 7.39197H9.37891C9.16857 7.39197 8.99805 7.56244 8.99805 7.77283C8.99805 7.98321 9.16857 8.15369 9.37891 8.15369H17.0913C17.3017 8.15369 17.4722 7.98321 17.4722 7.77283C17.4722 7.56244 17.3017 7.39197 17.0913 7.39197Z" fill="#004020"/>
<path d="M11.2234 12.4564H5.55664C5.3463 12.4564 5.17578 12.6269 5.17578 12.8373C5.17578 13.0477 5.3463 13.2181 5.55664 13.2181H11.2234C11.4337 13.2181 11.6042 13.0477 11.6042 12.8373C11.6042 12.6269 11.4337 12.4564 11.2234 12.4564Z" fill="#004020"/>
<path d="M11.6042 15.3696C11.6042 15.1593 11.4337 14.9888 11.2234 14.9888H5.55664C5.3463 14.9888 5.17578 15.1593 5.17578 15.3696C5.17578 15.58 5.3463 15.7505 5.55664 15.7505H11.2234C11.4337 15.7505 11.6042 15.58 11.6042 15.3696Z" fill="#004020"/>
<path d="M8.88471 18.7969C8.58561 18.7969 8.30443 18.9133 8.09298 19.1248L7.70461 19.5131C7.56501 19.6527 7.33791 19.6527 7.19837 19.5131C6.98123 19.296 6.67969 19.1771 6.37373 19.1857C6.06681 19.1947 5.7738 19.3315 5.56976 19.561L5.2798 19.8872C5.14005 20.0445 5.15422 20.2852 5.31144 20.4249C5.384 20.4895 5.47434 20.5212 5.56433 20.5212C5.66934 20.5212 5.77385 20.4779 5.84911 20.3933L6.13907 20.0671C6.20524 19.9926 6.29654 19.95 6.39612 19.9471C6.4953 19.944 6.5893 19.9813 6.65978 20.0518C7.0964 20.4884 7.80673 20.4883 8.24324 20.0518L8.63162 19.6635C8.69921 19.5959 8.78909 19.5586 8.88471 19.5586H9.68472C9.89505 19.5586 10.0656 19.3881 10.0656 19.1778C10.0656 18.9674 9.89505 18.7969 9.68472 18.7969H8.88471V18.7969Z" fill="#004020"/>
<path d="M5.55664 10.6859H7.62659C7.83692 10.6859 8.00745 10.5154 8.00745 10.3051C8.00745 10.0947 7.83692 9.92419 7.62659 9.92419H5.55664C5.3463 9.92419 5.17578 10.0947 5.17578 10.3051C5.17578 10.5154 5.3463 10.6859 5.55664 10.6859Z" fill="#004020"/>
<path d="M23.4211 15.6672C23.2338 15.4775 23.0402 15.2812 22.9711 15.1145C22.896 14.9332 22.8924 14.6469 22.889 14.3701C22.8831 13.8923 22.8764 13.3507 22.5115 12.9857C22.1466 12.6209 21.605 12.6142 21.1272 12.6083C20.9429 12.606 20.7552 12.6031 20.5963 12.5797V5.0081C20.5963 4.63907 20.4397 4.28513 20.1666 4.03686L16.0996 0.341098C15.8575 0.121164 15.5441 0 15.217 0H3.16C2.43636 0 1.84766 0.588707 1.84766 1.31234V7.71012C1.84766 7.9205 2.01818 8.09098 2.22852 8.09098C2.43885 8.09098 2.60937 7.9205 2.60937 7.71012V1.31234C2.60937 1.00872 2.85637 0.761719 3.16 0.761719H15.1961V3.66427C15.1961 4.38791 15.7848 4.97661 16.5085 4.97661H19.833C19.8336 4.98712 19.8346 4.99754 19.8346 5.0081V12.0806C19.8331 12.0791 19.8316 12.0776 19.8301 12.0761C19.4833 11.7338 19.0902 11.3459 18.5526 11.3459C18.015 11.3459 17.622 11.7338 17.2752 12.0761C17.0854 12.2634 16.8892 12.4569 16.7224 12.5261C16.5412 12.6012 16.255 12.6048 15.9781 12.6082C15.5002 12.6141 14.9587 12.6208 14.5938 12.9857C14.2289 13.3506 14.2222 13.8922 14.2162 14.3701C14.2128 14.6469 14.2093 14.9332 14.1342 15.1144C14.065 15.2811 13.8714 15.4774 13.6842 15.6671C13.3419 16.0139 12.9539 16.407 12.9539 16.9446C12.9539 17.4822 13.3418 17.8752 13.6841 18.222C13.8714 18.4118 14.065 18.608 14.1341 18.7747C14.2092 18.956 14.2128 19.2422 14.2162 19.5191C14.2221 19.9969 14.2288 20.5385 14.5937 20.9034C14.9356 21.2452 15.4324 21.2727 15.8866 21.2797V22.4487H13.8294C13.6191 22.4487 13.4486 22.6191 13.4486 22.8295C13.4486 23.0399 13.6191 23.2104 13.8294 23.2104H15.8866V25.3633C15.8866 25.6024 16.0186 25.8191 16.2311 25.9288C16.4438 26.0384 16.6969 26.0205 16.8918 25.8817L18.422 24.7931L19.9524 25.8817C20.0626 25.9601 20.1914 25.9999 20.3209 25.9999C20.4205 25.9999 20.5206 25.9764 20.613 25.9288C20.8255 25.8191 20.9576 25.6024 20.9576 25.3633V21.2838C21.0139 21.2825 21.0706 21.2816 21.1272 21.281C21.605 21.2751 22.1466 21.2684 22.5116 20.9034C22.8764 20.5386 22.8831 19.997 22.889 19.5193C22.8895 19.4796 22.89 19.44 22.8907 19.4005C22.8944 19.1901 22.7268 19.0167 22.5165 19.013C22.5143 19.013 22.512 19.013 22.5097 19.013C22.3025 19.013 22.1327 19.1791 22.1291 19.3872C22.1284 19.428 22.1279 19.4689 22.1273 19.5098C22.123 19.8585 22.1186 20.2192 21.9729 20.3648C21.8273 20.5104 21.4666 20.5149 21.1178 20.5192C20.7688 20.5235 20.4079 20.528 20.091 20.6594C19.7869 20.7855 19.5369 21.0323 19.2951 21.2708C19.0407 21.5219 18.7777 21.7815 18.5527 21.7815C18.3276 21.7815 18.0646 21.522 17.8102 21.2709C17.5685 21.0323 17.3184 20.7855 17.0143 20.6594C16.6975 20.528 16.3365 20.5235 15.9875 20.5192C15.6387 20.5149 15.278 20.5104 15.1324 20.3648C14.9867 20.2191 14.9822 19.8585 14.978 19.5097C14.9736 19.1607 14.9692 18.7997 14.8378 18.4829C14.7117 18.1788 14.4649 17.9287 14.2262 17.6869C13.9752 17.4325 13.7156 17.1695 13.7156 16.9445C13.7156 16.7195 13.9752 16.4565 14.2263 16.2021C14.4649 15.9603 14.7117 15.7103 14.8378 15.4061C14.9692 15.0893 14.9736 14.7284 14.978 14.3794C14.9823 14.0307 14.9867 13.6699 15.1324 13.5243C15.2781 13.3786 15.6387 13.3741 15.9875 13.3698C16.3365 13.3655 16.6974 13.3611 17.0143 13.2296C17.3184 13.1035 17.5685 12.8567 17.8103 12.6181C18.0646 12.3671 18.3277 12.1075 18.5527 12.1075C18.7777 12.1075 19.0407 12.3671 19.295 12.6181C19.5368 12.8567 19.7869 13.1035 20.091 13.2296C20.4078 13.3611 20.7688 13.3655 21.1178 13.3698C21.4666 13.3741 21.8273 13.3786 21.9729 13.5242C22.1186 13.6699 22.1231 14.0306 22.1273 14.3794C22.1317 14.7284 22.1361 15.0893 22.2676 15.4062C22.3936 15.7103 22.6404 15.9603 22.8791 16.2022C23.1301 16.4565 23.3897 16.7195 23.3897 16.9445C23.3897 17.1493 23.1803 17.3799 22.947 17.6179C22.7998 17.7681 22.8022 18.0093 22.9524 18.1565C23.1026 18.3037 23.3437 18.3013 23.491 18.1511C23.754 17.8828 24.1514 17.4773 24.1514 16.9445C24.1513 16.407 23.7634 16.014 23.4211 15.6672ZM17.2752 21.8131C17.6219 22.1554 18.015 22.5433 18.5526 22.5433C19.0902 22.5433 19.4833 22.1554 19.8301 21.8131C19.9525 21.6923 20.0776 21.569 20.1958 21.478V25.1202L18.7909 24.1208C18.5702 23.9638 18.2738 23.9638 18.0532 24.1208L16.6483 25.1202V21.3378C16.6746 21.3451 16.6994 21.3535 16.7224 21.3631C16.8892 21.4323 17.0854 21.6259 17.2752 21.8131ZM15.9578 3.66427V1.24155L19.2299 4.21489H16.5085C16.2048 4.21489 15.9578 3.96789 15.9578 3.66427Z" fill="#004020"/>
<path d="M18.1884 19.7282H18.9177C19.3958 19.7282 19.7847 19.3392 19.7847 18.8612V18.2816C19.7847 18.2235 19.8319 18.1763 19.89 18.1763H20.4695C20.9476 18.1763 21.3366 17.7874 21.3366 17.3093V16.58C21.3366 16.1019 20.9476 15.713 20.4695 15.713H19.89C19.8319 15.713 19.7847 15.6658 19.7847 15.6077V15.0282C19.7847 14.5501 19.3958 14.1611 18.9177 14.1611H18.1884C17.7103 14.1611 17.3214 14.5501 17.3214 15.0282V15.6077C17.3214 15.6658 17.2741 15.713 17.2161 15.713H16.6365C16.1585 15.713 15.7695 16.1019 15.7695 16.58V17.3093C15.7695 17.7874 16.1585 18.1763 16.6365 18.1763H17.2161C17.2741 18.1763 17.3214 18.2236 17.3214 18.2816V18.8612C17.3214 19.3392 17.7103 19.7282 18.1884 19.7282ZM17.2161 17.4145H16.6365C16.5784 17.4145 16.5313 17.3673 16.5313 17.3092V16.58C16.5313 16.522 16.5785 16.4747 16.6365 16.4747H17.2161C17.6942 16.4747 18.0831 16.0857 18.0831 15.6077V15.0281C18.0831 14.9701 18.1304 14.9228 18.1884 14.9228H18.9177C18.9758 14.9228 19.023 14.9701 19.023 15.0281V15.6077C19.023 16.0857 19.4119 16.4747 19.89 16.4747H20.4695C20.5276 16.4747 20.5749 16.522 20.5749 16.58V17.3092C20.5749 17.3673 20.5276 17.4145 20.4695 17.4145H19.89C19.4119 17.4145 19.023 17.8035 19.023 18.2816V18.8611C19.023 18.9192 18.9757 18.9664 18.9177 18.9664H18.1884C18.1304 18.9664 18.0831 18.9192 18.0831 18.8611V18.2816C18.0831 17.8035 17.6942 17.4145 17.2161 17.4145Z" fill="#004020"/>
<path d="M13.3434 2.75879H5.95513C5.46509 2.75879 5.06641 3.15747 5.06641 3.64746V4.73281C5.06641 5.2228 5.46509 5.62148 5.95513 5.62148H13.3434C13.8334 5.62148 14.2321 5.2228 14.2321 4.73281V3.64746C14.2321 3.15747 13.8335 2.75879 13.3434 2.75879ZM13.4704 4.73281C13.4704 4.80284 13.4135 4.85976 13.3434 4.85976H5.95513C5.8851 4.85976 5.82818 4.80284 5.82818 4.73281V3.64746C5.82818 3.57743 5.8851 3.52051 5.95513 3.52051H13.3434C13.4135 3.52051 13.4704 3.57743 13.4704 3.64746V4.73281Z" fill="#004020"/>
</svg>
