<svg width="33" height="33" viewBox="0 0 33 33" fill="none" xmlns="http://www.w3.org/2000/svg">
<path d="M30.8737 17.5947C30.777 17.4981 30.6458 17.4437 30.509 17.4437H2.49023C2.35346 17.4437 2.2223 17.4981 2.12562 17.5947C2.02894 17.6915 1.97461 17.8226 1.97461 17.9593C1.97461 21.8391 3.48552 25.4866 6.2289 28.2301C8.97229 30.9735 12.6199 32.4844 16.4997 32.4844C20.3795 32.4844 24.027 30.9735 26.7704 28.2301C29.5139 25.4866 31.0247 21.8392 31.0247 17.9593C31.0247 17.8226 30.9703 17.6915 30.8737 17.5947ZM17.0152 25.6253C18.6724 25.6618 20.3192 25.8741 21.8601 26.2625C20.6555 28.2264 19.016 29.9304 17.0152 31.2422V25.6253ZM15.9839 31.2422C13.9831 29.9304 12.3436 28.2264 11.139 26.2625C12.6799 25.8742 14.3268 25.6619 15.9839 25.6254V31.2422ZM15.9839 24.6143C14.1447 24.6526 12.3166 24.8956 10.6173 25.3443C9.52362 23.2584 8.89642 20.9217 8.81528 18.475H15.984V24.6143H15.9839ZM10.1167 26.5513C11.1851 28.362 12.5921 29.9628 14.2517 31.2651C11.5661 30.8128 9.1476 29.5645 7.24746 27.7719C8.1217 27.2811 9.08862 26.8743 10.1167 26.5513ZM22.8825 26.5513C23.9106 26.8743 24.8776 27.2811 25.7518 27.7719C23.8516 29.5646 21.4331 30.8129 18.7474 31.2651C20.407 29.9629 21.8141 28.362 22.8825 26.5513ZM17.0152 24.6143V18.475H24.1839C24.1027 20.9217 23.4755 23.2583 22.3818 25.3443C20.6826 24.8956 18.8544 24.6526 17.0152 24.6143ZM7.78383 18.475C7.8635 20.9737 8.49147 23.427 9.61553 25.6375C8.49372 25.9998 7.44371 26.4583 6.50167 27.0119C4.43814 24.735 3.13928 21.7529 3.01553 18.475H7.78383V18.475ZM26.4976 27.0119C25.5556 26.4583 24.5055 25.9998 23.3837 25.6375C24.5077 23.427 25.1357 20.9737 25.2154 18.475H29.9837C29.86 21.7529 28.5611 24.7349 26.4976 27.0119ZM2.03429 13.7234C2.49919 8.55467 5.72933 4.02458 10.39 1.85999L9.60212 1.72373C9.32149 1.6752 9.13342 1.40837 9.18189 1.1278C9.23036 0.847236 9.49706 0.659033 9.77782 0.707566L12.3978 1.16067C12.567 1.18993 12.7104 1.30144 12.7806 1.45812C12.8507 1.61481 12.8382 1.79612 12.7473 1.94171L11.4736 3.98256C11.3759 4.13924 11.2078 4.22529 11.0358 4.22529C10.9426 4.22529 10.8482 4.20002 10.7632 4.14704C10.5216 3.99622 10.448 3.67821 10.5988 3.43664L11.0677 2.68525C6.60699 4.64952 3.50131 8.92482 3.06135 13.8158C3.03725 14.0837 2.81231 14.2852 2.54844 14.2852C2.53297 14.2852 2.51737 14.2845 2.50164 14.2831C2.21798 14.2577 2.00877 14.0071 2.03429 13.7234ZM15.984 1.03125C15.984 0.746496 16.2149 0.515625 16.4996 0.515625C19.5466 0.515625 22.4632 1.44884 24.9343 3.21434C27.0032 4.69251 28.6257 6.65176 29.6804 8.92998L29.8166 8.14301C29.8651 7.86238 30.1319 7.67392 30.4125 7.72277C30.6931 7.77131 30.8812 8.03814 30.8327 8.31871L30.3796 10.9387C30.3504 11.1078 30.2389 11.2513 30.0822 11.3214C30.0149 11.3515 29.9431 11.3664 29.8715 11.3664C29.7763 11.3664 29.6817 11.3401 29.5985 11.2882L27.5576 10.0145C27.316 9.86365 27.2424 9.54564 27.3932 9.30407C27.5439 9.06256 27.8619 8.98876 28.1036 9.13958L28.8545 9.60829C26.7163 4.75116 21.8621 1.54688 16.4996 1.54688C16.2149 1.54688 15.984 1.316 15.984 1.03125ZM13.4726 8.80758C13.1878 8.80758 12.957 9.03846 12.957 9.32321V16.2974C12.957 16.5821 13.1878 16.813 13.4726 16.813H15.4068C15.6916 16.813 15.9225 16.5821 15.9225 16.2974V9.32321C15.9225 9.03846 15.6916 8.80758 15.4068 8.80758H13.4726ZM14.8912 15.7817H13.9882V9.83883H14.8912V15.7817ZM17.5924 10.1267C17.3076 10.1267 17.0768 10.3576 17.0768 10.6424V16.2974C17.0768 16.5821 17.3076 16.813 17.5924 16.813H19.5267C19.8114 16.813 20.0423 16.5821 20.0423 16.2974V10.6424C20.0423 10.3576 19.8114 10.1267 19.5267 10.1267H17.5924ZM19.0111 15.7817H18.108V11.158H19.0111V15.7817ZM21.7122 6.27032C21.4275 6.27032 21.1966 6.50119 21.1966 6.78595V16.2974C21.1966 16.5821 21.4275 16.813 21.7122 16.813H23.6465C23.9312 16.813 24.1621 16.5821 24.1621 16.2974V6.78595C24.1621 6.50119 23.9312 6.27032 23.6465 6.27032H21.7122ZM23.1309 15.7817H22.2279V7.30157H23.1309V15.7817ZM9.35282 12.071C9.06806 12.071 8.83719 12.3018 8.83719 12.5866V16.2974C8.83719 16.5821 9.06806 16.813 9.35282 16.813H11.2871C11.5718 16.813 11.8027 16.5821 11.8027 16.2974V12.5866C11.8027 12.3018 11.5718 12.071 11.2871 12.071H9.35282ZM10.7714 15.7817H9.86844V13.1022H10.7714V15.7817ZM10.0081 8.11085L14.1279 4.98268C14.2758 4.87027 14.4728 4.84623 14.6434 4.91958L18.4582 6.55997L20.958 4.28581L20.7591 4.28652C20.7584 4.28652 20.7578 4.28652 20.7572 4.28652C20.4732 4.28652 20.2426 4.05694 20.2415 3.77276C20.2405 3.48801 20.4705 3.2563 20.7553 3.25527L22.2945 3.2496H22.2964C22.4503 3.2496 22.5962 3.3183 22.6942 3.43716C22.7925 3.55646 22.8322 3.71353 22.8022 3.86525L22.5037 5.37539C22.4552 5.62102 22.2396 5.79105 21.9985 5.79111C21.9653 5.79111 21.9316 5.78783 21.8978 5.78119C21.6258 5.72743 21.4469 5.46865 21.4889 5.19711L18.9066 7.54637C18.757 7.6823 18.5417 7.71852 18.356 7.63866L14.5122 5.98576L10.6318 8.93217C10.5386 9.00301 10.429 9.03717 10.3203 9.03717C10.1646 9.03717 10.0107 8.96691 9.9093 8.83336C9.73702 8.60655 9.7813 8.28306 10.0081 8.11085Z" fill="#004020"/>
</svg>
