<svg width="77" height="77" viewBox="0 0 77 77" fill="none" xmlns="http://www.w3.org/2000/svg">
<path d="M0 40.9813V48.6813C0 50.8076 1.72378 52.5313 3.85 52.5313H5.13328V37.1313H3.85C1.72378 37.1313 0 38.8551 0 40.9813Z" fill="#004020"/>
<path d="M73.15 37.1313H71.8667V52.5313H73.15C75.2762 52.5313 77 50.8076 77 48.6813V40.9813C77 38.8551 75.2764 37.1313 73.15 37.1313Z" fill="#004020"/>
<path d="M44.9167 7.61462C44.9089 10.6612 42.7667 13.2854 39.7834 13.9029V20.4479H37.2167V13.9029C33.9083 13.2276 31.6894 10.1037 32.141 6.75754C32.5927 3.41135 35.5605 0.987658 38.9295 1.2137C42.2986 1.43973 44.916 4.23805 44.9167 7.61462Z" fill="#004020"/>
<path d="M53.9 44.8313C56.0263 44.8313 57.7501 43.1076 57.7501 40.9813C57.7501 38.855 56.0263 37.1313 53.9 37.1313C51.7738 37.1313 50.05 38.855 50.05 40.9813C50.05 43.1076 51.7738 44.8313 53.9 44.8313Z" fill="#004020"/>
<path d="M23.1 44.8313C25.2263 44.8313 26.95 43.1076 26.95 40.9813C26.95 38.855 25.2263 37.1313 23.1 37.1313C20.9737 37.1313 19.25 38.855 19.25 40.9813C19.25 43.1076 20.9737 44.8313 23.1 44.8313Z" fill="#004020"/>
<path d="M61.5999 23.0148H15.4C11.1474 23.0148 7.69995 26.4622 7.69995 30.7148V58.9481C7.69995 63.1901 11.131 66.6332 15.373 66.6481C15.7173 66.6435 16.049 66.7765 16.2949 67.0174C16.5408 67.2583 16.6807 67.5872 16.6834 67.9315V74.5163C16.6828 74.9899 16.9433 75.4255 17.3607 75.6491C17.7782 75.8727 18.285 75.8482 18.6789 75.5853L31.4417 67.0794C31.8617 66.7993 32.355 66.6493 32.8597 66.6482H61.5999C65.8525 66.6482 69.2999 63.2008 69.2999 58.9482V30.7146C69.2999 26.4622 65.8525 23.0148 61.5999 23.0148ZM23.1 47.3981C19.5561 47.3981 16.6832 44.5251 16.6832 40.9813C16.6832 37.4375 19.5561 34.5646 23.1 34.5646C26.6438 34.5646 29.5167 37.4375 29.5167 40.9813C29.5123 44.5235 26.642 47.3938 23.1 47.3981ZM46.0049 51.9281C45.924 52.0578 43.9605 55.0979 38.5 55.0979C33.0394 55.0979 31.0759 52.0578 30.995 51.9281C30.6315 51.3308 30.8132 50.5525 31.4033 50.1777C31.9935 49.8029 32.7752 49.9694 33.1612 50.5523C33.2382 50.6627 34.5806 52.5312 38.5 52.5312C42.4539 52.5312 43.786 50.6305 43.8399 50.5498C44.2324 49.9675 45.0174 49.804 45.6095 50.1815C46.1972 50.5575 46.3734 51.3359 46.0049 51.9281ZM53.8999 47.3981C50.3561 47.3981 47.4832 44.5251 47.4832 40.9813C47.4832 37.4375 50.3561 34.5646 53.8999 34.5646C57.4438 34.5646 60.3167 37.4375 60.3167 40.9813C60.3123 44.5235 57.4419 47.3938 53.8999 47.3981Z" fill="#004020"/>
</svg>
