<svg width="81" height="81" viewBox="0 0 81 81" fill="none" xmlns="http://www.w3.org/2000/svg">
<circle cx="40.5" cy="40.5" r="40.5" fill="#004020"/>
<g clip-path="url(#clip0_355_864)">
<path d="M36.375 47.75H24V35.375C24 32.9275 24.7258 30.5349 26.0856 28.4998C27.4453 26.4648 29.3781 24.8786 31.6393 23.942C33.9005 23.0054 36.3887 22.7603 38.7892 23.2378C41.1898 23.7153 43.3948 24.8939 45.1254 26.6246C46.8561 28.3552 48.0347 30.5602 48.5122 32.9608C48.9897 35.3613 48.7446 37.8495 47.808 40.1107C46.8714 42.372 45.2852 44.3047 43.2502 45.6644C41.2151 47.0242 38.8225 47.75 36.375 47.75ZM51.5 35.485C51.4684 39.4575 49.8763 43.2582 47.0672 46.0673C44.2582 48.8763 40.4574 50.4684 36.485 50.5C37.4495 52.1706 38.8363 53.5581 40.5064 54.5235C42.1765 55.4888 44.071 55.998 46 56H57V45C56.998 43.071 56.4888 41.1765 55.5235 39.5064C54.5581 37.8363 53.1706 36.4495 51.5 35.485Z" fill="white"/>
</g>
<defs>
<clipPath id="clip0_355_864">
<rect width="33" height="33" fill="white" transform="translate(24 23)"/>
</clipPath>
</defs>
</svg>
