<svg width="32" height="32" viewBox="0 0 32 32" fill="none" xmlns="http://www.w3.org/2000/svg">
<path d="M29.9886 26.0103L26.5971 8.30576C26.57 8.1945 26.5078 8.0949 26.4198 8.02167C26.3317 7.94844 26.2225 7.90545 26.1081 7.89905H22.8073V7.07492C22.8034 6.62744 22.6229 6.19961 22.3051 5.88456C21.9872 5.56952 21.5578 5.39276 21.1103 5.39277C20.6628 5.39277 20.2334 5.56953 19.9156 5.88458C19.5978 6.19963 19.4173 6.62747 19.4134 7.07495V9.72506C19.4175 10.1725 19.598 10.6001 19.9159 10.9151C20.2337 11.23 20.663 11.4067 21.1104 11.4067C21.5578 11.4066 21.9871 11.23 22.3049 10.915C22.6227 10.6001 22.8033 10.1724 22.8073 9.725V8.899H25.5153L22.6518 25.6071H3.09662L6.04477 8.89896H8.19127V9.72506C8.19488 10.1728 8.37525 10.6009 8.6931 10.9162C9.01095 11.2315 9.44052 11.4084 9.88823 11.4084C10.3359 11.4084 10.7655 11.2315 11.0833 10.9162C11.4012 10.6009 11.5816 10.1727 11.5852 9.72503V8.89898H17.5533C17.6847 8.89722 17.8101 8.84376 17.9025 8.75019C17.9948 8.65662 18.0465 8.53046 18.0465 8.39901C18.0465 8.26757 17.9948 8.14141 17.9024 8.04784C17.8101 7.95428 17.6847 7.90083 17.5532 7.89907H11.5852V7.07492C11.5816 6.62723 11.4012 6.19911 11.0833 5.88381C10.7655 5.56851 10.3359 5.3916 9.88821 5.3916C9.44051 5.39161 9.01094 5.56853 8.6931 5.88383C8.37525 6.19913 8.19488 6.62726 8.19128 7.07495V7.89906H5.62538C5.50786 7.8991 5.3941 7.94051 5.30407 8.01604C5.21403 8.09157 5.15347 8.19639 5.13301 8.31212L2.00838 26.0201C1.99636 26.0919 2.00005 26.1654 2.01919 26.2357C2.03834 26.3059 2.07249 26.3712 2.11929 26.427C2.16609 26.4827 2.22443 26.5277 2.29028 26.5588C2.35614 26.5898 2.42794 26.6062 2.50075 26.6069L23.0734 26.6069C23.1375 26.6063 23.2009 26.5932 23.26 26.5684L26.1151 25.5514L29.3459 26.5811C29.4284 26.6062 29.516 26.6096 29.6002 26.5912C29.6845 26.5728 29.7626 26.533 29.8271 26.4757C29.8916 26.4185 29.9403 26.3456 29.9686 26.2641C29.9969 26.1826 30.0038 26.0952 29.9886 26.0103ZM21.8074 9.72506C21.8048 9.9082 21.7302 10.0829 21.5997 10.2115C21.4693 10.3401 21.2935 10.4121 21.1104 10.4121C20.9272 10.4121 20.7514 10.3401 20.621 10.2115C20.4905 10.0829 20.4159 9.90817 20.4133 9.72503V7.07492C20.4159 6.89179 20.4905 6.71706 20.621 6.58849C20.7514 6.45992 20.9272 6.38785 21.1104 6.38785C21.2935 6.38786 21.4693 6.45994 21.5998 6.58851C21.7302 6.71708 21.8048 6.89182 21.8074 7.07495V9.72506ZM9.19116 7.07492C9.19381 6.89179 9.26841 6.71706 9.39886 6.58849C9.5293 6.45992 9.70509 6.38785 9.88825 6.38785C10.0714 6.38786 10.2472 6.45994 10.3776 6.58851C10.5081 6.71708 10.5827 6.89182 10.5853 7.07495C10.5851 7.73682 10.5854 9.06323 10.5853 9.72504C10.5827 9.90817 10.508 10.0829 10.3776 10.2115C10.2472 10.34 10.0714 10.4121 9.88822 10.4121C9.70506 10.4121 9.52927 10.34 9.39884 10.2115C9.2684 10.0829 9.1938 9.90814 9.19116 9.72501V7.07492ZM26.2581 24.5471C26.1538 24.5142 26.0417 24.5161 25.9386 24.5525L23.7112 25.3459L26.1346 11.2051L28.8486 25.3727L26.2581 24.5471Z" fill="#004020"/>
<path d="M6.20399 17.9111C6.08874 17.9175 5.97866 17.961 5.89024 18.0352C5.80183 18.1094 5.73984 18.2103 5.71357 18.3227L4.84357 23.1122C4.8311 23.1841 4.83444 23.2579 4.85336 23.3285C4.87228 23.399 4.90631 23.4646 4.95311 23.5207C4.99991 23.5767 5.05835 23.6219 5.12438 23.6532C5.1904 23.6844 5.26242 23.7009 5.33545 23.7014C5.34385 23.7015 18.3757 23.7011 21.0988 23.7015C21.2191 23.7014 21.3354 23.658 21.4263 23.5792C21.5172 23.5004 21.5766 23.3914 21.5936 23.2723L22.9634 13.6884C22.9729 13.6176 22.9673 13.5455 22.9469 13.4771C22.9265 13.4086 22.8917 13.3452 22.8449 13.2912C22.7981 13.2372 22.7403 13.1938 22.6754 13.1639C22.6105 13.134 22.54 13.1182 22.4685 13.1177H7.07523C6.95823 13.1177 6.84494 13.1588 6.75508 13.2337C6.66521 13.3087 6.60445 13.4127 6.58335 13.5278L6.08851 16.2375C6.06653 16.3671 6.09652 16.5003 6.17199 16.608C6.24746 16.7157 6.36233 16.7894 6.49172 16.813C6.62111 16.8366 6.7546 16.8083 6.86327 16.7342C6.97194 16.6601 7.04704 16.5462 7.07231 16.4171L7.49217 14.1176H10.0715L9.38252 17.9111L6.20399 17.9111ZM8.51252 22.7016H5.93449L6.62292 18.911H9.20092L8.51252 22.7016ZM19.2993 14.1176H21.8919L21.3498 17.9111H18.6808L19.2993 14.1176ZM15.1834 14.1176H18.2863L17.6679 17.9111H14.5385L15.1834 14.1176ZM17.5048 18.911L17.2001 20.7804C17.1893 20.8453 17.1914 20.9116 17.2063 20.9757C17.2212 21.0398 17.2486 21.1002 17.2869 21.1537C17.3253 21.2071 17.3738 21.2525 17.4297 21.2872C17.4855 21.3219 17.5477 21.3452 17.6126 21.3558C17.6775 21.3664 17.7439 21.364 17.8079 21.349C17.8719 21.3339 17.9323 21.3063 17.9857 21.2678C18.039 21.2293 18.0842 21.1807 18.1187 21.1247C18.1532 21.0687 18.1764 21.0065 18.1868 20.9415L18.5178 18.911H21.2069L20.6653 22.7016H13.7241L14.3685 18.911H17.5048ZM11.0877 14.1176H14.1691L13.5242 17.9111H10.3988L11.0877 14.1176ZM10.2172 18.911H13.3543L12.7098 22.7016H9.52876L10.2172 18.911Z" fill="#004020"/>
</svg>
