<svg width="248" height="253" viewBox="0 0 248 253" fill="none" xmlns="http://www.w3.org/2000/svg">
<g clip-path="url(#clip0_40_220)">
<path d="M230.868 103.13C230.284 100.457 229.557 97.8268 228.759 95.2396C215.318 51.2291 174.412 19.1538 126.195 19.1538C77.9775 19.1538 37.0717 51.2434 23.6313 95.2396C22.8331 97.8411 22.1062 100.471 21.5219 103.13C19.8115 110.734 18.9136 118.624 18.9136 126.743C18.9136 134.862 19.8115 142.738 21.5219 150.328C22.1062 153.001 22.8331 155.645 23.6313 158.232C37.0717 202.243 77.9632 234.318 126.195 234.318C174.427 234.318 215.318 202.229 228.759 158.232C229.557 155.645 230.284 152.987 230.868 150.328C232.578 142.738 233.476 134.848 233.476 126.743C233.476 118.639 232.578 110.734 230.868 103.13ZM40.1931 133.633L34.8625 130.817L29.532 133.633L30.5582 127.687L26.2396 123.47L32.1972 122.598L34.8625 117.195L37.5278 122.598L43.4855 123.47L39.1812 127.687L40.1931 133.633ZM199.184 143.195C199.127 143.438 199.084 143.653 199.027 143.896C198.657 145.511 198.2 147.14 197.73 148.713C188.337 179.401 159.832 201.771 126.195 201.771C92.5582 201.771 64.0382 179.401 54.6598 148.713C54.1752 147.14 53.7333 145.511 53.3628 143.896C53.3058 143.653 53.2488 143.438 53.1917 143.195C51.9945 137.892 51.3816 132.389 51.3816 126.743C51.3816 121.097 51.9945 115.58 53.1917 110.277C53.2488 110.019 53.3057 109.791 53.377 109.548C53.7333 107.933 54.1752 106.332 54.6598 104.759C64.0382 74.0705 92.5582 51.7008 126.195 51.7008C159.832 51.7008 188.337 74.0705 197.73 104.759C198.2 106.332 198.657 107.933 199.013 109.548C199.07 109.791 199.127 110.034 199.184 110.277C200.381 115.58 201.008 121.083 201.008 126.743C201.008 132.403 200.381 137.892 199.184 143.195ZM222.772 133.633L217.456 130.817L212.126 133.633L213.137 127.687L208.833 123.47L214.777 122.598L217.456 117.195L220.121 122.598L226.079 123.47L221.76 127.687L222.772 133.633Z" fill="#004020"/>
<path d="M126.209 245.396C60.9738 245.396 7.89612 192.166 7.89612 126.743C7.89612 61.3204 60.9738 8.09033 126.209 8.09033C191.445 8.09033 244.522 61.3204 244.522 126.743C244.522 192.166 191.445 245.396 126.209 245.396ZM126.209 13.6506C64.0239 13.6506 13.4405 64.3792 13.4405 126.743C13.4405 189.107 64.0239 239.835 126.209 239.835C188.395 239.835 238.978 189.107 238.978 126.743C238.978 64.3792 188.395 13.6506 126.209 13.6506Z" fill="#004020"/>
<path d="M126.209 194.495C88.995 194.495 58.7076 164.135 58.7076 126.8C58.7076 89.4647 88.9807 59.1047 126.209 59.1047C163.438 59.1047 193.711 89.4647 193.711 126.8C193.711 164.135 163.438 194.495 126.209 194.495ZM126.209 60.5484C89.7789 60.5484 60.1329 90.2652 60.1329 126.814C60.1329 163.364 89.7647 193.08 126.209 193.08C162.654 193.08 192.286 163.349 192.286 126.814C192.286 90.2795 162.654 60.5484 126.209 60.5484Z" fill="#004020"/>
<path d="M126.366 71.1687L129.587 77.7153L136.785 78.773L131.583 83.8616L132.808 91.0657L126.366 87.6637L119.924 91.0657L121.149 83.8616L115.933 78.773L123.145 77.7153L126.366 71.1687Z" fill="#004020"/>
<path d="M103.091 78.0439L105.2 82.3321L109.918 83.0182L106.497 86.3486L107.31 91.0656L103.091 88.8357L98.8722 91.0656L99.6846 86.3486L96.2639 83.0182L100.982 82.3321L103.091 78.0439Z" fill="#004020"/>
<path d="M149.641 78.0439L151.75 82.3321L156.454 83.0182L153.047 86.3486L153.86 91.0656L149.641 88.8357L145.422 91.0656L146.22 86.3486L142.814 83.0182L147.532 82.3321L149.641 78.0439Z" fill="#004020"/>
<path d="M126.366 162.549L129.587 169.095L136.785 170.139L131.583 175.242L132.808 182.431L126.366 179.03L119.924 182.431L121.149 175.242L115.933 170.139L123.145 169.095L126.366 162.549Z" fill="#004020"/>
<path d="M103.091 161.734L105.2 166.008L109.918 166.694L106.497 170.039L107.31 174.741L103.091 172.526L98.8722 174.741L99.6846 170.039L96.2639 166.694L100.982 166.008L103.091 161.734Z" fill="#004020"/>
<path d="M149.641 161.734L151.75 166.008L156.454 166.694L153.047 170.039L153.86 174.741L149.641 172.526L145.422 174.741L146.22 170.039L142.814 166.694L147.532 166.008L149.641 161.734Z" fill="#004020"/>
<path d="M82.1392 136.177V115.923L84.8615 118.567H77.9631V113.636H88.496V136.177H82.1392Z" fill="#004020"/>
<path d="M105.656 136.634C103.732 136.634 102.022 136.177 100.54 135.248C99.0431 134.319 97.8744 132.99 97.0192 131.26C96.164 129.516 95.7365 127.401 95.7365 124.914C95.7365 122.426 96.164 120.311 97.0192 118.567C97.8744 116.823 99.0431 115.494 100.54 114.579C102.022 113.65 103.732 113.193 105.656 113.193C107.581 113.193 109.262 113.65 110.745 114.579C112.227 115.508 113.41 116.838 114.265 118.567C115.12 120.297 115.548 122.426 115.548 124.914C115.548 127.401 115.12 129.516 114.265 131.26C113.41 133.004 112.241 134.333 110.745 135.248C109.248 136.163 107.566 136.634 105.656 136.634ZM105.656 131.417C106.341 131.417 106.953 131.203 107.467 130.774C107.994 130.345 108.407 129.659 108.707 128.701C109.006 127.744 109.163 126.486 109.163 124.914C109.163 123.341 109.006 122.055 108.707 121.111C108.407 120.168 107.994 119.482 107.467 119.053C106.939 118.624 106.341 118.41 105.656 118.41C104.972 118.41 104.359 118.624 103.846 119.053C103.333 119.482 102.906 120.168 102.592 121.111C102.279 122.055 102.122 123.327 102.122 124.914C102.122 126.5 102.279 127.744 102.592 128.701C102.906 129.659 103.319 130.345 103.846 130.774C104.374 131.203 104.972 131.417 105.656 131.417Z" fill="#004020"/>
<path d="M131.511 136.634C129.587 136.634 127.877 136.177 126.394 135.248C124.898 134.319 123.729 132.99 122.874 131.26C122.019 129.516 121.591 127.401 121.591 124.914C121.591 122.426 122.019 120.311 122.874 118.567C123.729 116.823 124.898 115.494 126.394 114.579C127.877 113.65 129.587 113.193 131.511 113.193C133.435 113.193 135.117 113.65 136.599 114.579C138.082 115.508 139.265 116.838 140.12 118.567C140.975 120.297 141.403 122.426 141.403 124.914C141.403 127.401 140.975 129.516 140.12 131.26C139.265 133.004 138.096 134.333 136.599 135.248C135.103 136.163 133.421 136.634 131.511 136.634ZM131.511 131.417C132.195 131.417 132.808 131.203 133.321 130.774C133.849 130.345 134.262 129.659 134.561 128.701C134.861 127.744 135.017 126.486 135.017 124.914C135.017 123.341 134.861 122.055 134.561 121.111C134.262 120.168 133.849 119.482 133.321 119.053C132.794 118.624 132.195 118.41 131.511 118.41C130.827 118.41 130.214 118.624 129.701 119.053C129.188 119.482 128.76 120.168 128.447 121.111C128.133 122.055 127.976 123.327 127.976 124.914C127.976 126.5 128.133 127.744 128.447 128.701C128.76 129.659 129.174 130.345 129.701 130.774C130.228 131.203 130.827 131.417 131.511 131.417Z" fill="#004020"/>
<path d="M152.791 125.843C151.693 125.843 150.71 125.6 149.84 125.099C148.957 124.599 148.273 123.884 147.788 122.955C147.289 122.026 147.047 120.897 147.047 119.582C147.047 118.267 147.289 117.152 147.788 116.237C148.287 115.308 148.957 114.593 149.84 114.093C150.724 113.593 151.707 113.335 152.791 113.335C153.874 113.335 154.9 113.593 155.755 114.093C156.625 114.593 157.309 115.308 157.808 116.237C158.307 117.152 158.563 118.281 158.563 119.582C158.563 120.883 158.307 121.983 157.808 122.927C157.309 123.87 156.625 124.585 155.755 125.085C154.886 125.585 153.902 125.828 152.791 125.828V125.843ZM150.738 136.177L166.089 113.636H170.721L155.37 136.177H150.753H150.738ZM152.819 122.784C153.361 122.784 153.803 122.541 154.159 122.04C154.515 121.554 154.686 120.74 154.686 119.596C154.686 118.453 154.515 117.638 154.159 117.152C153.803 116.666 153.361 116.409 152.819 116.409C152.278 116.409 151.836 116.652 151.451 117.152C151.08 117.652 150.895 118.467 150.895 119.596C150.895 120.725 151.08 121.554 151.451 122.04C151.821 122.541 152.278 122.784 152.819 122.784ZM168.654 136.477C167.542 136.477 166.545 136.234 165.675 135.734C164.806 135.234 164.122 134.519 163.637 133.59C163.138 132.661 162.896 131.531 162.896 130.216C162.896 128.901 163.138 127.786 163.637 126.872C164.136 125.943 164.806 125.228 165.675 124.728C166.545 124.227 167.528 123.97 168.654 123.97C169.78 123.97 170.764 124.227 171.619 124.728C172.488 125.228 173.172 125.943 173.671 126.872C174.17 127.786 174.427 128.916 174.427 130.216C174.427 131.517 174.17 132.646 173.671 133.59C173.172 134.519 172.488 135.234 171.619 135.734C170.749 136.234 169.766 136.477 168.654 136.477ZM168.654 133.418C169.181 133.418 169.638 133.175 170.008 132.675C170.379 132.189 170.55 131.374 170.55 130.231C170.55 129.087 170.364 128.272 170.008 127.786C169.652 127.3 169.196 127.043 168.654 127.043C168.113 127.043 167.699 127.286 167.314 127.786C166.944 128.287 166.758 129.102 166.758 130.231C166.758 131.36 166.944 132.189 167.314 132.675C167.685 133.175 168.127 133.418 168.654 133.418Z" fill="#004020"/>
<path d="M37.0256 92.4647L44.4583 95.1999L43.8315 96.9128L40.4192 95.6571L38.1537 94.7595L38.1455 94.7821L43.1718 98.7159L42.5987 100.282L36.2281 100.022L36.2199 100.045L38.5266 100.83L41.9389 102.085L41.3081 103.81L33.8753 101.075L34.8856 98.3135L39.0983 98.534L40.8275 98.6972L40.8357 98.6746L39.4271 97.6704L36.0566 95.113L37.0256 92.4647Z" fill="white"/>
<path d="M44.2487 81.2971C44.5684 80.752 44.9545 80.3388 45.4069 80.0576C45.8564 79.7655 46.3512 79.6255 46.8913 79.6375C47.4286 79.6386 47.9797 79.8058 48.5448 80.139C49.1098 80.4723 49.5268 80.8761 49.7958 81.3505C50.0619 81.814 50.1804 82.3157 50.1512 82.8558C50.1191 83.3849 49.9432 83.922 49.6235 84.4672C49.3119 84.9985 48.9314 85.4103 48.4818 85.7024C48.0254 85.9905 47.5286 86.134 46.9913 86.1329C46.4512 86.1208 45.8986 85.9482 45.3336 85.6149C44.7685 85.2817 44.353 84.8833 44.0868 84.4199C43.8179 83.9454 43.7014 83.4402 43.7375 82.9043C43.7667 82.3642 43.9371 81.8285 44.2487 81.2971ZM45.4994 82.0348C45.3821 82.2349 45.3291 82.4359 45.3406 82.6377C45.3521 82.8395 45.4424 83.0414 45.6115 83.2433C45.7806 83.4452 46.034 83.6457 46.3716 83.8448C46.7093 84.044 47.0071 84.1686 47.2653 84.2187C47.5165 84.2647 47.7363 84.2457 47.9246 84.1617C48.1061 84.0737 48.2555 83.9296 48.3729 83.7295C48.4943 83.5225 48.5492 83.3181 48.5377 83.1163C48.5194 82.9104 48.4291 82.7085 48.2669 82.5107C48.0978 82.3088 47.8444 82.1083 47.5067 81.9091C47.1691 81.71 46.8712 81.5854 46.6131 81.5353C46.355 81.4852 46.1352 81.5042 45.9537 81.5922C45.7723 81.6802 45.6208 81.8277 45.4994 82.0348Z" fill="white"/>
<path d="M54.8488 75.7868L50.1866 72.0101L51.3308 70.5896L53.0023 71.8047L52.6821 71.8387C52.3966 71.5045 52.2047 71.1688 52.1064 70.8318C52.0131 70.4885 52.0058 70.1532 52.0846 69.8258C52.1622 69.4871 52.3215 69.1683 52.5623 68.8692C52.8233 68.5452 53.1113 68.3152 53.4263 68.1792C53.7463 68.0369 54.0828 67.9954 54.4356 68.0548C54.7884 68.1141 55.1482 68.2923 55.515 68.5894L58.62 71.1047L57.3404 72.6935L54.6549 70.5181C54.3317 70.2562 54.0577 70.1372 53.833 70.1611C53.6084 70.185 53.4182 70.2935 53.2627 70.4867C53.1422 70.6362 53.0666 70.8066 53.0358 70.9979C52.9988 71.1841 53.0279 71.3775 53.1231 71.5782C53.2183 71.7788 53.3964 71.9849 53.6575 72.1964L56.1285 74.1981L54.8488 75.7868Z" fill="white"/>
<path d="M65.4865 63.851C65.0012 64.3041 64.4958 64.6063 63.9703 64.7575C63.4508 64.9033 62.9366 64.8962 62.428 64.7363C61.9194 64.5764 61.4419 64.256 60.9956 63.7752C60.5493 63.2945 60.2648 62.7939 60.1421 62.2737C60.0195 61.7535 60.0463 61.2414 60.2226 60.7376C60.4047 60.2283 60.7209 59.7634 61.1712 59.3431C61.6332 58.9118 62.1093 58.6369 62.5997 58.5184C63.0904 58.3886 63.5676 58.4028 64.031 58.5611C64.4891 58.7136 64.9059 58.9921 65.2814 59.3966C65.3794 59.5022 65.4744 59.6105 65.5665 59.7215C65.6586 59.8325 65.7315 59.9286 65.7851 60.0099L62.3115 63.2527L61.5686 62.4523L64.3843 59.8237L63.9269 60.7596C63.6004 60.4078 63.2857 60.1982 62.9829 60.1306C62.6859 60.0577 62.4058 60.144 62.1427 60.3897C61.9556 60.5644 61.8356 60.7585 61.7827 60.972C61.7357 61.18 61.7642 61.4106 61.8682 61.6638C61.978 61.9114 62.169 62.1819 62.4411 62.475C62.7078 62.7623 62.9635 62.9614 63.2082 63.0722C63.4475 63.1771 63.6755 63.2051 63.892 63.1562C64.1031 63.1014 64.3081 62.9812 64.5069 62.7956C64.7291 62.5881 64.8637 62.3804 64.9107 62.1723C64.9636 61.9588 64.9487 61.7429 64.8661 61.5245L66.4264 60.8066C66.5786 61.1351 66.6339 61.4829 66.5926 61.8499C66.5516 62.2055 66.4315 62.5584 66.2325 62.9083C66.0393 63.2529 65.7906 63.5671 65.4865 63.851Z" fill="white"/>
<path d="M73.6376 49.3373L75.325 55.5012C75.5076 56.147 75.6 56.6999 75.6022 57.1599C75.6044 57.6199 75.5073 58.0228 75.3111 58.3687C75.1149 58.7146 74.8115 59.0337 74.4009 59.326C74.1272 59.5209 73.8555 59.6701 73.5858 59.7738C73.3161 59.8774 73.0596 59.9373 72.8162 59.9534L72.3512 58.5904C72.5286 58.5918 72.6941 58.5624 72.8475 58.5023C73.0056 58.4487 73.1856 58.3499 73.3877 58.2061C73.5767 58.0716 73.7067 57.9299 73.7778 57.7811C73.8554 57.6276 73.8654 57.434 73.8076 57.2001L73.7198 56.806L72.2099 55.8776L68.1437 53.2485L69.9717 51.9471L72.7004 54.2027L73.6699 55.0739L73.181 53.8016L71.9855 50.5135L73.6376 49.3373Z" fill="white"/>
<path d="M83.5188 45.6686L84.3303 47.1259L80.4983 49.2719L79.6868 47.8146L83.5188 45.6686Z" fill="white"/>
<path d="M88.5564 47.5408L85.5457 40.2153L89.1056 38.7438C90.0106 38.3784 90.7474 38.2772 91.3161 38.4404C91.8818 38.5961 92.2954 38.9921 92.5569 39.6285C92.7272 40.0429 92.7527 40.4521 92.6334 40.8564C92.5111 41.2532 92.2153 41.5962 91.746 41.8854L91.7506 41.8965C92.3429 41.7383 92.8412 41.7617 93.2455 41.9668C93.6542 42.1614 93.9497 42.4807 94.1322 42.9247C94.3907 43.5537 94.3696 44.1337 94.0689 44.6648C93.7652 45.1886 93.1698 45.6338 92.2826 46.0005L88.5564 47.5408ZM89.8454 45.4368L91.409 44.7905C91.7565 44.6468 91.9864 44.4696 92.0987 44.2587C92.2109 44.0478 92.2123 43.8092 92.1028 43.5428C91.9964 43.2838 91.8308 43.1229 91.606 43.06C91.3782 42.9897 91.0905 43.0264 90.743 43.17L89.1794 43.8163L89.8454 45.4368ZM88.6183 42.4511L90.0045 41.8781C90.6847 41.597 90.9153 41.19 90.6963 40.6573C90.4774 40.1245 90.0278 39.9987 89.3476 40.2799L87.9614 40.8529L88.6183 42.4511Z" fill="white"/>
<path d="M102.682 38.4192C102.613 38.1479 102.481 37.9547 102.286 37.8395C102.097 37.7146 101.875 37.685 101.619 37.7507C101.364 37.8165 101.16 37.9391 101.007 38.1187C100.861 38.2885 100.794 38.5452 100.808 38.8886L99.0333 38.9237C98.9991 38.3377 99.1719 37.8183 99.5515 37.3655C99.9312 36.9127 100.543 36.5777 101.388 36.3606C101.953 36.2152 102.456 36.1769 102.894 36.2458C103.339 36.305 103.708 36.4743 104.003 36.7538C104.303 37.0236 104.514 37.3987 104.637 37.8793L105.181 40.0068C105.258 40.3091 105.433 40.4254 105.704 40.3557C105.843 40.3198 105.952 40.2754 106.029 40.2225L106.201 41.3801C105.996 41.5484 105.727 41.6754 105.394 41.761C105.092 41.8387 104.813 41.8609 104.557 41.8277C104.299 41.7867 104.079 41.6863 103.898 41.5264C103.714 41.3587 103.584 41.1237 103.507 40.8215L103.489 40.7517L103.689 40.6135C103.774 40.9468 103.745 41.2517 103.601 41.5283C103.465 41.8029 103.251 42.0353 102.962 42.2255C102.679 42.4137 102.368 42.5516 102.027 42.6392C101.632 42.7408 101.271 42.7675 100.945 42.7192C100.619 42.6709 100.345 42.5514 100.123 42.3607C99.9062 42.1603 99.7534 41.8856 99.6642 41.5369C99.5572 41.1183 99.593 40.7415 99.7716 40.4065C99.956 40.0618 100.305 39.7654 100.82 39.5174L102.901 38.4992L103.157 39.5486L102.1 40.068C101.88 40.1742 101.723 40.2888 101.631 40.4117C101.544 40.5248 101.524 40.6706 101.569 40.8488C101.613 41.0193 101.707 41.1313 101.853 41.1847C101.999 41.2381 102.157 41.2428 102.328 41.199C102.459 41.1651 102.578 41.1139 102.685 41.0452C102.799 40.9746 102.892 40.8886 102.965 40.7872C103.037 40.678 103.083 40.5545 103.106 40.4165C103.129 40.2785 103.118 40.1243 103.074 39.9538L102.682 38.4192Z" fill="white"/>
<path d="M113.676 33.8631C114.279 33.7882 114.79 33.8134 115.209 33.9388C115.634 34.0552 115.976 34.2426 116.233 34.5008C116.498 34.7501 116.678 35.034 116.774 35.3527L114.981 36.2042C114.883 35.8697 114.748 35.6284 114.577 35.4804C114.412 35.3235 114.191 35.2623 113.913 35.2968C113.659 35.3283 113.452 35.4145 113.292 35.5553C113.139 35.6872 113.035 35.8856 112.979 36.1505C112.922 36.4075 112.918 36.7305 112.966 37.1195C113.014 37.5086 113.101 37.8202 113.226 38.0545C113.351 38.2809 113.507 38.4388 113.696 38.5283C113.883 38.6098 114.096 38.6357 114.334 38.6062C114.533 38.5815 114.691 38.5256 114.809 38.4383C114.934 38.3422 115.032 38.2172 115.101 38.0635C115.171 37.9097 115.205 37.7281 115.203 37.5187L117.098 37.876C117.085 38.2322 116.973 38.5646 116.761 38.8731C116.556 39.1726 116.265 39.4264 115.888 39.6345C115.511 39.8426 115.056 39.9797 114.524 40.0457C113.873 40.1266 113.291 40.078 112.777 39.9C112.262 39.714 111.846 39.407 111.527 38.979C111.207 38.5431 111.007 37.9997 110.926 37.3486C110.846 36.6976 110.908 36.1255 111.113 35.6325C111.318 35.1315 111.639 34.7328 112.078 34.4364C112.524 34.1312 113.057 33.94 113.676 33.8631Z" fill="white"/>
<path d="M129.118 33.1869L126.189 36.2116L125.803 36.3133L124.056 38.2051L124.078 36.1172L126.85 33.1499L129.118 33.1869ZM124.612 30.5692L124.473 39.112L122.434 39.0788L122.572 30.536L124.612 30.5692ZM126.521 34.9448L129.153 39.1882L126.897 39.1515L125.17 36.123L126.521 34.9448Z" fill="white"/>
<path d="M142.926 40.8009C142.239 40.6489 141.659 40.3608 141.187 39.9369C140.723 39.5147 140.408 38.9738 140.242 38.3144C140.076 37.6549 140.086 36.8993 140.274 36.0477C140.457 35.2117 140.771 34.5313 141.214 34.0066C141.657 33.482 142.203 33.1234 142.851 32.9309C143.508 32.7402 144.23 32.7321 145.019 32.9066C145.894 33.1002 146.566 33.4167 147.034 33.8563C147.504 34.2881 147.812 34.8806 147.958 35.6338L145.932 35.96C145.919 35.5391 145.803 35.2102 145.584 34.9735C145.366 34.7368 145.066 34.5761 144.683 34.4914C144.3 34.4067 143.951 34.4279 143.637 34.5549C143.324 34.6742 143.058 34.8979 142.838 35.2262C142.62 35.5467 142.453 35.9687 142.338 36.4922C142.218 37.0391 142.188 37.5117 142.248 37.9101C142.315 38.3101 142.47 38.6311 142.711 38.873C142.963 39.1088 143.299 39.2734 143.721 39.3667C143.947 39.4168 144.161 39.4353 144.36 39.4221C144.56 39.4088 144.741 39.367 144.904 39.2965C145.068 39.2183 145.207 39.1096 145.319 38.9706C145.434 38.8238 145.515 38.6411 145.563 38.4223L145.589 38.3051L143.819 37.9137L144.116 36.5659L147.596 37.3358L146.678 41.508L145.307 41.2047L145.554 39.3545L145.821 39.7083C145.54 40.2033 145.153 40.5479 144.659 40.7419C144.176 40.9299 143.598 40.9495 142.926 40.8009Z" fill="white"/>
<path d="M156.004 44.3802C155.625 44.2294 155.315 44.0331 155.075 43.7914C154.846 43.5451 154.706 43.2444 154.658 42.8892C154.609 42.534 154.677 42.1221 154.862 41.6534L156.336 37.9262L158.232 38.68L156.934 41.9609C156.793 42.318 156.765 42.5953 156.851 42.7928C156.936 42.9903 157.109 43.1408 157.369 43.2443C157.503 43.2975 157.638 43.3254 157.775 43.3281C157.914 43.3233 158.048 43.2903 158.175 43.2291C158.305 43.1604 158.424 43.0568 158.53 42.9183C158.647 42.7753 158.748 42.596 158.833 42.3802L160.016 39.3895L161.911 40.1434L159.705 45.723L158.01 45.049L158.369 43.9779C158.035 44.3012 157.67 44.496 157.274 44.5623C156.88 44.6212 156.457 44.5605 156.004 44.3802Z" fill="white"/>
<path d="M170.934 46.942C171.072 46.6986 171.111 46.4676 171.051 46.2491C171.002 46.0276 170.863 45.8514 170.634 45.7204C170.405 45.5894 170.173 45.5354 169.939 45.5583C169.716 45.5783 169.491 45.7165 169.262 45.9729L167.964 44.7607C168.345 44.3155 168.83 44.0624 169.416 44.0016C170.003 43.9407 170.675 44.1266 171.432 44.5593C171.939 44.8491 172.326 45.1717 172.593 45.5272C172.872 45.8797 173.019 46.2591 173.037 46.6653C173.065 47.0686 172.957 47.4859 172.712 47.9171L171.627 49.8263C171.473 50.0976 171.517 50.3027 171.76 50.4416C171.885 50.5131 171.994 50.5567 172.086 50.5726L171.407 51.525C171.143 51.5033 170.862 51.4071 170.563 51.2364C170.293 51.0816 170.077 50.9029 169.916 50.7003C169.759 50.4908 169.671 50.2654 169.651 50.024C169.636 49.7757 169.706 49.5159 169.86 49.2446L169.895 49.182L170.135 49.2221C169.965 49.5212 169.732 49.72 169.437 49.8185C169.149 49.9209 168.834 49.9395 168.494 49.8741C168.161 49.8127 167.842 49.6946 167.536 49.52C167.182 49.3175 166.905 49.0852 166.704 48.8231C166.503 48.5609 166.389 48.2838 166.362 47.9918C166.346 47.6968 166.426 47.3928 166.604 47.0798C166.818 46.7042 167.105 46.4582 167.465 46.3418C167.837 46.2224 168.293 46.253 168.835 46.4335L171.035 47.1521L170.491 48.0851L169.372 47.7221C169.14 47.6447 168.948 47.618 168.797 47.6419C168.656 47.6629 168.54 47.7533 168.449 47.9133C168.362 48.0663 168.353 48.2128 168.42 48.3528C168.488 48.4929 168.598 48.6066 168.751 48.6939C168.869 48.7614 168.99 48.8075 169.114 48.8323C169.245 48.861 169.372 48.8644 169.495 48.8425C169.622 48.8136 169.741 48.7575 169.853 48.674C169.965 48.5905 170.064 48.4722 170.151 48.3192L170.934 46.942Z" fill="white"/>
<path d="M176.004 54.5417L179.537 49.692L180.989 50.7558L180.294 51.853C180.68 51.5807 181.066 51.4318 181.45 51.4063C181.842 51.3855 182.224 51.5123 182.599 51.7865C182.721 51.8763 182.817 51.9617 182.887 52.0425C182.963 52.1281 183.016 52.206 183.044 52.2761L181.89 53.5135C181.844 53.4403 181.774 53.3595 181.681 53.2709C181.598 53.1806 181.486 53.0834 181.344 52.9794C181.15 52.8376 180.939 52.7472 180.71 52.7083C180.481 52.6695 180.253 52.6963 180.028 52.7887C179.813 52.8795 179.614 53.0509 179.43 53.3031L177.65 55.7474L176.004 54.5417Z" fill="white"/>
<path d="M187.639 58.9406C187.828 58.734 187.918 58.5174 187.908 58.2911C187.909 58.0642 187.813 57.8614 187.619 57.6827C187.424 57.504 187.211 57.3998 186.977 57.3703C186.756 57.3402 186.505 57.4247 186.225 57.624L185.229 56.1532C185.7 55.8039 186.228 55.6648 186.813 55.7358C187.399 55.8069 188.013 56.1375 188.654 56.7278C189.084 57.1231 189.39 57.5238 189.572 57.9298C189.764 58.3354 189.824 58.7382 189.751 59.1383C189.689 59.5379 189.491 59.9207 189.156 60.2868L187.674 61.9074C187.464 62.1377 187.462 62.3476 187.668 62.5371C187.774 62.6346 187.87 62.7013 187.956 62.7373L187.082 63.5151C186.83 63.4353 186.578 63.279 186.324 63.0461C186.095 62.8349 185.924 62.6127 185.812 62.3794C185.706 62.1401 185.67 61.9007 185.705 61.6611C185.745 61.4155 185.87 61.1776 186.081 60.9473L186.129 60.8942L186.354 60.9865C186.122 61.2404 185.851 61.3825 185.541 61.413C185.237 61.4488 184.927 61.397 184.61 61.2577C184.299 61.1237 184.014 60.9376 183.755 60.6993C183.454 60.4232 183.236 60.135 183.098 59.8347C182.961 59.5345 182.911 59.2389 182.949 58.9481C182.999 58.6568 183.145 58.3783 183.388 58.1126C183.68 57.7938 184.014 57.6177 184.392 57.5843C184.78 57.5505 185.218 57.6818 185.706 57.9782L187.691 59.168L186.954 59.9569L185.944 59.3542C185.735 59.2272 185.554 59.1585 185.401 59.1481C185.259 59.1373 185.126 59.1997 185.002 59.3355C184.883 59.4654 184.841 59.6061 184.876 59.7577C184.911 59.9093 184.993 60.0447 185.122 60.1638C185.222 60.2559 185.33 60.3277 185.446 60.3795C185.567 60.4366 185.69 60.4681 185.814 60.4741C185.944 60.4741 186.073 60.4458 186.201 60.3893C186.328 60.3327 186.452 60.2395 186.57 60.1096L187.639 58.9406Z" fill="white"/>
<path d="M191.023 67.4603L195.648 63.6382L196.806 65.0474L195.284 66.4457L195.315 66.1243C195.698 65.9109 196.065 65.7898 196.414 65.7608C196.768 65.7381 197.097 65.7983 197.401 65.9414C197.716 66.0856 197.996 66.3061 198.239 66.6028C198.503 66.9242 198.67 67.2533 198.74 67.5901C198.815 67.9331 198.788 68.272 198.659 68.6067C198.53 68.9414 198.284 69.2591 197.92 69.5598L194.84 72.1054L193.545 70.5292L196.209 68.3276C196.529 68.0626 196.701 67.8174 196.722 67.5918C196.744 67.3663 196.676 67.1577 196.519 66.9661C196.397 66.8177 196.246 66.7092 196.065 66.6406C195.89 66.5669 195.696 66.5566 195.481 66.6098C195.265 66.6631 195.028 66.7967 194.769 67.0107L192.318 69.0365L191.023 67.4603Z" fill="white"/>
<path d="M207 75.5362L202.14 78.6489C201.897 78.8042 201.758 78.9738 201.724 79.1575C201.7 79.3437 201.755 79.5414 201.888 79.7506C201.991 79.9125 202.096 80.0401 202.203 80.1332C202.32 80.2288 202.446 80.3001 202.581 80.3471L201.636 81.2088C201.407 81.1178 201.177 80.9656 200.947 80.7523C200.716 80.539 200.515 80.2974 200.343 80.0275C200.098 79.6429 199.939 79.2743 199.866 78.9219C199.798 78.5761 199.832 78.2502 199.969 77.944C200.111 77.6445 200.374 77.3663 200.761 77.1093L205.43 74.1196L207 75.5362ZM206.354 78.0734L205.131 78.8564L202.521 74.7569L203.744 73.9738L206.354 78.0734Z" fill="white"/>
<path d="M204.59 87.462C204.3 86.8649 204.16 86.2924 204.169 85.7445C204.182 85.2039 204.339 84.713 204.641 84.2718C204.942 83.8305 205.388 83.4658 205.977 83.1777C206.566 82.8896 207.127 82.7623 207.659 82.7959C208.192 82.8296 208.672 83.0042 209.101 83.3197C209.534 83.6425 209.885 84.0809 210.154 84.6349C210.431 85.2033 210.554 85.7398 210.523 86.2445C210.503 86.7528 210.35 87.2062 210.064 87.6046C209.784 87.9995 209.396 88.3181 208.9 88.5606C208.771 88.6238 208.64 88.6835 208.507 88.7395C208.374 88.7956 208.261 88.8375 208.168 88.8653L206.09 84.5915L207.071 84.1119L208.756 87.5762L207.996 86.8654C208.428 86.6546 208.72 86.4138 208.873 86.1431C209.029 85.8796 209.029 85.5859 208.871 85.2621C208.76 85.0319 208.609 84.8604 208.421 84.7476C208.236 84.642 208.008 84.6023 207.736 84.6284C207.468 84.6617 207.154 84.7662 206.794 84.9419C206.442 85.1141 206.178 85.3014 206 85.5038C205.83 85.7028 205.737 85.9132 205.72 86.1351C205.71 86.3534 205.765 86.5849 205.884 86.8296C206.017 87.103 206.176 87.2925 206.361 87.398C206.549 87.5108 206.759 87.5593 206.992 87.5436L207.22 89.2485C206.862 89.2989 206.514 89.2509 206.176 89.1045C205.849 88.9618 205.547 88.7441 205.272 88.4514C204.999 88.166 204.772 87.8362 204.59 87.462Z" fill="white"/>
<path d="M209.245 98.4419C209.039 97.8108 208.978 97.2246 209.061 96.6833C209.148 96.1496 209.37 95.6847 209.729 95.2887C210.087 94.8928 210.578 94.5922 211.201 94.3871C211.824 94.1821 212.397 94.1324 212.92 94.2383C213.443 94.3441 213.896 94.5825 214.278 94.9536C214.663 95.3323 214.951 95.8143 215.143 96.3997C215.339 97.0004 215.388 97.5486 215.29 98.0443C215.201 98.5451 214.988 98.9733 214.649 99.3289C214.319 99.6819 213.891 99.9447 213.367 100.117C213.23 100.162 213.092 100.204 212.953 100.241C212.814 100.278 212.696 100.304 212.6 100.319L211.122 95.803L212.159 95.4616L213.357 99.1225L212.701 98.315C213.157 98.165 213.48 97.9663 213.668 97.719C213.859 97.4793 213.898 97.1884 213.786 96.8462C213.707 96.6029 213.581 96.4126 213.41 96.2752C213.241 96.1455 213.021 96.075 212.748 96.0638C212.477 96.0602 212.152 96.1209 211.772 96.246C211.399 96.3685 211.112 96.518 210.908 96.6944C210.713 96.8683 210.592 97.0639 210.545 97.2814C210.506 97.4964 210.529 97.7332 210.613 97.9917C210.708 98.2806 210.84 98.4899 211.008 98.6197C211.179 98.7571 211.381 98.8338 211.614 98.8499L211.609 100.57C211.247 100.571 210.909 100.476 210.594 100.285C210.289 100.099 210.019 99.8421 209.786 99.5147C209.555 99.1949 209.375 98.8373 209.245 98.4419Z" fill="white"/>
<path d="M37.0254 158.134L36.3742 156.113L37.906 155.036L37.0746 152.455L35.2007 152.469L34.5643 150.493L42.9523 150.702L43.7102 153.055L37.0254 158.134ZM38.528 152.388L39.124 154.238L41.8741 152.325L38.528 152.388Z" fill="white"/>
<path d="M37.4131 166.377L45.0195 162.538L45.8429 164.179L43.9522 165.254L44.0696 164.926C44.4518 164.796 44.8217 164.749 45.1792 164.783C45.5367 164.818 45.8621 164.931 46.1556 165.124C46.4491 165.316 46.6837 165.588 46.8595 165.938C47.0819 166.381 47.1649 166.823 47.1086 167.264C47.0593 167.701 46.8724 168.113 46.5479 168.501C46.234 168.893 45.7843 169.236 45.1986 169.532C44.613 169.827 44.0628 169.988 43.5481 170.015C43.0335 170.042 42.5811 169.943 42.1911 169.718C41.8047 169.501 41.5002 169.171 41.2778 168.728C41.0338 168.241 40.9794 167.776 41.1144 167.332C41.2565 166.884 41.5239 166.498 41.9165 166.174L42.2597 166.216L38.3279 168.2L37.4131 166.377ZM42.3048 167.43C42.4627 167.744 42.7007 167.933 43.019 167.997C43.3444 168.057 43.757 167.961 44.257 167.708C44.7569 167.456 45.0763 167.183 45.2152 166.889C45.3648 166.598 45.3607 166.296 45.2028 165.981C45.1024 165.781 44.9573 165.634 44.7677 165.542C44.5852 165.446 44.3653 165.409 44.108 165.431C43.8543 165.461 43.5703 165.555 43.2561 165.713C42.9561 165.865 42.7133 166.032 42.5278 166.215C42.353 166.402 42.2461 166.599 42.2072 166.807C42.1682 167.015 42.2008 167.222 42.3048 167.43Z" fill="white"/>
<path d="M52.9041 176.501C53.2669 177.018 53.4826 177.541 53.5509 178.071C53.6304 178.602 53.5531 179.112 53.319 179.6C53.096 180.09 52.7165 180.524 52.1804 180.903C51.6443 181.281 51.1054 181.494 50.5635 181.544C50.0327 181.595 49.5282 181.496 49.0499 181.246C48.5828 180.998 48.1678 180.615 47.8049 180.097C47.4512 179.593 47.2346 179.075 47.1551 178.544C47.0822 178.008 47.1572 177.495 47.3802 177.005C47.6143 176.517 47.9994 176.083 48.5354 175.705C49.0715 175.327 49.6049 175.112 50.1357 175.061C50.6776 175.012 51.1844 175.114 51.6561 175.369C52.1344 175.619 52.5504 175.996 52.9041 176.501ZM51.7175 177.338C51.5843 177.148 51.4237 177.016 51.2357 176.943C51.0477 176.87 50.8271 176.869 50.574 176.94C50.3208 177.011 50.034 177.159 49.7137 177.385C49.3934 177.611 49.1571 177.832 49.005 178.047C48.8594 178.257 48.7858 178.466 48.7842 178.672C48.7891 178.874 48.8582 179.07 48.9914 179.26C49.1292 179.457 49.2921 179.592 49.4801 179.665C49.6746 179.733 49.8952 179.734 50.1419 179.668C50.3951 179.597 50.6818 179.448 51.0022 179.222C51.3225 178.997 51.5587 178.776 51.7109 178.561C51.863 178.346 51.9366 178.138 51.9316 177.935C51.9267 177.733 51.8553 177.534 51.7175 177.338Z" fill="white"/>
<path d="M55.8745 190.473C55.4713 190.028 55.1658 189.549 54.9581 189.035C54.7617 188.521 54.6865 188.015 54.7325 187.518L56.2108 187.469C56.1561 187.789 56.174 188.13 56.2645 188.492C56.3662 188.854 56.5542 189.186 56.8284 189.488C56.9951 189.672 57.1588 189.799 57.3195 189.869C57.4802 189.938 57.6167 189.922 57.729 189.82C57.8117 189.744 57.8498 189.655 57.8433 189.553C57.8427 189.445 57.7795 189.286 57.6536 189.076L57.2131 188.341C56.82 187.682 56.6252 187.134 56.6287 186.697C56.6436 186.261 56.8312 185.879 57.1916 185.55C57.4338 185.328 57.7315 185.192 58.0845 185.141C58.4434 185.084 58.8307 185.147 59.2461 185.331C59.6675 185.51 60.096 185.839 60.5315 186.319C60.9401 186.769 61.2354 187.225 61.4172 187.688C61.5991 188.15 61.6573 188.595 61.592 189.023L60.1234 189.048C60.1716 188.744 60.1438 188.433 60.0399 188.116C59.936 187.8 59.7819 187.529 59.5776 187.304C59.4486 187.161 59.3236 187.053 59.2026 186.98C59.093 186.906 58.993 186.868 58.9027 186.864C58.8124 186.859 58.7318 186.89 58.6609 186.954C58.5841 187.024 58.5484 187.122 58.5539 187.247C58.5706 187.372 58.6497 187.555 58.7911 187.794L59.3655 188.748C59.6968 189.28 59.8446 189.746 59.8088 190.147C59.7729 190.548 59.6014 190.889 59.2942 191.169C59.0047 191.434 58.6748 191.594 58.3046 191.65C57.9344 191.707 57.5415 191.643 57.126 191.459C56.7165 191.269 56.2993 190.941 55.8745 190.473Z" fill="white"/>
<path d="M68.4474 191.739L64.5973 196.04C64.4052 196.254 64.317 196.455 64.3327 196.641C64.3597 196.827 64.4653 197.003 64.6496 197.169C64.7923 197.297 64.9275 197.392 65.0552 197.453C65.1943 197.514 65.3347 197.549 65.4767 197.558L64.7967 198.641C64.552 198.615 64.2901 198.53 64.0108 198.386C63.7315 198.242 63.473 198.063 63.2352 197.849C62.8963 197.544 62.6447 197.231 62.4804 196.911C62.3221 196.596 62.2679 196.273 62.3179 195.941C62.3739 195.615 62.5537 195.276 62.8572 194.925L66.5553 190.794L68.4474 191.739ZM68.5035 194.357L67.5349 195.439L63.9233 192.187L64.8919 191.105L68.5035 194.357Z" fill="white"/>
<path d="M72.7543 196.926C72.4236 196.674 72.2278 196.429 72.167 196.191C72.1174 195.952 72.1941 195.699 72.3972 195.431C72.6051 195.157 72.8281 195.015 73.0662 195.006C73.3156 194.994 73.6056 195.115 73.9364 195.367C74.2608 195.615 74.4509 195.861 74.5069 196.105C74.5677 196.342 74.4941 196.598 74.2862 196.872C74.0832 197.14 73.857 197.279 73.6076 197.29C73.3631 197.295 73.0787 197.173 72.7543 196.926ZM73.1446 198.099L69.5186 202.879L67.8967 201.642L71.5227 196.862L73.1446 198.099Z" fill="white"/>
<path d="M79.6734 199.575L76.1211 205.024C75.9769 205.245 75.911 205.426 75.9234 205.569C75.9358 205.711 76.029 205.839 76.2029 205.953C76.3033 206.019 76.3913 206.067 76.4669 206.097C76.5426 206.128 76.6359 206.16 76.7471 206.195L75.9682 207.148C75.7997 207.142 75.6032 207.1 75.3786 207.019C75.154 206.939 74.948 206.837 74.7607 206.715C74.2255 206.364 73.9183 205.985 73.8392 205.579C73.76 205.173 73.9039 204.689 74.271 204.126L77.9675 198.457L79.6734 199.575Z" fill="white"/>
<path d="M84.9004 202.717L81.7422 208.403C81.614 208.634 81.5612 208.82 81.5836 208.961C81.606 209.101 81.7081 209.223 81.8896 209.324C81.9944 209.383 82.0856 209.424 82.1632 209.449C82.2408 209.474 82.3363 209.5 82.4496 209.527L81.74 210.533C81.5716 210.539 81.3725 210.51 81.1427 210.446C80.913 210.382 80.7004 210.295 80.5048 210.186C79.9461 209.874 79.6129 209.518 79.5052 209.119C79.3975 208.72 79.5068 208.227 79.8331 207.639L83.1195 201.723L84.9004 202.717Z" fill="white"/>
<path d="M87.7421 213.821C87.1322 213.558 86.652 213.216 86.3013 212.796C85.958 212.378 85.7564 211.903 85.6965 211.372C85.6365 210.842 85.7356 210.274 85.9938 209.671C86.2519 209.068 86.5935 208.606 87.0185 208.283C87.4436 207.961 87.9217 207.78 88.4528 207.738C88.9913 207.7 89.5434 207.803 90.1092 208.046C90.6897 208.296 91.1332 208.622 91.4398 209.024C91.7569 209.422 91.937 209.865 91.9801 210.354C92.0264 210.835 91.9409 211.33 91.7237 211.837C91.667 211.97 91.6067 212.101 91.5427 212.23C91.4787 212.359 91.4204 212.465 91.368 212.547L87.0032 210.668L87.4328 209.664L90.971 211.187L89.9318 211.144C90.1207 210.703 90.1846 210.33 90.1237 210.025C90.0701 209.723 89.878 209.501 89.5473 209.359C89.3122 209.258 89.0865 209.226 88.8703 209.263C88.6614 209.304 88.4625 209.423 88.2736 209.621C88.0921 209.821 87.9226 210.105 87.7652 210.473C87.611 210.833 87.5328 211.148 87.5308 211.417C87.5318 211.679 87.5985 211.899 87.7308 212.078C87.8663 212.25 88.0589 212.389 88.3087 212.497C88.588 212.617 88.832 212.657 89.0409 212.616C89.2571 212.579 89.4481 212.478 89.614 212.314L90.9005 213.456C90.6623 213.728 90.3674 213.919 90.0157 214.029C89.6746 214.134 89.3041 214.166 88.9042 214.125C88.5116 214.087 88.1242 213.985 87.7421 213.821Z" fill="white"/>
<path d="M105.083 212.629C104.679 212.531 104.401 212.386 104.25 212.193C104.108 211.994 104.077 211.732 104.155 211.405C104.236 211.07 104.383 210.851 104.598 210.746C104.822 210.636 105.136 210.63 105.54 210.728C105.937 210.823 106.21 210.972 106.359 211.172C106.51 211.365 106.545 211.629 106.465 211.964C106.386 212.29 106.235 212.509 106.011 212.619C105.789 212.722 105.479 212.725 105.083 212.629ZM105.912 213.546L104.509 219.379L102.526 218.9L103.929 213.066L105.912 213.546Z" fill="white"/>
<path d="M111.611 220.897C111.018 220.809 110.478 220.632 109.991 220.366C109.514 220.093 109.136 219.749 108.858 219.336L109.972 218.361C110.132 218.644 110.362 218.896 110.661 219.118C110.969 219.334 111.324 219.472 111.728 219.532C111.973 219.568 112.18 219.562 112.349 219.515C112.518 219.467 112.613 219.368 112.635 219.217C112.652 219.107 112.625 219.014 112.555 218.939C112.487 218.856 112.337 218.773 112.107 218.69L111.3 218.401C110.579 218.14 110.081 217.839 109.808 217.5C109.544 217.153 109.447 216.738 109.519 216.256C109.566 215.931 109.711 215.637 109.952 215.374C110.194 215.102 110.534 214.906 110.973 214.785C111.412 214.656 111.953 214.64 112.594 214.735C113.195 214.824 113.712 214.99 114.146 215.232C114.579 215.474 114.906 215.782 115.126 216.154L114.003 217.103C113.848 216.838 113.63 216.615 113.349 216.436C113.068 216.257 112.778 216.145 112.477 216.1C112.287 216.072 112.122 216.068 111.981 216.088C111.85 216.1 111.748 216.134 111.676 216.188C111.603 216.242 111.56 216.316 111.546 216.411C111.53 216.514 111.564 216.612 111.648 216.705C111.74 216.792 111.917 216.883 112.178 216.978L113.226 217.352C113.819 217.553 114.229 217.82 114.454 218.153C114.68 218.486 114.763 218.858 114.702 219.269C114.645 219.657 114.491 219.99 114.239 220.268C113.988 220.546 113.643 220.746 113.205 220.867C112.768 220.98 112.236 220.99 111.611 220.897Z" fill="white"/>
<path d="M125.644 222.051L125.379 216.057L127.201 215.976L127.401 218.033L127.163 217.815C127.224 217.38 127.347 217.014 127.535 216.718C127.73 216.421 127.976 216.194 128.273 216.036C128.578 215.87 128.922 215.779 129.306 215.762C129.722 215.744 130.085 215.807 130.396 215.954C130.714 216.1 130.969 216.325 131.158 216.629C131.348 216.932 131.453 217.32 131.474 217.792L131.65 221.784L129.612 221.874L129.46 218.422C129.441 218.006 129.349 217.722 129.182 217.569C129.015 217.417 128.808 217.346 128.56 217.357C128.368 217.365 128.19 217.421 128.027 217.525C127.863 217.62 127.737 217.77 127.65 217.974C127.563 218.178 127.527 218.448 127.542 218.783L127.682 221.96L125.644 222.051Z" fill="white"/>
<path d="M140.982 214.602C141.603 214.483 142.168 214.501 142.678 214.656C143.195 214.802 143.627 215.082 143.974 215.496C144.328 215.901 144.566 216.425 144.689 217.07C144.811 217.714 144.783 218.294 144.604 218.808C144.432 219.314 144.133 219.733 143.708 220.067C143.289 220.392 142.769 220.613 142.148 220.732C141.543 220.848 140.983 220.833 140.466 220.687C139.949 220.534 139.513 220.255 139.159 219.85C138.811 219.436 138.576 218.907 138.454 218.262C138.331 217.618 138.356 217.043 138.529 216.538C138.708 216.023 139.011 215.602 139.437 215.276C139.862 214.943 140.377 214.718 140.982 214.602ZM141.254 216.028C141.026 216.072 140.84 216.165 140.696 216.306C140.552 216.448 140.46 216.649 140.42 216.909C140.379 217.169 140.396 217.492 140.469 217.877C140.543 218.262 140.646 218.568 140.778 218.795C140.91 219.014 141.069 219.167 141.256 219.253C141.442 219.332 141.649 219.349 141.877 219.306C142.113 219.261 142.303 219.167 142.447 219.026C142.589 218.876 142.681 218.675 142.723 218.423C142.763 218.163 142.747 217.84 142.673 217.455C142.6 217.07 142.497 216.764 142.364 216.537C142.231 216.31 142.072 216.157 141.886 216.079C141.7 216 141.489 215.983 141.254 216.028Z" fill="white"/>
<path d="M152.445 209.982L154.191 215.483C154.278 215.758 154.406 215.935 154.574 216.016C154.748 216.087 154.953 216.084 155.189 216.009C155.372 215.95 155.522 215.881 155.639 215.802C155.762 215.712 155.863 215.609 155.943 215.491L156.53 216.626C156.383 216.824 156.177 217.007 155.912 217.176C155.647 217.345 155.361 217.478 155.057 217.575C154.622 217.714 154.226 217.773 153.867 217.753C153.516 217.731 153.21 217.615 152.95 217.404C152.698 217.19 152.497 216.864 152.349 216.424L150.672 211.14L152.445 209.982ZM154.725 211.257L155.165 212.641L150.535 214.119L150.095 212.735L154.725 211.257Z" fill="white"/>
<path d="M167.933 215.196L163.886 207.698L165.499 206.822L166.626 208.682L166.295 208.575C166.155 208.196 166.096 207.827 166.121 207.468C166.145 207.109 166.249 206.779 166.432 206.479C166.616 206.18 166.88 205.936 167.225 205.749C167.66 205.512 168.099 205.415 168.54 205.458C168.978 205.494 169.394 205.668 169.791 205.981C170.19 206.283 170.546 206.722 170.857 207.3C171.169 207.877 171.345 208.423 171.387 208.937C171.428 209.452 171.343 209.908 171.13 210.306C170.924 210.7 170.604 211.015 170.168 211.251C169.69 211.511 169.227 211.58 168.78 211.459C168.328 211.331 167.936 211.075 167.602 210.692L167.634 210.347L169.726 214.222L167.933 215.196ZM168.843 210.264C169.153 210.096 169.335 209.851 169.389 209.531C169.439 209.203 169.331 208.793 169.065 208.3C168.799 207.807 168.517 207.496 168.22 207.366C167.926 207.225 167.624 207.239 167.315 207.407C167.118 207.514 166.976 207.664 166.889 207.856C166.799 208.042 166.768 208.263 166.798 208.52C166.835 208.774 166.936 209.055 167.104 209.365C167.263 209.66 167.437 209.898 167.625 210.078C167.817 210.248 168.016 210.348 168.225 210.381C168.433 210.413 168.64 210.374 168.843 210.264Z" fill="white"/>
<path d="M177.566 199.407C178.072 199.028 178.587 198.796 179.113 198.711C179.64 198.616 180.151 198.678 180.644 198.897C181.139 199.106 181.583 199.473 181.975 199.999C182.368 200.525 182.596 201.058 182.661 201.6C182.727 202.13 182.643 202.639 182.407 203.126C182.173 203.601 181.803 204.029 181.298 204.408C180.805 204.778 180.295 205.011 179.768 205.107C179.236 205.196 178.722 205.136 178.227 204.928C177.733 204.708 177.291 204.335 176.898 203.809C176.506 203.284 176.277 202.756 176.21 202.225C176.145 201.684 176.233 201.173 176.474 200.692C176.709 200.205 177.073 199.777 177.566 199.407ZM178.434 200.571C178.249 200.71 178.122 200.875 178.055 201.066C177.988 201.256 177.993 201.477 178.071 201.729C178.149 201.981 178.305 202.263 178.539 202.578C178.774 202.892 179 203.122 179.219 203.268C179.433 203.407 179.643 203.475 179.849 203.47C180.051 203.459 180.244 203.384 180.43 203.245C180.622 203.101 180.751 202.933 180.819 202.743C180.881 202.546 180.876 202.324 180.803 202.079C180.725 201.828 180.569 201.545 180.334 201.231C180.1 200.916 179.873 200.686 179.654 200.54C179.436 200.395 179.226 200.327 179.024 200.338C178.823 200.349 178.626 200.427 178.434 200.571Z" fill="white"/>
<path d="M191.417 195.993C190.986 196.411 190.517 196.731 190.011 196.955C189.504 197.167 189.003 197.258 188.506 197.227L188.413 195.746C188.734 195.792 189.073 195.763 189.431 195.662C189.789 195.549 190.114 195.351 190.407 195.067C190.585 194.894 190.707 194.726 190.772 194.563C190.837 194.4 190.816 194.263 190.711 194.154C190.633 194.073 190.543 194.038 190.442 194.047C190.334 194.051 190.178 194.119 189.972 194.252L189.252 194.715C188.607 195.129 188.066 195.341 187.631 195.351C187.196 195.349 186.809 195.172 186.471 194.821C186.243 194.585 186.099 194.29 186.037 193.938C185.97 193.58 186.021 193.19 186.192 192.768C186.358 192.34 186.673 191.901 187.139 191.45C187.575 191.027 188.021 190.717 188.477 190.521C188.932 190.325 189.374 190.253 189.802 190.306L189.87 191.777C189.566 191.738 189.257 191.775 188.945 191.889C188.632 192.002 188.367 192.165 188.148 192.376C188.01 192.51 187.906 192.639 187.837 192.762C187.767 192.874 187.731 192.976 187.73 193.066C187.728 193.157 187.761 193.237 187.827 193.306C187.899 193.381 187.998 193.413 188.122 193.404C188.247 193.384 188.426 193.299 188.66 193.15L189.594 192.546C190.115 192.198 190.575 192.035 190.976 192.059C191.376 192.083 191.721 192.245 192.01 192.544C192.282 192.827 192.451 193.153 192.518 193.522C192.585 193.891 192.534 194.287 192.362 194.709C192.186 195.125 191.871 195.553 191.417 195.993Z" fill="white"/>
<path d="M198.477 188.507C198.094 188.969 197.663 189.338 197.183 189.615C196.702 189.881 196.213 190.025 195.716 190.048L195.464 188.586C195.788 188.596 196.123 188.532 196.467 188.392C196.811 188.241 197.113 188.009 197.374 187.695C197.532 187.504 197.635 187.324 197.682 187.155C197.729 186.986 197.694 186.852 197.577 186.755C197.491 186.683 197.398 186.658 197.298 186.678C197.192 186.693 197.043 186.778 196.853 186.932L196.188 187.47C195.59 187.952 195.076 188.22 194.644 188.277C194.212 188.322 193.808 188.188 193.434 187.875C193.182 187.665 193.006 187.388 192.907 187.044C192.801 186.696 192.811 186.302 192.936 185.864C193.054 185.421 193.32 184.95 193.734 184.452C194.123 183.984 194.533 183.628 194.964 183.384C195.396 183.14 195.827 183.021 196.259 183.027L196.485 184.483C196.178 184.476 195.876 184.547 195.577 184.693C195.278 184.84 195.032 185.03 194.838 185.264C194.715 185.412 194.626 185.551 194.569 185.681C194.512 185.8 194.488 185.905 194.496 185.995C194.504 186.085 194.545 186.161 194.619 186.223C194.699 186.289 194.8 186.311 194.923 186.289C195.044 186.255 195.214 186.151 195.43 185.978L196.294 185.276C196.773 184.874 197.214 184.664 197.615 184.644C198.015 184.625 198.376 184.748 198.695 185.015C198.996 185.266 199.199 185.572 199.306 185.932C199.413 186.292 199.404 186.691 199.279 187.129C199.148 187.562 198.881 188.021 198.477 188.507Z" fill="white"/>
<path d="M198.125 177.801C197.889 178.144 197.654 178.351 197.42 178.422C197.184 178.482 196.928 178.417 196.652 178.225C196.369 178.029 196.218 177.812 196.197 177.574C196.175 177.324 196.282 177.028 196.518 176.686C196.75 176.35 196.986 176.149 197.227 176.082C197.461 176.011 197.719 176.073 198.001 176.269C198.277 176.461 198.427 176.681 198.449 176.931C198.465 177.175 198.357 177.466 198.125 177.801ZM199.276 177.359L204.205 180.78L203.046 182.459L198.117 179.038L199.276 177.359Z" fill="white"/>
<path d="M208.948 173.349C208.762 173.694 208.52 173.959 208.221 174.143C207.926 174.319 207.599 174.42 207.241 174.444C206.875 174.464 206.507 174.406 206.136 174.268L206.005 173.979L207.864 175.109L207.016 176.683L199.504 172.613L200.471 170.817L204.364 172.927L204.02 172.958C203.637 172.624 203.387 172.228 203.268 171.773C203.143 171.314 203.219 170.827 203.496 170.313C203.716 169.905 204.02 169.601 204.409 169.402C204.802 169.196 205.253 169.118 205.763 169.167C206.269 169.205 206.815 169.382 207.399 169.698C207.968 170.007 208.408 170.363 208.717 170.767C209.026 171.171 209.203 171.595 209.246 172.037C209.283 172.475 209.184 172.913 208.948 173.349ZM207.294 173.258C207.461 172.948 207.479 172.644 207.349 172.346C207.211 172.044 206.897 171.76 206.404 171.493C205.912 171.226 205.506 171.12 205.186 171.174C204.859 171.225 204.612 171.405 204.445 171.715C204.335 171.919 204.3 172.127 204.34 172.34C204.376 172.542 204.479 172.739 204.649 172.93C204.818 173.122 205.054 173.3 205.356 173.464C205.659 173.628 205.936 173.728 206.189 173.765C206.442 173.802 206.664 173.777 206.857 173.69C207.042 173.599 207.187 173.455 207.294 173.258Z" fill="white"/>
<path d="M206.061 159.26L212.087 161.708C212.332 161.807 212.522 161.837 212.659 161.798C212.796 161.758 212.903 161.642 212.981 161.449C213.026 161.338 213.056 161.242 213.071 161.162C213.086 161.082 213.1 160.984 213.112 160.868L214.197 161.451C214.224 161.618 214.221 161.819 214.186 162.055C214.151 162.291 214.091 162.513 214.007 162.721C213.768 163.314 213.457 163.689 213.075 163.845C212.693 164 212.19 163.952 211.568 163.699L205.297 161.152L206.061 159.26Z" fill="white"/>
<path d="M216.711 155.113C216.527 155.751 216.248 156.27 215.874 156.669C215.503 157.061 215.057 157.319 214.539 157.443C214.02 157.567 213.445 157.537 212.815 157.354C212.186 157.171 211.684 156.888 211.312 156.505C210.94 156.122 210.7 155.669 210.593 155.146C210.489 154.616 210.522 154.055 210.693 153.463C210.868 152.856 211.136 152.375 211.497 152.022C211.851 151.659 212.269 151.426 212.748 151.324C213.219 151.219 213.72 151.244 214.25 151.398C214.389 151.438 214.526 151.482 214.662 151.53C214.798 151.578 214.91 151.623 214.997 151.665L213.678 156.23L212.629 155.925L213.699 152.225L213.786 153.263C213.325 153.129 212.947 153.11 212.653 153.208C212.36 153.298 212.164 153.516 212.064 153.862C211.993 154.107 211.989 154.336 212.054 154.546C212.12 154.748 212.263 154.932 212.482 155.095C212.703 155.251 213.006 155.385 213.39 155.497C213.766 155.606 214.088 155.646 214.355 155.615C214.614 155.582 214.825 155.489 214.985 155.336C215.139 155.18 215.253 154.972 215.329 154.711C215.413 154.419 215.422 154.171 215.356 153.969C215.292 153.759 215.168 153.581 214.985 153.436L215.957 152.019C216.256 152.223 216.482 152.493 216.635 152.829C216.782 153.155 216.86 153.519 216.868 153.921C216.879 154.316 216.827 154.713 216.711 155.113Z" fill="white"/>
</g>
<defs>
<clipPath id="clip0_40_220">
<rect width="248" height="253" fill="white"/>
</clipPath>
</defs>
</svg>
