<svg version="1.2" xmlns="http://www.w3.org/2000/svg" viewBox="0 0 240 241" width="240" height="241">
	<title>choose</title>
	<defs>
		<clipPath clipPathUnits="userSpaceOnUse" id="cp1">
			<path d="m-6-6h248v253h-248z"/>
		</clipPath>
	</defs>
	<style>
		.s0 { fill: #004020 } 
		.s1 { fill: #ffffff } 
	</style>
	<g id="Clip-Path" clip-path="url(#cp1)">
		<g>
			<path class="s0" d="m224.9 97.1c-0.6-2.6-1.3-5.3-2.1-7.9-13.5-44-54.4-76-102.6-76-48.2 0-89.1 32-102.6 76-0.8 2.6-1.5 5.3-2.1 7.9-1.7 7.6-2.6 15.5-2.6 23.6 0 8.2 0.9 16 2.6 23.6 0.6 2.7 1.3 5.3 2.1 7.9 13.5 44 54.4 76.1 102.6 76.1 48.2 0 89.1-32.1 102.6-76.1 0.8-2.6 1.5-5.2 2.1-7.9 1.7-7.6 2.6-15.5 2.6-23.6 0-8.1-0.9-16-2.6-23.6zm-190.7 30.5l-5.3-2.8-5.4 2.8 1.1-5.9-4.4-4.2 6-0.9 2.7-5.4 2.6 5.4 6 0.9-4.3 4.2zm159 9.5q-0.1 0.4-0.2 0.7c-0.4 1.7-0.8 3.3-1.3 4.9-9.4 30.7-37.9 53-71.5 53-33.7 0-62.2-22.3-71.6-53-0.4-1.6-0.9-3.2-1.2-4.9q-0.1-0.3-0.2-0.7c-1.2-5.3-1.8-10.8-1.8-16.4 0-5.6 0.6-11.2 1.8-16.5q0.1-0.3 0.2-0.7 0.5-2.4 1.2-4.8c9.4-30.7 37.9-53 71.6-53 33.6 0 62.1 22.3 71.5 53 0.5 1.6 0.9 3.2 1.3 4.8q0.1 0.4 0.2 0.7c1.2 5.3 1.8 10.8 1.8 16.5q0 8.5-1.8 16.4zm23.6-9.5l-5.4-2.8-5.3 2.8 1-6-4.3-4.2 6-0.8 2.6-5.5 2.7 5.5 6 0.8-4.4 4.2z"/>
			<path class="s0" d="m120.2 239.4c-65.2 0-118.3-53.2-118.3-118.7 0-65.4 53.1-118.6 118.3-118.6 65.2 0 118.3 53.2 118.3 118.6 0 65.5-53.1 118.7-118.3 118.7zm0-231.7c-62.2 0-112.8 50.7-112.8 113 0 62.4 50.6 113.1 112.8 113.1 62.2 0 112.8-50.7 112.8-113.1 0-62.3-50.6-113-112.8-113z"/>
			<path class="s0" d="m120.2 188.5c-37.2 0-67.5-30.4-67.5-67.7 0-37.3 30.3-67.7 67.5-67.7 37.2 0 67.5 30.4 67.5 67.7 0 37.3-30.3 67.7-67.5 67.7zm0-134c-36.4 0-66.1 29.8-66.1 66.3 0 36.6 29.7 66.3 66.1 66.3 36.5 0 66.1-29.8 66.1-66.3 0-36.5-29.6-66.3-66.1-66.3z"/>
			<path class="s0" d="m120.4 65.2l3.2 6.5 7.2 1.1-5.2 5.1 1.2 7.2-6.4-3.4-6.5 3.4 1.2-7.2-5.2-5.1 7.2-1.1z"/>
			<path class="s0" d="m97.1 72l2.1 4.3 4.7 0.7-3.4 3.3 0.8 4.8-4.2-2.3-4.2 2.3 0.8-4.8-3.4-3.3 4.7-0.7z"/>
			<path class="s0" d="m143.6 72l2.2 4.3 4.7 0.7-3.5 3.3 0.9 4.8-4.3-2.3-4.2 2.3 0.8-4.8-3.4-3.3 4.7-0.7z"/>
			<path class="s0" d="m120.4 156.5l3.2 6.6 7.2 1-5.2 5.1 1.2 7.2-6.4-3.4-6.5 3.4 1.2-7.2-5.2-5.1 7.2-1z"/>
			<path class="s0" d="m97.1 155.7l2.1 4.3 4.7 0.7-3.4 3.3 0.8 4.7-4.2-2.2-4.2 2.2 0.8-4.7-3.4-3.3 4.7-0.7z"/>
			<path class="s0" d="m143.6 155.7l2.2 4.3 4.7 0.7-3.5 3.3 0.9 4.7-4.3-2.2-4.2 2.2 0.8-4.7-3.4-3.3 4.7-0.7z"/>
			<path class="s0" d="m81.9 134v-13.7q0-0.9 0-1.9 0-1 0-2-1.2 1-2.6 1.9-1.5 0.8-3 1l-0.6-5.1q0.9 0 2-0.4 1-0.4 2.1-1 1-0.6 1.9-1.2 0.8-0.7 1.2-1.4h5v23.8zm20.2 0.4q-4.9 0-7.4-3.1-2.5-3.1-2.5-9.2 0-6 2.5-9.1 2.5-3.1 7.4-3.1 4.8 0 7.3 3.1 2.5 3.1 2.5 9.1 0 6.1-2.5 9.2-2.5 3.1-7.3 3.1zm0-4.9q1.3 0 2.1-0.7 0.9-0.7 1.2-2.4 0.4-1.6 0.4-4.3 0-2.6-0.4-4.3-0.3-1.6-1.2-2.3-0.8-0.8-2.1-0.8-1.3 0-2.2 0.8-0.8 0.7-1.2 2.3-0.4 1.7-0.4 4.3 0 2.7 0.4 4.3 0.4 1.7 1.2 2.4 0.9 0.7 2.2 0.7zm23.1 4.9q-4.8 0-7.3-3.1-2.5-3.1-2.5-9.2 0-6 2.5-9.1 2.5-3.1 7.3-3.1 4.9 0 7.4 3.1 2.5 3.1 2.5 9.1 0 6.1-2.5 9.2-2.5 3.1-7.4 3.1zm0-4.9q1.4 0 2.2-0.7 0.8-0.7 1.2-2.4 0.4-1.6 0.4-4.3 0-2.6-0.4-4.3-0.4-1.6-1.2-2.3-0.8-0.8-2.2-0.8-1.3 0-2.1 0.8-0.8 0.7-1.2 2.3-0.4 1.7-0.4 4.3 0 2.7 0.4 4.3 0.4 1.7 1.2 2.4 0.8 0.7 2.1 0.7zm17.9 4.5l16.5-23.8h4.7l-16.5 23.8zm1.5-24.1q2 0 3.5 0.8 1.5 0.9 2.3 2.4 0.9 1.5 0.9 3.5 0 2.1-0.9 3.6-0.8 1.5-2.3 2.4-1.5 0.8-3.5 0.8-2 0-3.6-0.8-1.4-0.9-2.3-2.4-0.8-1.5-0.8-3.6 0-2 0.8-3.5 0.9-1.5 2.3-2.4 1.6-0.8 3.6-0.8zm0 4.1q-0.7 0-1.2 0.3-0.4 0.3-0.7 0.9-0.3 0.6-0.3 1.4 0 0.9 0.3 1.5 0.3 0.6 0.7 0.9 0.5 0.3 1.2 0.3 0.7 0 1.2-0.3 0.4-0.3 0.7-0.9 0.2-0.6 0.2-1.5 0-0.8-0.2-1.4-0.3-0.6-0.7-0.9-0.5-0.3-1.2-0.3zm18.2 6.8q2 0 3.5 0.9 1.5 0.8 2.3 2.3 0.8 1.5 0.8 3.6 0 2-0.8 3.6-0.8 1.5-2.3 2.3-1.5 0.9-3.5 0.9-2.1 0-3.6-0.9-1.5-0.8-2.3-2.3-0.8-1.6-0.8-3.6 0-2.1 0.8-3.6 0.8-1.5 2.3-2.3 1.5-0.9 3.6-0.9zm0 4.1q-0.7 0-1.2 0.4-0.5 0.2-0.8 0.9-0.2 0.5-0.2 1.4 0 0.8 0.2 1.4 0.3 0.6 0.8 1 0.5 0.3 1.2 0.3 0.7 0 1.1-0.3 0.5-0.4 0.8-1 0.2-0.6 0.2-1.4 0-0.9-0.2-1.4-0.3-0.7-0.8-0.9-0.4-0.4-1.1-0.4z"/>
		</g>
	</g>
	<path class="s1" d="m31.4 77.7l12.4 4.9-0.6 1.4-7.8-3.1-3.2-1.4 9.4 8.3-0.6 1.3-12.7-0.4 3.4 1.1 7.7 3.1-0.6 1.4-12.3-4.9 0.9-2.2 8.7 0.3 3.4 0.3v-0.1l-2.6-2.1-6.5-5.6zm7.6-7.3q0.8-1.2 1.9-1.8 1.1-0.6 2.5-0.5 1.3 0.1 2.7 0.9 1.4 0.9 2.1 2 0.6 1.1 0.6 2.4-0.1 1.2-0.8 2.4-0.8 1.2-1.9 1.8-1.1 0.6-2.5 0.5-1.3-0.1-2.7-0.9-1.4-0.9-2.1-2-0.7-1.1-0.6-2.3 0.1-1.3 0.8-2.5zm1.2 0.7q-0.5 0.9-0.5 1.7 0 0.9 0.5 1.7 0.5 0.7 1.5 1.3 1.1 0.6 2 0.8 1 0.1 1.7-0.3 0.8-0.4 1.4-1.2 0.5-0.9 0.5-1.7 0-0.9-0.5-1.6-0.6-0.8-1.6-1.4-1-0.6-2-0.7-0.9-0.2-1.7 0.2-0.8 0.4-1.3 1.2zm12-1.9l-7.8-6.2 0.9-1.1 1.9 1.3-0.4 0.1q-0.4-0.8-0.4-1.5-0.1-0.7 0.2-1.4 0.3-0.7 0.8-1.3 0.7-0.8 1.6-1.2 0.9-0.4 1.9-0.3 1 0.1 2 1l5 4-1.1 1.2-4.5-3.7q-1.3-1-2.2-0.9-1 0.1-1.7 0.9-0.5 0.6-0.7 1.4-0.2 0.7 0.1 1.6 0.3 0.8 1.3 1.6l4.1 3.3zm11.5-11.9q-1 1-2.3 1.3-1.2 0.3-2.5-0.2-1.3-0.4-2.4-1.6-1.1-1.2-1.4-2.4-0.4-1.3 0-2.5 0.4-1.1 1.5-2 1-1 2.1-1.2 1.2-0.2 2.3 0.2 1.1 0.4 2 1.3 0.2 0.2 0.4 0.4 0.1 0.3 0.3 0.4l-6.1 5.5-1-1.1 5.6-4.9-0.5 0.6q-1-1-2.1-1-1.2-0.1-2.1 0.8-0.8 0.6-1 1.5-0.2 0.8 0.1 1.6 0.3 0.9 1.1 1.8 0.8 0.8 1.7 1.2 0.9 0.3 1.7 0.2 0.9-0.2 1.6-0.9 0.9-0.7 1.1-1.5 0.2-0.7 0-1.5l1.5-0.4q0.2 0.8 0.1 1.6-0.1 0.7-0.5 1.4-0.4 0.8-1.2 1.4zm6.1-17.3l3 12.1q0.2 1 0.2 1.7 0 0.7-0.4 1.2-0.3 0.5-0.9 0.9-0.5 0.4-1.1 0.6-0.6 0.2-1.1 0.2l-0.5-1.4q0.6 0.1 1-0.1 0.5-0.1 0.9-0.3 0.4-0.3 0.6-0.9 0.2-0.5-0.1-1.5l-0.3-1.3-2.2-1.3-7.1-4.3 1.5-1 5.9 3.7 1.5 1.1-0.5-2-1.8-6.4zm18 2.3q-0.8 0.3-1.6 0.3-0.8 0-1.5-0.2-0.7-0.3-1.2-0.8l0.1-0.4 0.8 2.3-1.3 0.5-5.8-13.1 1.5-0.7 2.7 6.2-0.3-0.2q0-1 0.7-1.9 0.6-0.9 1.7-1.4 1.2-0.5 2.4-0.4 1.2 0.2 2.3 1 1 0.8 1.7 2.3 0.6 1.4 0.5 2.8-0.1 1.2-0.8 2.2-0.8 1-1.9 1.5zm-0.7-1.2q1.4-0.6 1.7-1.9 0.4-1.2-0.3-2.8-0.7-1.6-1.9-2.2-1.2-0.6-2.5 0-0.9 0.4-1.4 1.1-0.5 0.7-0.5 1.6 0 1 0.4 2 0.5 1.1 1.2 1.7 0.7 0.6 1.5 0.7 0.9 0.2 1.8-0.2zm11.8-9.5q-0.3-1-1.1-1.4-0.7-0.5-1.8-0.2-1 0.3-1.6 0.9-0.6 0.6-0.6 1.7l-1.5-0.4q0.1-1.2 1-2.1 0.8-1 2.4-1.4 1-0.3 2-0.2 1 0.1 1.7 0.7 0.7 0.6 1 1.7l1.3 4.6q0.1 0.7 0.9 0.5 0.4-0.1 0.7-0.3l0.2 1.2q-0.3 0.3-0.9 0.5-0.6 0.1-1.1 0-0.5 0-0.9-0.4-0.4-0.4-0.5-1l-0.1-0.2h0.4q0 0.8-0.4 1.4-0.5 0.6-1.1 1-0.7 0.4-1.4 0.6-0.8 0.2-1.6 0.2-0.9-0.1-1.5-0.6-0.6-0.4-0.8-1.3-0.3-1.1 0.2-1.9 0.6-1 1.8-1.6l3.7-1.7 0.3 1.2-2.9 1.5q-0.9 0.4-1.3 0.9-0.4 0.5-0.2 1.1 0.1 0.6 0.7 0.8 0.6 0.3 1.5 0 0.6-0.1 1-0.4 0.5-0.3 0.8-0.7 0.4-0.4 0.5-0.9 0.1-0.5-0.1-1.1zm9.9-5.7q1.1-0.1 1.9 0.1 0.8 0.2 1.5 0.7 0.7 0.5 1.1 1.3l-1.4 0.9q-0.4-0.9-1.2-1.3-0.7-0.4-1.7-0.3-1 0.2-1.7 0.7-0.7 0.5-0.9 1.4-0.3 0.9-0.1 2.1 0.1 1.1 0.6 1.9 0.5 0.8 1.3 1.1 0.8 0.4 1.8 0.2 0.8-0.1 1.3-0.4 0.6-0.3 0.9-0.8 0.3-0.5 0.3-1.2l1.6 0.3q-0.2 1-0.7 1.7-0.5 0.7-1.3 1.2-0.8 0.5-1.9 0.6-1.4 0.2-2.6-0.3-1.2-0.4-1.9-1.5-0.8-1-1-2.6-0.3-1.6 0.2-2.8 0.5-1.2 1.5-2 1-0.8 2.4-1zm17.3-0.7l-4.3 4.3-0.4 0.4-3.3 3.3v-2l6-6zm-7.3-4.4l0.1 14.4h-1.7v-14.4zm3.1 7.9l4.5 6.4h-2l-3.9-5.5zm18.7 8.9q-1.8-0.4-3-1.5-1.2-1.1-1.5-2.8-0.4-1.6 0.1-3.6 0.4-2 1.6-3.3 1.1-1.3 2.7-1.8 1.6-0.5 3.4-0.1 1.9 0.5 3 1.4 1 1 1.4 2.7l-1.6 0.4q-0.2-1.2-1-1.9-0.8-0.8-2.1-1.1-1.4-0.3-2.5 0.1-1.2 0.3-2.1 1.4-0.8 1-1.2 2.6-0.4 1.6-0.2 2.8 0.3 1.3 1.1 2.1 0.9 0.8 2.3 1.1 0.8 0.2 1.6 0.2 0.7-0.1 1.3-0.4 0.7-0.2 1.1-0.8 0.5-0.5 0.7-1.4l0.1-0.4-4.2-0.9 0.4-1.5 5.6 1.3-1.6 6.4-1.2-0.3 0.5-2.4 0.3 0.1q-0.8 1.1-2.1 1.5-1.2 0.4-2.9 0.1zm12 3.5q-0.9-0.3-1.6-1-0.6-0.6-0.8-1.6-0.2-0.9 0.3-2.1l2.6-6 1.5 0.6-2.4 5.6q-0.6 1.4-0.2 2.2 0.4 0.7 1.5 1.2 0.5 0.2 1.1 0.2 0.6 0.1 1.1-0.2 0.6-0.2 1.1-0.7 0.5-0.5 0.8-1.3l2.1-4.9 1.5 0.6-3.8 9.1-1.4-0.5 0.5-1.5q-0.8 0.7-1.8 0.7-1 0.1-2.1-0.4zm16.5 0.7q0.6-1 0.4-1.8-0.2-0.8-1.2-1.3-0.9-0.6-1.7-0.5-0.9 0-1.7 0.7l-0.7-1.3q0.9-0.8 2.2-0.8 1.3-0.1 2.7 0.7 0.9 0.5 1.5 1.3 0.6 0.7 0.6 1.6 0.1 0.9-0.5 1.9l-2.5 4.1q-0.4 0.7 0.3 1 0.3 0.2 0.7 0.3l-0.7 1q-0.5 0-1-0.3-0.5-0.3-0.8-0.7-0.3-0.4-0.3-0.9 0-0.5 0.3-1.1l0.1-0.2 0.4 0.3q-0.7 0.5-1.4 0.6-0.8 0.2-1.5 0-0.8-0.2-1.4-0.5-0.7-0.4-1.2-1.1-0.6-0.6-0.6-1.3-0.1-0.8 0.4-1.6 0.5-0.9 1.6-1.2 1-0.2 2.3 0.2l3.9 1.3-0.7 1.2-3.2-1.1q-0.9-0.3-1.5-0.2-0.6 0-1 0.6-0.3 0.5-0.1 1.1 0.3 0.6 1 1 0.5 0.3 1.1 0.4 0.5 0.2 1 0.1 0.6 0 1-0.3 0.5-0.3 0.8-0.9zm1.3 8.5l6.2-7.9 1 0.8-0.8 1.4q0.9-0.5 1.8-0.4 1 0.1 1.9 0.8 0.2 0.2 0.4 0.4 0.3 0.2 0.4 0.4l-1.1 1q-0.2-0.2-0.4-0.4-0.1-0.1-0.5-0.4-0.5-0.4-1.3-0.5-0.7-0.1-1.5 0.3-0.8 0.3-1.5 1.2l-3.3 4.2zm15 4.2q0.8-0.8 0.8-1.6 0-0.9-0.8-1.6-0.8-0.7-1.6-0.9-0.8-0.2-1.8 0.3l-0.4-1.5q1.1-0.5 2.4-0.2 1.2 0.2 2.4 1.3 0.8 0.7 1.2 1.6 0.4 0.8 0.2 1.7-0.1 0.9-1 1.8l-3.4 3.4q-0.5 0.5 0.1 1 0.2 0.3 0.6 0.5l-1 0.8q-0.4-0.1-0.9-0.5-0.4-0.4-0.6-0.9-0.1-0.5 0-1 0.1-0.5 0.6-1l0.1-0.1 0.3 0.3q-0.8 0.4-1.5 0.4-0.8-0.1-1.5-0.4-0.7-0.3-1.2-0.8-0.6-0.6-1-1.3-0.3-0.8-0.2-1.5 0.1-0.7 0.7-1.4 0.8-0.8 1.9-0.8 1 0 2.2 0.7l3.4 2.1-0.9 1-2.8-1.7q-0.9-0.6-1.5-0.6-0.6-0.1-1 0.4-0.4 0.4-0.4 1 0.1 0.6 0.8 1.2 0.4 0.4 0.9 0.7 0.5 0.2 1 0.3 0.5 0.1 1-0.1 0.5-0.2 1-0.6zm-0.8 8.5l8-6.1 0.9 1.1-1.7 1.4v-0.3q0.9-0.2 1.6-0.1 0.7 0.1 1.3 0.5 0.7 0.4 1.1 1 0.7 0.8 0.9 1.8 0.2 0.9-0.1 1.8-0.3 1-1.4 1.8l-5.1 3.9-1-1.3 4.7-3.5q1.3-1.1 1.4-2 0.1-1-0.6-1.8-0.4-0.5-1.2-0.9-0.7-0.3-1.6-0.2-0.9 0.1-1.9 0.9l-4.3 3.2zm19.9 5.1l-8.8 5.1q-0.7 0.4-0.8 0.9 0 0.6 0.3 1.1 0.3 0.5 0.7 0.8 0.4 0.2 0.9 0.3l-0.9 1.2q-0.6-0.2-1.2-0.6-0.5-0.4-0.9-1.1-0.4-0.6-0.5-1.3-0.1-0.7 0.2-1.4 0.3-0.6 1.1-1.1l8.7-5.1zm-0.6 4.6l-1.2 0.7-3.8-6.1 1.2-0.8zm-6.1 11.1q-0.6-1.3-0.5-2.5 0.1-1.3 0.9-2.3 0.9-1 2.4-1.7 1.5-0.7 2.8-0.6 1.4 0.1 2.4 0.8 1 0.7 1.6 2 0.5 1.2 0.4 2.4-0.2 1.1-0.9 2-0.7 0.9-1.9 1.4-0.3 0.1-0.6 0.2-0.3 0.1-0.5 0.2l-3.3-7.3 1.3-0.6 3 6.7-0.5-0.7q1.4-0.6 1.8-1.6 0.4-1-0.2-2.2-0.4-0.9-1.1-1.3-0.7-0.5-1.6-0.5-1 0-2.1 0.5-1.1 0.5-1.7 1.2-0.6 0.7-0.8 1.5-0.1 0.9 0.3 1.8 0.5 1 1.2 1.4 0.6 0.5 1.5 0.6l-0.2 1.4q-0.8-0.1-1.5-0.4-0.7-0.3-1.3-0.9-0.5-0.6-0.9-1.5zm3.9 10.6q-0.4-1.3-0.1-2.6 0.3-1.2 1.2-2.1 1-0.9 2.6-1.3 1.6-0.5 2.9-0.2 1.3 0.2 2.2 1.1 0.9 0.8 1.3 2.1 0.4 1.4 0.1 2.4-0.3 1.2-1.2 1.9-0.8 0.8-2.1 1.2-0.3 0.1-0.6 0.1-0.3 0.1-0.5 0.1l-2.3-7.6 1.4-0.4 2.1 7-0.4-0.8q1.4-0.4 1.9-1.4 0.6-0.9 0.2-2.1-0.3-0.9-0.9-1.5-0.6-0.5-1.6-0.7-0.9-0.1-2.1 0.2-1.1 0.4-1.8 1-0.8 0.6-1 1.4-0.2 0.8 0 1.8 0.4 1 1 1.6 0.6 0.5 1.4 0.7l-0.4 1.4q-0.8-0.2-1.4-0.6-0.7-0.4-1.2-1.1-0.4-0.7-0.7-1.6z"/>
	<path class="s1" d="m39.7 142.4l-13.1 2.5-0.4-1.5 13.1-2.6zm3.3 6.6q0.2 0.5 0.2 0.9 0 0.5-0.1 0.8l-1.4-0.1q0.1-0.2 0.1-0.5 0-0.3-0.1-0.6-0.3-0.9-0.8-1.2-0.5-0.4-1.4-0.1l-1.5 0.3-0.5 0.2-9.2 2.4-0.5-1.5 11.4-3q0.6-0.2 1.3-0.1 0.6 0 1.1 0.3 0.5 0.3 0.8 0.8 0.4 0.6 0.6 1.4zm-4.1 2.7l-1.3 0.4-1.9-6.6 1.3-0.4zm-2.3 19l-0.7-1.5 2.7-2.8-2.6-5.3-3.9 0.2-0.8-1.5 14.3-0.9 0.9 1.7zm0.9-9.7l2.1 4.3 4.9-4.9zm-3.2 14l11.9-7.6 0.8 1.1-2 1.5 0.2-0.4q0.7-0.1 1.4 0 0.8 0.2 1.4 0.6 0.7 0.5 1.2 1.2 0.7 1 0.7 2.2 0.1 1.2-0.5 2.3-0.7 1.1-2.1 2-1.3 0.9-2.7 1-1.3 0.1-2.4-0.4-1.1-0.5-1.8-1.6-0.7-1-0.7-2.1 0-1.1 0.5-1.9h0.4l-5.4 3.5zm7.2 1q0.8 1.2 2.2 1.3 1.3 0.1 2.7-0.8 1.5-0.9 1.9-2.1 0.4-1.3-0.4-2.5-0.5-0.8-1.3-1.1-0.8-0.4-1.8-0.2-0.9 0.1-1.9 0.7-0.9 0.6-1.5 1.4-0.5 0.8-0.5 1.6 0.1 0.9 0.6 1.7zm14.1 3.5q0.9 1.1 1.2 2.3 0.2 1.2-0.3 2.4-0.4 1.2-1.7 2.3-1.2 1-2.5 1.3-1.3 0.3-2.5-0.2-1.2-0.4-2.2-1.4-0.9-1.1-1.1-2.3-0.3-1.2 0.2-2.4 0.5-1.3 1.7-2.3 1.2-1 2.5-1.3 1.3-0.3 2.5 0.1 1.3 0.5 2.2 1.5zm-1.1 0.9q-0.6-0.8-1.5-1-0.8-0.3-1.7 0-0.9 0.2-1.8 1-0.9 0.8-1.3 1.6-0.4 0.8-0.3 1.7 0.1 0.8 0.8 1.6 0.7 0.7 1.5 1 0.8 0.2 1.7 0 1-0.3 1.9-1 0.9-0.8 1.3-1.6 0.4-0.9 0.2-1.7-0.1-0.8-0.8-1.6zm1.3 13.9q-1.1-1-1.7-2.2-0.5-1.3-0.2-2.6l1.7 0.2q-0.3 1 0 1.9 0.3 1 1.2 1.8 0.8 0.7 1.5 0.8 0.8 0.1 1.2-0.4 0.3-0.3 0.3-0.7 0-0.5-0.4-1.1l-1.5-2q-0.9-1.1-0.9-2.1 0-0.9 0.7-1.7 0.6-0.6 1.4-0.7 0.8-0.2 1.7 0.1 1 0.2 1.8 1 1.2 1 1.5 2.1 0.4 1.1 0.1 2.2l-1.6-0.2q0.3-0.9 0-1.7-0.3-0.8-0.9-1.4-0.5-0.4-1.1-0.6-0.5-0.2-0.9-0.1-0.5 0-0.8 0.3-0.3 0.4-0.3 0.8 0 0.5 0.5 1.2l1.5 2q0.9 1.2 0.9 2 0 0.8-0.6 1.5-0.7 0.7-1.5 0.9-0.9 0.2-1.8-0.2-1-0.3-1.8-1.1zm8.3 6.6q-1.2-0.9-1.8-2.1-0.7-1.2-0.6-2.5h1.7q-0.1 1 0.2 1.9 0.4 0.9 1.4 1.6 0.9 0.7 1.6 0.7 0.8 0 1.2-0.5 0.2-0.4 0.2-0.8 0-0.4-0.6-1l-1.6-1.8q-1.1-1.1-1.2-2-0.1-0.9 0.5-1.8 0.5-0.6 1.3-0.9 0.8-0.3 1.7-0.1 1 0.2 2 0.9 1.2 0.8 1.7 1.9 0.5 1.1 0.3 2.2l-1.6-0.1q0.2-0.9-0.2-1.6-0.4-0.8-1.1-1.3-0.6-0.4-1.1-0.6-0.5-0.1-1 0-0.4 0.2-0.6 0.5-0.3 0.4-0.3 0.8 0.1 0.5 0.6 1.1l1.8 1.9q1 1 1.1 1.8 0.1 0.9-0.5 1.6-0.5 0.8-1.4 1.1-0.8 0.2-1.7 0-1-0.2-2-0.9zm14.4-6.1l-5 8.6q-0.3 0.7-0.2 1.2 0.2 0.5 0.8 0.8 0.5 0.3 1 0.3 0.5 0.1 0.9 0l-0.1 1.4q-0.7 0.1-1.3 0-0.7-0.1-1.4-0.5-0.7-0.4-1.1-0.9-0.5-0.6-0.6-1.3 0-0.7 0.5-1.5l4.9-8.5zm1.8 4.2l-0.7 1.2-6.4-3.6 0.7-1.2zm3.1-0.6q-0.5-0.2-0.7-0.7-0.1-0.4 0.1-0.9 0.3-0.5 0.7-0.6 0.4-0.2 0.9 0.1 0.5 0.2 0.7 0.7 0.2 0.4-0.1 0.9-0.2 0.4-0.7 0.6-0.4 0.1-0.9-0.1zm-0.1 2.1l-4.3 8.8-1.5-0.7 4.3-8.8zm6.1-2.4l-4.6 11q-0.3 0.7-0.1 1.1 0.1 0.3 0.7 0.6 0.4 0.1 0.7 0.2 0.2 0 0.7 0l-0.8 1.2q-0.3 0-0.7-0.1-0.4 0-0.8-0.2-1.1-0.5-1.4-1.3-0.3-0.8 0.2-2l4.6-11.1zm4.8 1.8l-3.7 11.2q-0.3 0.8-0.1 1.1 0.2 0.4 0.8 0.6 0.4 0.1 0.7 0.1 0.2 0 0.7 0l-0.7 1.3q-0.3 0-0.7-0.1-0.4 0-0.8-0.1-1.2-0.4-1.6-1.2-0.3-0.8 0.1-2.1l3.8-11.3zm4 16.1q-1.4-0.4-2.4-1.2-0.9-0.9-1.3-2.1-0.3-1.3 0-2.8 0.4-1.6 1.3-2.6 0.9-1 2.1-1.3 1.2-0.4 2.5 0 1.4 0.3 2.3 1.1 0.8 0.8 1.1 1.9 0.3 1.1 0 2.4-0.1 0.3-0.2 0.5-0.1 0.3-0.2 0.5l-7.9-1.9 0.3-1.3 7.3 1.7-0.9-0.1q0.4-1.3-0.3-2.3-0.5-0.9-1.8-1.2-1-0.2-1.8 0.1-0.8 0.2-1.4 0.9-0.5 0.8-0.8 1.9-0.3 1.1-0.1 2.1 0.2 0.9 0.8 1.5 0.7 0.6 1.7 0.8 1.1 0.3 1.8 0 0.8-0.2 1.4-0.8l1.1 1q-0.6 0.6-1.3 0.9-0.7 0.3-1.5 0.4-0.8 0.1-1.8-0.1zm15.8-9.6q-0.6 0-0.9-0.3-0.3-0.4-0.3-0.9 0.1-0.6 0.4-0.9 0.4-0.3 0.9-0.2 0.6 0 0.9 0.4 0.3 0.3 0.3 0.8-0.1 0.6-0.4 0.9-0.4 0.3-0.9 0.2zm0.6 2l-0.6 9.8-1.6-0.1 0.6-9.8zm6.8 10.1q-1.5 0-2.8-0.6-1.2-0.6-1.9-1.7l1.4-1q0.4 0.9 1.3 1.4 0.9 0.5 2.1 0.5 1.1 0 1.7-0.4 0.6-0.4 0.5-1 0-0.5-0.3-0.8-0.2-0.3-1-0.5l-2.4-0.5q-1.5-0.3-2.2-1-0.6-0.6-0.6-1.7 0-0.8 0.4-1.5 0.5-0.6 1.3-1 0.9-0.4 2.1-0.5 1.5 0 2.6 0.6 1 0.6 1.5 1.6l-1.3 0.9q-0.4-0.9-1.1-1.3-0.8-0.4-1.7-0.4-0.7 0-1.2 0.2-0.5 0.2-0.8 0.6-0.2 0.3-0.2 0.8 0 0.4 0.3 0.8 0.3 0.3 1.1 0.5l2.6 0.5q1.4 0.2 2 0.9 0.5 0.6 0.6 1.5 0 0.9-0.5 1.7-0.5 0.6-1.4 1-0.9 0.4-2.1 0.4zm13.8-1.2l-2.1-9.7 1.4-0.3 0.6 2.1-0.3-0.1q0.2-0.9 0.6-1.4 0.4-0.6 1.1-1 0.6-0.3 1.4-0.5 1.1-0.2 2 0.1 1 0.2 1.7 0.9 0.7 0.7 1 2l1.3 6.2-1.6 0.3-1.2-5.7q-0.4-1.6-1.2-2.1-0.8-0.5-1.9-0.3-0.7 0.2-1.3 0.6-0.7 0.5-1 1.3-0.3 0.9 0 2.1l1.1 5.1zm12.7-13.4q1.4-0.5 2.6-0.2 1.3 0.2 2.3 1.1 0.9 0.9 1.5 2.4 0.5 1.5 0.3 2.8-0.2 1.3-1 2.2-0.8 0.9-2.2 1.4-1.3 0.4-2.6 0.2-1.2-0.2-2.2-1.1-1-0.9-1.5-2.4-0.6-1.5-0.4-2.8 0.2-1.3 1-2.3 0.9-0.9 2.2-1.3zm0.5 1.3q-1 0.3-1.5 0.9-0.6 0.7-0.6 1.6-0.1 0.9 0.3 2.1 0.4 1.1 1 1.8 0.7 0.6 1.5 0.8 0.9 0.2 1.9-0.1 0.9-0.3 1.5-1 0.5-0.6 0.6-1.6 0.1-0.9-0.3-2-0.4-1.1-1.1-1.8-0.7-0.7-1.5-0.9-0.8-0.2-1.8 0.2zm6.8-6.9l4.4 9.1q0.3 0.6 0.8 0.8 0.6 0.1 1.2-0.1 0.5-0.3 0.8-0.6 0.3-0.4 0.5-0.8l1.1 0.9q-0.3 0.6-0.8 1.1-0.4 0.4-1.2 0.8-0.7 0.3-1.4 0.3-0.7 0.1-1.3-0.3-0.6-0.4-1.1-1.2l-4.3-8.9zm4.6 1l0.6 1.3-6.6 2.9-0.6-1.2zm14.8 7.8l-8.4-11.5 1.2-0.8 1.5 1.9-0.3-0.1q-0.2-0.7-0.1-1.4 0.1-0.7 0.5-1.4 0.5-0.6 1.2-1.1 1-0.7 2.2-0.8 1.2-0.1 2.4 0.5 1.2 0.6 2.2 1.9 0.9 1.4 1.1 2.7 0.2 1.3-0.3 2.4-0.5 1-1.6 1.7-1 0.7-2.1 0.8-1.1 0-2-0.5v-0.4l3.8 5.2zm0.7-7q1.2-0.8 1.3-2.1 0.1-1.4-0.9-2.8-1-1.4-2.3-1.7-1.3-0.4-2.5 0.4-0.8 0.5-1.1 1.3-0.3 0.8-0.2 1.7 0.2 0.9 0.9 1.9 0.7 0.9 1.5 1.4 0.8 0.5 1.7 0.5 0.8-0.1 1.6-0.6zm3.1-13.8q1-1 2.3-1.2 1.2-0.3 2.5 0.2 1.2 0.4 2.3 1.6 1.2 1.2 1.5 2.5 0.3 1.2-0.1 2.4-0.3 1.2-1.4 2.1-1 0.9-2.3 1.2-1.2 0.3-2.5-0.2-1.2-0.4-2.4-1.6-1.1-1.2-1.4-2.5-0.4-1.2 0-2.4 0.4-1.2 1.5-2.1zm0.9 1q-0.7 0.7-1 1.5-0.2 0.8 0.1 1.7 0.3 0.9 1.1 1.7 0.8 0.9 1.7 1.3 0.9 0.3 1.8 0.2 0.8-0.1 1.6-0.8 0.7-0.7 0.9-1.5 0.3-0.8 0-1.7-0.3-0.9-1.1-1.7-0.9-0.9-1.7-1.3-0.9-0.4-1.8-0.2-0.8 0.1-1.6 0.8zm14.3-1.4q-1 1.1-2.3 1.6-1.3 0.5-2.6 0.2l0.2-1.6q1 0.3 1.9 0 1-0.3 1.8-1.2 0.7-0.8 0.8-1.5 0-0.7-0.5-1.1-0.3-0.3-0.7-0.3-0.5-0.1-1.1 0.4l-2 1.4q-1.2 0.9-2.1 0.9-1 0-1.8-0.6-0.6-0.6-0.8-1.4-0.2-0.8 0-1.7 0.3-0.9 1.1-1.8 1-1.1 2.1-1.4 1.1-0.4 2.2-0.1l-0.2 1.6q-0.9-0.3-1.7 0-0.8 0.2-1.3 0.9-0.5 0.5-0.7 1-0.2 0.5-0.1 0.9 0.1 0.5 0.4 0.8 0.4 0.2 0.9 0.3 0.4 0 1.1-0.5l2-1.5q1.2-0.9 2-0.9 0.9 0 1.6 0.6 0.7 0.6 1 1.5 0.2 0.8-0.1 1.7-0.3 0.9-1.1 1.8zm6.5-8.2q-0.9 1.2-2.1 1.8-1.2 0.7-2.5 0.6l-0.1-1.7q1 0.2 1.9-0.2 1-0.4 1.6-1.4 0.6-0.9 0.7-1.6-0.1-0.7-0.6-1.1-0.4-0.2-0.8-0.2-0.5 0-1 0.6l-1.8 1.6q-1.1 1-2 1.2-1 0.1-1.8-0.5-0.7-0.5-1-1.2-0.3-0.8-0.2-1.7 0.2-1 0.8-1.9 0.9-1.2 1.9-1.7 1.1-0.5 2.3-0.3v1.5q-1-0.2-1.7 0.2-0.8 0.4-1.3 1.1-0.4 0.5-0.5 1.1-0.1 0.5 0 0.9 0.1 0.4 0.5 0.7 0.4 0.2 0.9 0.2 0.4 0 1-0.6l1.9-1.8q1-0.9 1.9-1 0.8-0.1 1.6 0.4 0.8 0.5 1.1 1.3 0.3 0.8 0.1 1.8-0.2 0.9-0.8 1.9zm-6.5-12.4q-0.3 0.4-0.7 0.6-0.5 0.1-1-0.2-0.4-0.3-0.6-0.7-0.1-0.5 0.2-0.9 0.2-0.5 0.7-0.6 0.4-0.1 0.9 0.2 0.5 0.2 0.6 0.7 0.2 0.4-0.1 0.9zm2.1 0.2l8.8 5-0.8 1.4-8.8-5zm12.7-2.6q-0.3 0.8-0.9 1.3-0.6 0.5-1.3 0.7-0.7 0.3-1.5 0.2l-0.1-0.3 2.2 1.2-0.6 1.2-13.5-6 0.7-1.5 6.3 2.9h-0.4q-0.7-0.7-0.8-1.8-0.2-1.1 0.3-2.2 0.5-1.1 1.5-1.8 1-0.7 2.4-0.8 1.3 0 2.8 0.7 1.5 0.6 2.3 1.7 0.8 1 1 2.2 0.1 1.2-0.4 2.3zm-1.4-0.4q0.7-1.4 0-2.5-0.6-1.2-2.2-1.9-1.6-0.7-2.9-0.4-1.3 0.3-1.9 1.6-0.4 0.8-0.2 1.7 0.1 0.8 0.8 1.5 0.6 0.7 1.7 1.2 1 0.5 2 0.5 0.9 0 1.6-0.4 0.8-0.5 1.1-1.3zm-9.3-12.7l11.6 3.9q0.7 0.2 1.1 0.1 0.3-0.2 0.5-0.8 0.1-0.4 0.2-0.6 0-0.3 0-0.7l1.2 0.7q0.1 0.3 0 0.7 0 0.4-0.2 0.7-0.3 1.2-1.2 1.5-0.8 0.3-2.1-0.1l-11.6-3.9zm16.5-3.6q-0.4 1.4-1.2 2.3-0.9 0.9-2.2 1.2-1.3 0.3-2.9-0.1-1.6-0.3-2.6-1.2-1-0.9-1.4-2.1-0.3-1.2 0-2.5 0.3-1.3 1.1-2.1 0.9-0.8 2-1.1 1.1-0.2 2.4 0.1 0.3 0.1 0.6 0.1 0.3 0.1 0.5 0.2l-1.9 7.8-1.4-0.4 1.7-7v0.8q-1.4-0.4-2.4 0.2-0.9 0.6-1.2 1.8-0.3 0.9 0 1.7 0.3 0.8 1 1.4 0.8 0.6 2 0.9 1.1 0.2 2.1 0.1 0.9-0.2 1.5-0.8 0.6-0.6 0.9-1.6 0.2-1 0-1.8-0.3-0.8-0.9-1.3l1-1.1q0.6 0.6 1 1.3 0.3 0.6 0.4 1.5 0.1 0.8-0.1 1.7z"/>
</svg>