<svg width="30" height="30" viewBox="0 0 30 30" fill="none" xmlns="http://www.w3.org/2000/svg">
<path d="M22.3066 12.8145C22.3066 8.7832 19.0254 5.50781 15 5.50781C10.9746 5.50781 7.69336 8.7832 7.69336 12.8145C7.69336 16.8398 10.9687 20.1211 15 20.1211C19.0312 20.1211 22.3066 16.8398 22.3066 12.8145ZM15 19.1777C11.4902 19.1777 8.63086 16.3242 8.63086 12.8086C8.63086 9.29297 11.4902 6.44531 15 6.44531C18.5098 6.44531 21.3691 9.29883 21.3691 12.8145C21.3691 16.3301 18.5098 19.1777 15 19.1777Z" fill="#004020"/>
<path d="M23.9531 20.3731C24.2168 20.2384 24.4512 20.0626 24.6328 19.8165C25.1074 19.1661 24.9961 18.3165 24.8906 17.4903C24.8203 16.9571 24.75 16.4005 24.873 16.0255C24.9844 15.6739 25.3594 15.2813 25.7168 14.9063C26.2734 14.3204 26.9004 13.6583 26.9004 12.8204C26.9004 11.9825 26.2793 11.3087 25.7227 10.7227C25.3652 10.3419 24.9902 9.95517 24.8789 9.60361C24.7559 9.2286 24.8262 8.67196 24.8965 8.13876C25.002 7.31259 25.1074 6.46298 24.6387 5.81259C24.1641 5.15634 23.3145 4.99814 22.4941 4.83993C21.9668 4.74032 21.4219 4.64072 21.1113 4.4122C20.8008 4.18954 20.543 3.70907 20.291 3.24032C19.9102 2.5372 19.4707 1.74032 18.6914 1.48251C17.9414 1.23642 17.1738 1.5997 16.4297 1.95126C15.9316 2.18564 15.4219 2.42587 15.0117 2.42587C14.6016 2.42587 14.0918 2.18564 13.5938 1.95126C12.8496 1.5997 12.082 1.23642 11.332 1.48251C10.5469 1.73447 10.1367 2.50204 9.73242 3.24032C9.48047 3.70322 9.2168 4.18954 8.91211 4.4122C8.5957 4.64072 8.05664 4.74618 7.5293 4.83993C6.70898 4.99228 5.85938 5.15634 5.38477 5.81259C4.91016 6.46298 5.02148 7.31259 5.12695 8.13876C5.19727 8.67196 5.26758 9.2286 5.14453 9.60361C5.0332 9.95517 4.6582 10.3477 4.30078 10.7227C3.74414 11.3087 3.11719 11.9708 3.11719 12.8087C3.11719 13.6466 3.75 14.3087 4.30078 14.8946C4.6582 15.2755 5.0332 15.6622 5.14453 16.0138C5.26758 16.3888 5.19727 16.9454 5.12695 17.4786C5.02148 18.3048 4.91602 19.1544 5.38477 19.8048C5.56641 20.0509 5.80078 20.2325 6.06445 20.3614L3.50977 24.7852C3.41602 24.9493 3.42773 25.1544 3.54492 25.3067C3.66211 25.4591 3.85547 25.5235 4.03711 25.4767L7.81055 24.463L8.82422 28.2364C8.87109 28.4181 9.0293 28.5528 9.2168 28.5821C9.24023 28.5821 9.25781 28.588 9.27539 28.588C9.43945 28.588 9.59766 28.5001 9.67969 28.3536L12.0762 24.1993C12.5859 24.1407 13.1016 23.9005 13.5996 23.6661C14.0977 23.4317 14.6074 23.1915 15.0176 23.1915C15.4277 23.1915 15.9375 23.4317 16.4355 23.6661C16.9336 23.9005 17.4492 24.1466 17.959 24.1993L20.3555 28.3536C20.4375 28.5001 20.5957 28.588 20.7598 28.588C20.7773 28.588 20.8008 28.588 20.8184 28.5821C21.0059 28.5587 21.1582 28.4239 21.2109 28.2364L22.2246 24.463L25.998 25.4767C26.1797 25.5235 26.373 25.4591 26.4902 25.3067C26.6074 25.1544 26.6191 24.9493 26.5254 24.7852L23.9531 20.3731ZM9.41602 26.9122L8.57812 23.7774C8.51367 23.5255 8.25586 23.379 8.00391 23.4434L4.86914 24.2813L6.95508 20.6661C7.13672 20.7071 7.32422 20.7423 7.51172 20.7774C8.03906 20.877 8.58398 20.9767 8.89453 21.2052C9.20508 21.4278 9.46289 21.9083 9.71484 22.377C10.0547 23.004 10.4355 23.7013 11.0684 24.0294L9.41602 26.9122ZM15 22.2599C14.3789 22.2599 13.7695 22.547 13.1836 22.8224C12.6035 23.0977 12.0059 23.379 11.6133 23.2501C11.1855 23.1095 10.8633 22.5118 10.5469 21.9376C10.2422 21.3809 9.93164 20.8067 9.45117 20.4552C8.96484 20.1036 8.31445 19.9806 7.6875 19.8634C7.04883 19.7403 6.38672 19.6173 6.12305 19.2657C5.87109 18.92 5.95312 18.252 6.03516 17.6134C6.11719 16.9747 6.19922 16.3184 6.01172 15.7384C5.83008 15.1876 5.38477 14.713 4.95703 14.2618C4.5 13.7813 4.02539 13.2833 4.02539 12.8204C4.02539 12.3575 4.5 11.8595 4.95703 11.379C5.39062 10.922 5.83594 10.4532 6.01172 9.90243C6.19922 9.32236 6.11719 8.66611 6.03516 8.02743C5.95312 7.3829 5.87109 6.72079 6.12305 6.37509C6.38086 6.01767 7.04297 5.89462 7.6875 5.77743C8.31445 5.66025 8.96484 5.5372 9.45117 5.18564C9.93164 4.83993 10.2422 4.25986 10.5469 3.70322C10.8633 3.12314 11.1855 2.53134 11.6133 2.39072C12.0117 2.26181 12.6094 2.54306 13.1836 2.81845C13.7695 3.09384 14.3789 3.38095 15 3.38095C15.6211 3.38095 16.2305 3.09384 16.8164 2.81845C17.3965 2.54306 17.9941 2.26181 18.3867 2.39072C18.8145 2.53134 19.1367 3.129 19.4531 3.70322C19.7578 4.25986 20.0684 4.83407 20.5488 5.18564C21.0352 5.5372 21.6855 5.66025 22.3125 5.77743C22.9512 5.90048 23.6133 6.02353 23.877 6.37509C24.1289 6.72079 24.0469 7.38876 23.9648 8.02743C23.8828 8.66611 23.8008 9.32236 23.9883 9.90243C24.1699 10.4532 24.6152 10.9278 25.043 11.379C25.5 11.8595 25.9746 12.3575 25.9746 12.8204C25.9746 13.2833 25.5 13.7813 25.043 14.2618C24.6094 14.7188 24.1641 15.1876 23.9883 15.7384C23.8008 16.3184 23.8828 16.9747 23.9648 17.6134C24.0469 18.2579 24.1289 18.92 23.877 19.2657C23.6191 19.6231 22.957 19.7462 22.3125 19.8634C21.6855 19.9806 21.0352 20.1036 20.5488 20.4552C20.0684 20.8009 19.7578 21.3809 19.4531 21.9376C19.1367 22.5177 18.8145 23.1095 18.3867 23.2501C17.9883 23.379 17.3906 23.0977 16.8164 22.8224C16.2305 22.547 15.6211 22.2599 15 22.2599ZM21.9961 23.4434C21.7441 23.379 21.4863 23.5255 21.4219 23.7774L20.584 26.9122L18.9258 24.0411C19.5527 23.7188 19.9219 23.045 20.2793 22.3888C20.5312 21.9259 20.7949 21.4395 21.0996 21.2169C21.416 20.9884 21.9551 20.8829 22.4824 20.7892C22.6699 20.754 22.8574 20.7188 23.0391 20.6778L25.125 24.2931L21.9961 23.4434Z" fill="#004020"/>
<path d="M19.3945 9.94336C19.2129 9.76172 18.9141 9.76172 18.7324 9.94336L13.9863 14.6895L11.2734 11.9766C11.0918 11.7949 10.793 11.7949 10.6113 11.9766C10.4297 12.1582 10.4297 12.457 10.6113 12.6387L13.6582 15.6855C13.7461 15.7734 13.8633 15.8203 13.9922 15.8203C14.1211 15.8203 14.2383 15.7734 14.3262 15.6855L19.3945 10.6055C19.5762 10.4238 19.5762 10.125 19.3945 9.94336Z" fill="#004020"/>
</svg>
