<svg width="27" height="27" viewBox="0 0 27 27" fill="none" xmlns="http://www.w3.org/2000/svg">
<path d="M1.93604 7.99865V20.5882C1.93604 21.9424 3.03749 23.0439 4.39117 23.0439H9.74144L8.82502 24.8348H8.15645C7.94552 24.8348 7.77438 25.006 7.77438 25.2169C7.77438 25.4279 7.94552 25.599 8.15645 25.599H9.05866H17.9414H18.8436C19.0546 25.599 19.2257 25.4279 19.2257 25.2169C19.2257 25.006 19.0546 24.8348 18.8436 24.8348H18.1751L17.2586 23.0439H22.6089C23.9626 23.0439 25.064 21.9424 25.064 20.5882V7.99865C25.064 6.64496 23.9626 5.54351 22.6089 5.54351H20.1369V2.9844C20.1369 2.1113 19.4264 1.40088 18.5531 1.40088H6.82267C6.1324 1.40088 5.57098 1.96205 5.57098 2.65208V3.93959C5.57098 4.15053 5.74211 4.32167 5.95305 4.32167H7.30997V5.54351H4.39117C3.03749 5.54351 1.93604 6.64496 1.93604 7.99865ZM17.3168 24.8348H9.68326L10.5996 23.0439H16.4004L17.3168 24.8348ZM7.30997 15.8655C7.30997 16.6421 7.94178 17.2739 8.71837 17.2739H20.0207C20.7973 17.2739 21.4291 16.6421 21.4291 15.8655V14.8516C21.4291 14.6407 21.258 14.4696 21.047 14.4696H20.1369V8.25237H22.1955V19.2763H4.80459V8.25237H7.30997V15.8655ZM20.6649 15.2337V15.8655C20.6649 16.2207 20.3759 16.5098 20.0207 16.5098H9.97056C10.0703 16.3167 10.1268 16.0974 10.1268 15.8655V15.2337H20.6649ZM19.3727 2.9844V14.4696H9.7447C9.53377 14.4696 9.36263 14.6407 9.36263 14.8516V15.8655C9.36263 16.2207 9.07358 16.5098 8.71837 16.5098C8.36316 16.5098 8.07412 16.2207 8.07412 15.8655V2.65208C8.07412 2.47938 8.03892 2.31481 7.97537 2.16503H18.5531C19.0051 2.16503 19.3727 2.53268 19.3727 2.9844ZM6.33513 3.55752V2.65208C6.33513 2.38343 6.55378 2.16503 6.82267 2.16503C7.09132 2.16503 7.30997 2.38343 7.30997 2.65208V3.55752H6.33513ZM7.30997 7.48822H4.54887C4.26854 7.48822 4.04044 7.71607 4.04044 7.99616V19.5321C4.04044 19.8126 4.26854 20.0405 4.54887 20.0405H22.4512C22.7315 20.0405 22.9596 19.8126 22.9596 19.5321V7.99616C22.9596 7.71607 22.7315 7.48822 22.4512 7.48822H20.1369V6.30766H22.6089C23.5412 6.30766 24.2999 7.06634 24.2999 7.99865V20.5882C24.2999 21.521 23.5412 22.2797 22.6089 22.2797H16.634H10.3661H4.39117C3.45886 22.2797 2.70019 21.521 2.70019 20.5882V7.99865C2.70019 7.06634 3.45886 6.30766 4.39117 6.30766H7.30997V7.48822Z" fill="#004020"/>
<path d="M13.5001 21.3283C13.7125 21.3283 13.8847 21.1561 13.8847 20.9437C13.8847 20.7313 13.7125 20.5591 13.5001 20.5591C13.2877 20.5591 13.1155 20.7313 13.1155 20.9437C13.1155 21.1561 13.2877 21.3283 13.5001 21.3283Z" fill="#004020"/>
<path d="M10.115 10.1001H17.3319C17.5428 10.1001 17.714 9.92895 17.714 9.71801C17.714 9.50708 17.5428 9.33594 17.3319 9.33594H10.115C9.90405 9.33594 9.73291 9.50708 9.73291 9.71801C9.73291 9.92895 9.90405 10.1001 10.115 10.1001Z" fill="#004020"/>
<path d="M10.115 12.7388H17.3319C17.5428 12.7388 17.714 12.5676 17.714 12.3567C17.714 12.1457 17.5428 11.9746 17.3319 11.9746H10.115C9.90405 11.9746 9.73291 12.1457 9.73291 12.3567C9.73291 12.5676 9.90405 12.7388 10.115 12.7388Z" fill="#004020"/>
<path d="M10.115 7.46142H17.3319C17.5428 7.46142 17.714 7.29028 17.714 7.07934C17.714 6.8684 17.5428 6.69727 17.3319 6.69727H10.115C9.90405 6.69727 9.73291 6.8684 9.73291 7.07934C9.73291 7.29028 9.90405 7.46142 10.115 7.46142Z" fill="#004020"/>
<path d="M10.115 4.82323H17.3319C17.5428 4.82323 17.714 4.65209 17.714 4.44116C17.714 4.23022 17.5428 4.05908 17.3319 4.05908H10.115C9.90405 4.05908 9.73291 4.23022 9.73291 4.44116C9.73291 4.65209 9.90405 4.82323 10.115 4.82323Z" fill="#004020"/>
</svg>
