<svg width="28" height="28" viewBox="0 0 28 28" fill="none" xmlns="http://www.w3.org/2000/svg">
<path d="M18.2131 8.73682H9.78687C9.54624 8.73682 9.34937 8.93369 9.34937 9.17432C9.34937 9.41494 9.54624 9.61182 9.78687 9.61182H18.2087C18.4494 9.61182 18.6462 9.41494 18.6462 9.17432C18.6462 8.93369 18.4494 8.73682 18.2087 8.73682H18.2131Z" fill="#004020"/>
<path d="M18.2131 5.08813H9.78687C9.54624 5.08813 9.34937 5.28501 9.34937 5.52563C9.34937 5.76626 9.54624 5.96313 9.78687 5.96313H18.2087C18.4494 5.96313 18.6462 5.76626 18.6462 5.52563C18.6462 5.28501 18.4494 5.08813 18.2087 5.08813H18.2131Z" fill="#004020"/>
<path d="M24.2375 18.5894C23.9968 18.5894 23.8 18.7863 23.8 19.0269V24.8106C23.8 25.2919 23.415 25.6856 22.9381 25.6856H14.4375V18.1038C14.4375 17.8631 14.2406 17.6663 14 17.6663C13.7593 17.6663 13.5625 17.8631 13.5625 18.1038V25.6856H5.06183C4.58495 25.6856 4.19995 25.2919 4.19995 24.8106V19.0269C4.19995 18.7863 4.00308 18.5894 3.76245 18.5894C3.52183 18.5894 3.32495 18.7863 3.32495 19.0269V24.8106C3.32495 25.7731 4.1037 26.5606 5.06183 26.5606H22.9381C23.8962 26.5606 24.675 25.7775 24.675 24.8106V19.0269C24.675 18.7863 24.4781 18.5894 24.2375 18.5894Z" fill="#004020"/>
<path d="M27.0418 16.5857L24.1324 12.5651C24.0493 12.4513 23.918 12.3857 23.778 12.3857H22.8374V1.88135C22.8374 1.64072 22.6405 1.44385 22.3999 1.44385H5.60427C5.36364 1.44385 5.16677 1.64072 5.16677 1.88135V12.3857H4.22614C4.08614 12.3857 3.95489 12.4513 3.87177 12.5651L0.962394 16.5857C0.866144 16.717 0.853019 16.8963 0.927394 17.0407C1.00177 17.1851 1.15489 17.277 1.31677 17.277H11.0905C11.2305 17.277 11.3618 17.2113 11.4449 17.0976L13.9999 13.567L16.5549 17.0976C16.638 17.2113 16.7693 17.277 16.9093 17.277H26.6874C26.8536 17.277 27.0024 17.1851 27.0768 17.0407C27.1511 16.8963 27.138 16.717 27.0418 16.5857ZM10.8674 16.4063H2.16989L4.44489 13.2607H13.1424L10.8674 16.4063ZM6.04177 12.3857V2.31885H21.958V12.3857H6.04177ZM17.1368 16.4063L14.8618 13.2607H23.5593L25.8343 16.4063H17.1368Z" fill="#004020"/>
</svg>
