<svg width="66" height="69" viewBox="0 0 66 69" fill="none" xmlns="http://www.w3.org/2000/svg">
<path d="M17.9443 39.4971C17.3965 39.4971 16.9482 39.0488 16.9482 38.501C16.9482 37.9531 17.3965 37.5049 17.9443 37.5049H33.8154C34.3633 37.5049 34.8115 37.9531 34.8115 38.501C34.8115 39.0488 34.3633 39.4971 33.8154 39.4971H17.9443ZM17.9443 33.4043C17.3965 33.4043 16.9482 32.9561 16.9482 32.4082C16.9482 31.8604 17.3965 31.4121 17.9443 31.4121H37.6006C38.1484 31.4121 38.5967 31.8604 38.5967 32.4082C38.5967 32.9561 38.1484 33.4043 37.6006 33.4043H17.9443ZM17.9443 27.3115C17.3965 27.3115 16.9482 26.8633 16.9482 26.3154C16.9482 25.7676 17.3965 25.3193 17.9443 25.3193H38.7295C39.2773 25.3193 39.7256 25.7676 39.7256 26.3154C39.7256 26.8633 39.2773 27.3115 38.7295 27.3115H17.9443ZM40.4561 49.9395C40.9375 47.5488 41.668 44.8262 42.4482 42.1201C43.4775 38.6504 44.6064 35.2139 45.5195 32.6406C45.6689 27.793 46.3994 23.5762 47.6777 19.8574H11.9014V49.5078C11.9014 50.0557 11.4531 50.5039 10.9053 50.5039H6.35645C4.39746 50.5039 2.78711 52.0977 2.78711 54.0732C2.78711 56.0156 4.38086 57.626 6.35645 57.626H15.6533V56.165C15.6533 54.2891 16.9316 52.6953 18.708 52.2471V48.8604C18.708 48.3125 19.1562 47.8643 19.7041 47.8643H35.7744C36.3223 47.8643 36.7705 48.3125 36.7705 48.8604V52.2471C38.5469 52.6953 39.8252 54.3057 39.8252 56.165V57.626H59.7471C61.0918 57.626 62.3369 58.1074 63.3164 58.9209V23.4102C63.3164 21.4678 61.7227 19.8574 59.7471 19.8574H57.7549C56.5264 23.8418 55.0322 27.627 50.832 32.9893L46.6152 45.042C46.582 45.1582 46.5156 45.2412 46.4492 45.3408L42.2158 50.8027C41.5518 51.6494 40.207 50.9522 40.4561 49.9395ZM48.458 17.8486C51.4961 10.5107 56.7754 5.18165 63.7979 0.483404C64.6777 -0.0976506 65.7402 0.915045 65.209 1.81153C60.959 8.98341 59.5811 13.6816 58.3359 17.8486L60.0791 17.8652C62.9844 18.0479 65.292 20.4883 65.292 23.4102V63.1543C65.292 66.209 62.7852 68.6992 59.7471 68.6992H55.1318C54.584 68.6992 54.1357 68.251 54.1357 67.7031V59.585H39.8086V64.6484C39.8086 66.8731 37.9824 68.6992 35.7578 68.6992H19.6875C17.4629 68.6992 15.6367 66.8731 15.6367 64.6484V59.585H6.33984C3.28516 59.585 0.794922 57.0781 0.794922 54.0401L0.811523 14.5781C0.745117 12.918 1.32617 11.4736 2.43848 10.3779C3.45117 9.36524 4.8291 8.75098 6.35645 8.75098H10.9053C11.4531 8.75098 11.9014 9.19923 11.9014 9.74708V17.8652H48.458V17.8486ZM44.374 42.6846C44.0586 43.7803 43.7432 44.876 43.4609 45.9385L44.7891 44.2285L48.9893 32.2256C49.0225 32.1094 49.0889 31.9932 49.1553 31.877C53.7705 26 54.9658 22.2315 56.4434 17.251C57.4727 13.7813 58.6016 9.9629 61.3076 4.7168C57.5889 7.62208 54.5674 10.8096 52.3262 14.5615C51.4629 15.9893 50.7158 17.5166 50.085 19.1436C50.0684 19.1934 50.0518 19.2266 50.0352 19.2764C48.541 23.1279 47.6943 27.5772 47.5283 32.79C47.5283 32.9063 47.5117 33.0391 47.4785 33.1553C46.5488 35.7451 45.4033 39.1982 44.374 42.6846ZM19.7041 66.7236H35.7744C36.9033 66.7236 37.833 65.794 37.833 64.6651V56.1484C37.833 55.0195 36.9033 54.0899 35.7744 54.0899H19.7041C18.5752 54.0899 17.6455 55.0195 17.6455 56.1484V64.6651C17.6455 65.794 18.5752 66.7236 19.7041 66.7236ZM34.7617 49.8399H20.6836V52.0977H34.7617V49.8399ZM2.78711 14.2959L2.80371 14.5781V49.7901C3.7666 48.9766 5.01172 48.4951 6.35645 48.4951H9.89258V10.7432H6.35645C4.39746 10.7432 2.78711 12.3369 2.78711 14.2959ZM63.2998 63.1543C63.2998 61.1953 61.6895 59.585 59.7305 59.585H56.0947V66.707H59.7305C61.6895 66.7236 63.2998 65.1133 63.2998 63.1543Z" fill="#004020"/>
</svg>
