<svg width="66" height="60" viewBox="0 0 66 60" fill="none" xmlns="http://www.w3.org/2000/svg">
<path d="M7.84375 46.5C7.24 46.5 6.75 46.01 6.75 45.4062V13.6875C6.75 13.0838 7.24 12.5938 7.84375 12.5938C8.4475 12.5938 8.9375 13.0838 8.9375 13.6875V45.4062C8.9375 46.01 8.4475 46.5 7.84375 46.5Z" fill="#004020"/>
<path d="M36.2812 50.875H4.5625C3.95875 50.875 3.46875 50.385 3.46875 49.7812C3.46875 49.1775 3.95875 48.6875 4.5625 48.6875H36.2812C36.885 48.6875 37.375 49.1775 37.375 49.7812C37.375 50.385 36.885 50.875 36.2812 50.875Z" fill="#004020"/>
<path d="M62.5312 33.375C61.9275 33.375 61.4375 32.885 61.4375 32.2812V8.21875C61.4375 7.615 61.9275 7.125 62.5312 7.125C63.135 7.125 63.625 7.615 63.625 8.21875V32.2812C63.625 32.885 63.135 33.375 62.5312 33.375Z" fill="#004020"/>
<path d="M7.84378 46.5C7.51347 46.5 7.18315 46.3491 6.96878 46.0625C6.60784 45.5791 6.70628 44.8944 7.18972 44.5313L24.6897 31.4063C25.171 31.0453 25.8557 31.1438 26.221 31.6272C26.5819 32.1107 26.4835 32.7953 26 33.1585L8.50003 46.2835C8.30315 46.43 8.07128 46.5 7.84378 46.5Z" fill="#004020"/>
<path d="M35.1875 35.0747C33.8553 35.0747 32.5209 34.5956 31.4841 33.6419L7.10219 11.2113C6.65812 10.8022 6.62969 10.1087 7.03875 9.66469C7.45 9.22281 8.13906 9.19656 8.58531 9.60125L32.9672 32.0319C34.2097 33.1803 36.1675 33.1803 37.41 32.0319L61.4375 9.925V7.125H4.5625C3.95875 7.125 3.46875 6.635 3.46875 6.03125C3.46875 5.4275 3.95875 4.9375 4.5625 4.9375H62.5312C63.135 4.9375 63.625 5.4275 63.625 6.03125V10.4062C63.625 10.7125 63.4959 11.0034 63.2728 11.2113L38.8909 33.6419C37.8541 34.5978 36.5197 35.0747 35.1875 35.0747Z" fill="#004020"/>
<path d="M7.84375 15.875C7.24 15.875 6.75 15.385 6.75 14.7812V10.4062C6.75 9.8025 7.24 9.3125 7.84375 9.3125C8.4475 9.3125 8.9375 9.8025 8.9375 10.4062V14.7812C8.9375 15.385 8.4475 15.875 7.84375 15.875Z" fill="#004020"/>
<path d="M20.9688 2.75H1.28125C0.6775 2.75 0.1875 2.26 0.1875 1.65625C0.1875 1.0525 0.6775 0.5625 1.28125 0.5625H20.9688C21.5725 0.5625 22.0625 1.0525 22.0625 1.65625C22.0625 2.26 21.5725 2.75 20.9688 2.75Z" fill="#004020"/>
<path d="M20.9688 55.25H1.28125C0.6775 55.25 0.1875 54.76 0.1875 54.1562C0.1875 53.5525 0.6775 53.0625 1.28125 53.0625H20.9688C21.5725 53.0625 22.0625 53.5525 22.0625 54.1562C22.0625 54.76 21.5725 55.25 20.9688 55.25Z" fill="#004020"/>
<path d="M52.6875 50.875C52.6787 50.875 52.6722 50.875 52.6634 50.875C52.344 50.8662 52.0465 50.724 51.8453 50.4812L46.3765 43.9187C45.9937 43.4528 46.0528 42.7637 46.5187 42.3765C46.9847 41.9915 47.6693 42.055 48.0609 42.5165L52.7268 48.1187L63.9115 35.9168C64.3228 35.4706 65.014 35.4443 65.4559 35.849C65.9 36.2581 65.9328 36.9493 65.5215 37.3956L53.4925 50.5206C53.2847 50.7459 52.9959 50.875 52.6875 50.875Z" fill="#004020"/>
<path d="M52.6241 59.625C45.3856 59.625 39.5625 53.7384 39.5625 46.5C39.5625 39.2616 45.3856 33.375 52.6241 33.375C54.9538 33.375 57.2397 33.9919 59.2369 35.16C59.7575 35.4641 59.9347 36.1334 59.6306 36.6562C59.3222 37.1791 58.6484 37.3497 58.1344 37.05C56.4675 36.0766 54.5622 35.5625 52.6219 35.5625C46.5909 35.5625 41.75 40.4691 41.75 46.5C41.75 52.5309 46.5909 57.4375 52.6241 57.4375C58.655 57.4375 63.5616 52.5309 63.5616 46.5C63.5616 45.7103 63.4763 44.9184 63.3122 44.155C63.1766 43.5622 63.5528 42.9803 64.1434 42.8513C64.745 42.7244 65.3181 43.0962 65.4472 43.6847C65.6484 44.6078 65.7513 45.5528 65.7513 46.5C65.7491 53.7384 59.8603 59.625 52.6241 59.625Z" fill="#004020"/>
</svg>
