<svg width="88" height="72" viewBox="0 0 88 72" fill="none" xmlns="http://www.w3.org/2000/svg">
<path d="M86.1259 24.0004H76.2916C76.0472 23.5961 75.7902 23.1954 75.5225 22.8073C74.996 19.9035 73.9251 17.1597 72.3384 14.6441C68.9082 9.20674 63.3307 5.43869 57.0075 4.27971C54.5817 2.59963 51.8846 1.41549 48.9844 0.757835C42.7151 -0.661696 36.108 0.61768 30.818 4.26893C27.9143 4.79541 25.1687 5.86635 22.6512 7.45299C17.2139 10.8832 13.4459 16.4607 12.2869 22.7821C12.0119 23.1792 11.7496 23.5871 11.4998 24.0022H1.67273C1.07796 24.0022 0.594604 24.4856 0.594604 25.0803V46.7057C0.594604 47.3005 1.07796 47.7839 1.67273 47.7839H11.507C11.7514 48.1899 12.0084 48.5889 12.2761 48.977C12.8026 51.8789 13.8735 54.6246 15.4602 57.1402C18.8904 62.5775 24.4679 66.3456 30.7911 67.5046C33.2169 69.1846 35.914 70.3688 38.8141 71.0246C40.4906 71.4038 42.1905 71.5907 43.8831 71.5907C48.5227 71.5907 53.1065 70.1891 56.9841 67.5135C59.8861 66.9871 62.6317 65.9161 65.1473 64.3295C70.5847 60.8992 74.3527 55.3217 75.5117 48.9985C75.7866 48.6014 76.049 48.1953 76.2987 47.7803H86.1259C86.7206 47.7803 87.204 47.2969 87.204 46.7021V25.0785C87.204 24.4838 86.7206 24.0004 86.1259 24.0004ZM14.1862 23.8279C14.2796 23.6967 14.3425 23.5458 14.3694 23.3877C15.3739 17.5676 18.8113 12.4231 23.803 9.27502C26.1462 7.79619 28.7103 6.8133 31.4218 6.34971C31.5799 6.32276 31.7309 6.25987 31.862 6.16823C36.6866 2.76135 42.7547 1.55744 48.5083 2.85838C51.2108 3.46932 53.7174 4.58698 55.9617 6.17541C56.0929 6.26885 56.2438 6.33174 56.4019 6.3587C62.2238 7.36135 67.3665 10.8006 70.5164 15.7923C71.9934 18.1354 72.9781 20.6978 73.4399 23.4074C73.4669 23.5656 73.5298 23.7165 73.6214 23.8477C73.6573 23.898 73.6897 23.9483 73.7256 23.9986H68.3961C63.8554 14.6603 54.3194 8.66229 43.9011 8.66229C33.4828 8.66229 23.9468 14.6603 19.4061 23.9986H14.0694C14.1071 23.9429 14.1466 23.8854 14.1862 23.8279ZM65.9739 24.0004H21.8247C26.1749 15.9414 34.6616 10.8203 43.8993 10.8203C53.137 10.8203 61.6237 15.9414 65.9739 24.0004ZM73.6124 47.9528C73.519 48.0839 73.4561 48.2349 73.4291 48.393C72.4247 54.2149 68.9873 59.3575 63.9955 62.5074C61.6524 63.9863 59.0901 64.9692 56.3804 65.431C56.2223 65.4579 56.0713 65.5208 55.9401 65.6124C51.1137 69.0193 45.0457 70.225 39.2903 68.9223C36.5878 68.3096 34.0812 67.1937 31.8369 65.6053C31.7057 65.5118 31.5548 65.4489 31.3966 65.422C25.5748 64.4175 20.4321 60.9801 17.2822 55.9884C15.8034 53.6453 14.8205 51.0829 14.3587 48.3732C14.3317 48.2151 14.2688 48.0642 14.1772 47.933C14.143 47.8827 14.1089 47.8324 14.073 47.7821H19.4025C23.9432 57.1204 33.4792 63.1184 43.8975 63.1184C54.3158 63.1184 63.8518 57.1204 68.3925 47.7821H73.7292C73.6915 47.8396 73.6537 47.8971 73.6124 47.9528ZM21.8247 47.7821H65.9739C61.6237 55.841 53.137 60.9621 43.8993 60.9621C34.6616 60.9621 26.1749 55.841 21.8247 47.7821ZM85.0477 45.6258H2.75085V26.1567H85.0477V45.6258ZM43.8993 59.2228C49.3546 59.2228 54.3409 56.0117 56.5996 51.0452C56.7505 50.711 56.7236 50.3228 56.5241 50.0156C56.3265 49.7083 55.9851 49.5214 55.6185 49.5214H32.1801C31.8135 49.5214 31.4721 49.7083 31.2744 50.0156C31.0768 50.3246 31.048 50.7128 31.199 51.0452C33.4577 56.0135 38.444 59.2228 43.8993 59.2228ZM53.8019 51.6777C51.651 54.9983 47.9261 57.0683 43.8993 57.0683C39.8725 57.0683 36.1476 54.9983 33.9967 51.6777H53.8019ZM43.8993 12.5597C38.444 12.5597 33.4577 15.7707 31.199 20.7373C31.048 21.0715 31.075 21.4596 31.2744 21.7669C31.4721 22.0742 31.8135 22.261 32.1801 22.261H55.6185C55.9851 22.261 56.3265 22.0742 56.5241 21.7669C56.7218 21.4578 56.7505 21.0697 56.5996 20.7373C54.3409 15.7689 49.3546 12.5597 43.8993 12.5597ZM33.9967 20.1048C36.1476 16.7842 39.8725 14.7142 43.8993 14.7142C47.9261 14.7142 51.651 16.7842 53.8019 20.1048H33.9967ZM43.0853 30.9507C43.0853 30.356 43.5687 29.8726 44.1634 29.8726H50.298C50.8927 29.8726 51.3761 30.356 51.3761 30.9507C51.3761 31.5455 50.8927 32.0288 50.298 32.0288H48.3088V40.7024C48.3088 41.2971 47.8255 41.7805 47.2307 41.7805C46.6359 41.7805 46.1526 41.2971 46.1526 40.7024V32.0288H44.1634C43.5687 32.0288 43.0853 31.5455 43.0853 30.9507ZM18.4843 41.9099C19.0791 41.9099 19.5624 41.4265 19.5624 40.8317V37.0349H20.7933C22.7429 37.0349 24.2684 35.4735 24.2684 33.4789C24.2684 31.5617 22.7087 30.0038 20.7933 30.0038H18.4843C17.8895 30.0038 17.4062 30.4871 17.4062 31.0819V40.8335C17.4062 41.4265 17.8895 41.9099 18.4843 41.9099ZM19.5624 32.1582H20.7933C21.521 32.1582 22.1122 32.7494 22.1122 33.4771C22.1122 34.2875 21.5569 34.8769 20.7933 34.8769H19.5624V32.1582ZM6.77945 41.6996C7.32929 41.926 7.96 41.6637 8.1864 41.1138L9.42804 38.0969H12.9805L14.2221 41.1138C14.3928 41.5307 14.7953 41.7823 15.2194 41.7823C15.3559 41.7823 15.4943 41.7553 15.6291 41.7014C16.1789 41.475 16.4412 40.8443 16.2148 40.2945L14.6965 36.6073C14.6947 36.6037 14.6929 36.6001 14.6911 36.5965L12.1988 30.5428C12.0317 30.1385 11.6382 29.8744 11.2016 29.8744C10.7649 29.8744 10.3714 30.1385 10.2043 30.5428L7.71562 36.5929C7.71382 36.5965 7.71203 36.6019 7.71023 36.6055L6.19187 40.2927C5.96546 40.8425 6.22781 41.4732 6.77945 41.6996ZM11.2052 33.7826L12.0928 35.9389H10.3157L11.2052 33.7826ZM29.8244 41.9099C32.4963 41.9099 34.6705 39.2397 34.6705 35.955C34.6705 32.6703 32.4963 30.0002 29.8244 30.0002C27.1524 30.0002 24.9782 32.6703 24.9782 35.955C24.9782 39.2397 27.1524 41.9099 29.8244 41.9099ZM29.8244 32.1582C31.2816 32.1582 32.5143 33.8976 32.5143 35.9568C32.5143 38.016 31.2834 39.7554 29.8244 39.7554C28.3671 39.7554 27.1345 38.016 27.1345 35.9568C27.1345 33.8976 28.3653 32.1582 29.8244 32.1582ZM35.2869 33.3711C35.2869 31.4413 36.9921 29.8726 39.0891 29.8726C40.7134 29.8726 42.1599 30.8249 42.6864 32.2409C42.8948 32.7997 42.6091 33.4196 42.0521 33.6263C41.4933 33.8347 40.8734 33.549 40.6649 32.992C40.4547 32.4242 39.806 32.0288 39.0873 32.0288C38.196 32.0288 37.4413 32.6434 37.4413 33.3711C37.4413 33.7395 37.5833 34.1833 37.984 34.3235L39.373 34.8086C39.3891 34.814 39.4071 34.8212 39.4233 34.8284L41.1249 35.5184C42.1437 35.9317 42.7511 36.9649 42.7511 38.282C42.7511 40.2118 41.0459 41.7805 38.9489 41.7805C37.3245 41.7805 35.878 40.8281 35.3516 39.4122C35.1431 38.8534 35.4288 38.2335 35.9859 38.0268C36.5447 37.8184 37.1646 38.1023 37.373 38.6611C37.5833 39.2289 38.2319 39.6242 38.9507 39.6242C39.8419 39.6242 40.5966 39.0097 40.5966 38.282C40.5966 37.9675 40.5086 37.5956 40.3163 37.5165L38.6398 36.8355L37.276 36.3593C36.0667 35.9371 35.2869 34.7655 35.2869 33.3711ZM52.7974 40.7024V30.9507C52.7974 30.356 53.2808 29.8726 53.8755 29.8726C54.4703 29.8726 54.9537 30.356 54.9537 30.9507V40.7024C54.9537 41.2971 54.4703 41.7805 53.8755 41.7805C53.2808 41.7805 52.7974 41.2971 52.7974 40.7024ZM57.5591 40.7024V30.9507C57.5591 30.356 58.0425 29.8726 58.6373 29.8726C59.232 29.8726 59.7154 30.356 59.7154 30.9507V39.6242H63.9955C64.5903 39.6242 65.0737 40.1076 65.0737 40.7024C65.0737 41.2971 64.5903 41.7805 63.9955 41.7805H58.6373C58.0407 41.7805 57.5591 41.2971 57.5591 40.7024ZM66.2344 40.7024V30.9507C66.2344 30.356 66.7178 29.8726 67.3126 29.8726C67.9073 29.8726 68.3907 30.356 68.3907 30.9507V39.6242H72.6709C73.2656 39.6242 73.749 40.1076 73.749 40.7024C73.749 41.2971 73.2656 41.7805 72.6709 41.7805H67.3126C66.7178 41.7805 66.2344 41.2971 66.2344 40.7024ZM74.4893 40.7024V30.9507C74.4893 30.356 74.9726 29.8726 75.5674 29.8726H80.6094C81.2042 29.8726 81.6876 30.356 81.6876 30.9507C81.6876 31.5455 81.2042 32.0288 80.6094 32.0288H76.6455V34.7475H80.6094C81.2042 34.7475 81.6876 35.2309 81.6876 35.8256C81.6876 36.4204 81.2042 36.9038 80.6094 36.9038H76.6455V39.6224H80.6094C81.2042 39.6224 81.6876 40.1058 81.6876 40.7006C81.6876 41.2953 81.2042 41.7787 80.6094 41.7787H75.5674C74.9726 41.7805 74.4893 41.2971 74.4893 40.7024Z" fill="#004020"/>
</svg>
