<svg width="61" height="67" viewBox="0 0 61 67" fill="none" xmlns="http://www.w3.org/2000/svg">
<path d="M45.65 18.1383H15.35C14.808 18.1383 14.3687 18.5776 14.3687 19.1197C14.3687 19.6618 14.808 20.1011 15.35 20.1011H45.65C46.192 20.1011 46.6314 19.6618 46.6314 19.1197C46.6314 18.5777 46.192 18.1383 45.65 18.1383Z" fill="#004020"/>
<path d="M45.65 25.6517H15.35C14.808 25.6517 14.3687 26.091 14.3687 26.6331C14.3687 27.1752 14.808 27.6145 15.35 27.6145H45.65C46.192 27.6145 46.6314 27.1752 46.6314 26.6331C46.6314 26.091 46.192 25.6517 45.65 25.6517Z" fill="#004020"/>
<path d="M45.65 33.1649H15.35C14.808 33.1649 14.3687 33.6042 14.3687 34.1463C14.3687 34.6884 14.808 35.1277 15.35 35.1277H45.65C46.192 35.1277 46.6314 34.6884 46.6314 34.1463C46.6314 33.6042 46.192 33.1649 45.65 33.1649Z" fill="#004020"/>
<path d="M58.2255 63.3341C57.9819 64.3106 57.0997 65.0374 56.0489 65.0374H45.4604C44.9184 65.0374 44.479 65.4766 44.479 66.0188C44.479 66.5609 44.9184 67.0001 45.4604 67.0001H56.0489C58.3639 67.0001 60.248 65.1211 60.257 62.8082C60.2571 62.8031 60.2574 62.7979 60.2574 62.7927C60.2574 62.7923 60.2574 62.792 60.2574 62.7916V29.311C60.2574 28.1826 59.7974 27.082 58.9956 26.2884C58.9939 26.2867 58.9925 26.2847 58.9908 26.283C58.9898 26.2821 58.9888 26.2813 58.9879 26.2804C58.9864 26.279 58.985 26.2774 58.9836 26.276L55.1265 22.4904V20.2768C55.1265 19.7347 54.6871 19.2954 54.1451 19.2954C53.6031 19.2954 53.1637 19.7347 53.1637 20.2768V30.7131L35.3315 48.5135L32.5269 46.9725C31.2578 46.2749 29.7421 46.2748 28.4732 46.9724L25.6685 48.5135L7.83642 30.7131V13.7717C7.83642 12.5091 8.86373 11.4818 10.1263 11.4818H50.8737C52.1363 11.4818 53.1636 12.5091 53.1636 13.7717V16.0994C53.1636 16.6415 53.603 17.0808 54.145 17.0808C54.687 17.0808 55.1264 16.6414 55.1264 16.0994V13.7717C55.1264 11.4267 53.2186 9.51907 50.8737 9.51907H41.9104L33.3545 1.12165C33.3452 1.11249 33.3357 1.10346 33.3261 1.09482C31.715 -0.36494 29.2852 -0.36494 27.6742 1.09482C27.6645 1.10346 27.6551 1.11249 27.6458 1.12165L19.0898 9.51907H10.1264C7.7816 9.51907 5.87381 11.4267 5.87381 13.7717V22.4904L2.01661 26.276C2.01504 26.2775 2.01347 26.2792 2.0119 26.2809C2.01112 26.2817 2.01033 26.2823 2.00955 26.283C2.00811 26.2845 2.00693 26.286 2.00562 26.2874C1.20325 27.0811 0.74292 28.1821 0.74292 29.3109V40.5098C0.74292 41.0519 1.18231 41.4912 1.72429 41.4912C2.26627 41.4912 2.70567 41.0519 2.70567 40.5098V29.3109C2.70567 29.0366 2.75853 28.7664 2.85353 28.5121L23.8768 49.4982L2.70567 61.1324V44.7868C2.70567 44.2447 2.26627 43.8054 1.72429 43.8054C1.18231 43.8054 0.74292 44.2447 0.74292 44.7868V62.7915V62.7925C0.74292 62.7976 0.743182 62.8029 0.743313 62.8081C0.752341 65.121 2.63645 67 4.95145 67H41.1834C41.7254 67 42.1648 66.5606 42.1648 66.0186C42.1648 65.4765 41.7254 65.0373 41.1834 65.0373H4.95145C3.90046 65.0373 3.0184 64.3106 2.77476 63.334L29.4187 48.6924C30.096 48.3203 30.9045 48.3201 31.5819 48.6925L58.2255 63.3341ZM29.0053 2.53744C29.8607 1.77433 31.1396 1.77433 31.995 2.53744L39.1085 9.51907H21.8918L29.0053 2.53744ZM5.87368 28.7537L4.09896 26.9822L5.87368 25.2404V28.7537ZM58.1466 28.5121C58.2416 28.7664 58.2945 29.0366 58.2945 29.3109V61.1324L37.1234 49.4982L58.1466 28.5121ZM56.9011 26.9823L55.1264 28.7537V25.2404L56.9011 26.9823Z" fill="#004020"/>
</svg>
