<svg width="28" height="28" viewBox="0 0 28 28" fill="none" xmlns="http://www.w3.org/2000/svg">
<g clip-path="url(#clip0_35_170)">
<path d="M14 28C6.27812 28 0 21.7175 0 14C0 10.9944 0.93625 8.13316 2.70812 5.72253C2.8525 5.53003 3.12375 5.48628 3.32062 5.63066C3.51312 5.77503 3.55687 6.04628 3.4125 6.24316C1.75 8.50503 0.870625 11.1869 0.870625 14.0044C0.870625 21.2407 6.75937 27.1294 13.9956 27.1294C21.2319 27.1294 27.1206 21.2407 27.1206 14.0044C27.1206 11.06 26.1669 8.27753 24.3687 5.95878C24.22 5.76628 24.255 5.49503 24.4475 5.34628C24.64 5.19753 24.9112 5.23253 25.06 5.42503C26.9806 7.89691 27.9956 10.8675 27.9956 14.0044C27.9956 21.7219 21.7175 28.0044 13.9956 28.0044L14 28Z" fill="#004020"/>
<path d="M7.87505 2.33187C7.71755 2.33187 7.56005 2.24437 7.48567 2.09125C7.3763 1.87687 7.4638 1.61437 7.67817 1.505C9.64692 0.5075 11.7775 0 14 0C16.2225 0 18.3532 0.5075 20.3219 1.505C20.5363 1.61437 20.6238 1.87687 20.5144 2.09125C20.405 2.30562 20.1425 2.39312 19.9282 2.28375C18.0819 1.3475 16.0869 0.870625 14 0.870625C11.9132 0.870625 9.91817 1.34312 8.07192 2.28375C8.01067 2.31437 7.94067 2.33187 7.87505 2.33187Z" fill="#004020"/>
<path d="M7.29313 11.8124C7.20125 11.8124 7.10937 11.7818 7.03062 11.7249L6.0375 10.9812C5.81875 10.8149 5.6875 10.5568 5.6875 10.2812V8.7499C5.6875 8.26865 6.08125 7.8749 6.5625 7.8749H8.1725L10.9375 5.90178V5.56928L10.2244 5.33303C9.86563 5.2149 9.625 4.8824 9.625 4.50178V2.42803L8.94688 1.97303C8.74563 1.8374 8.69313 1.56615 8.82438 1.3649C8.96 1.16365 9.23125 1.11115 9.4325 1.2424L10.1106 1.6974C10.3556 1.85928 10.5 2.13053 10.5 2.42365V4.4974L11.2131 4.73365C11.5719 4.85178 11.8125 5.18428 11.8125 5.5649V5.8974C11.8125 6.18178 11.6769 6.44428 11.445 6.61053L8.68 8.58365C8.53125 8.68865 8.35625 8.74553 8.1725 8.74553H6.5625V10.2768L7.55563 11.0205C7.74813 11.1649 7.7875 11.4405 7.64312 11.633C7.55562 11.7468 7.42438 11.808 7.29313 11.808V11.8124Z" fill="#004020"/>
<path d="M9.76512 25.3751H9.18762C8.70637 25.3751 8.31262 24.9814 8.31262 24.5001V22.8551L7.52949 21.2889C7.46824 21.1664 7.43762 21.0307 7.43762 20.8995V18.2089L4.42324 16.6995C4.12574 16.5507 3.93762 16.2489 3.93762 15.9164V14.2714C3.93762 13.9389 4.12137 13.637 4.42324 13.4882L4.81262 13.2914V12.8976L2.95324 11.4101C2.74324 11.2439 2.62512 10.9945 2.62512 10.7276V8.92949L1.87699 8.18137C1.70637 8.01074 1.70637 7.73512 1.87699 7.56449C2.04762 7.39387 2.32324 7.39387 2.49387 7.56449L3.24199 8.31262C3.40387 8.47449 3.50012 8.70199 3.50012 8.92949V10.7276L5.35949 12.2151C5.56949 12.3814 5.68762 12.6307 5.68762 12.8976V13.2914C5.68762 13.6239 5.50387 13.9257 5.20199 14.0745L4.81262 14.2714V15.9164L7.82699 17.4257C8.12449 17.5745 8.31262 17.8764 8.31262 18.2089V20.8995L9.09574 22.4657C9.15699 22.5882 9.18762 22.7239 9.18762 22.8551V24.5001H9.76512L10.5089 22.6407C10.5351 22.5707 10.5745 22.5007 10.6226 22.4395L11.8214 20.8382L11.8914 19.7576C11.9089 19.5214 12.0226 19.2939 12.2064 19.1407L14.4376 17.2857V15.7414H12.6876C12.2064 15.7414 11.8126 15.3476 11.8126 14.8664C11.8126 14.6257 12.0095 14.4289 12.2501 14.4289C12.4907 14.4289 12.6876 14.6257 12.6876 14.8664H14.4376C14.9189 14.8664 15.3126 15.2601 15.3126 15.7414V17.2857C15.3126 17.5482 15.1989 17.7932 14.9976 17.9595L12.7664 19.8101L12.6964 20.8907C12.6832 21.0614 12.6264 21.2232 12.5214 21.3589L11.3226 22.9601L10.5789 24.8195C10.4432 25.152 10.1282 25.3707 9.76512 25.3707V25.3751Z" fill="#004020"/>
<path d="M24.2375 22.2251L22.6625 21.0439C22.4438 20.8776 22.3125 20.6195 22.3125 20.3439V18.0907L20.755 16.1439C20.6325 15.9907 20.5625 15.7939 20.5625 15.597V13.742C20.5625 13.5101 20.6544 13.287 20.8206 13.1251L21.4725 12.4732C21.595 12.3507 21.7481 12.2676 21.9188 12.2326L23.625 11.8914V11.5545C23.625 11.3226 23.7169 11.0995 23.8831 10.9376L24.5 10.3207V9.62511H23.73L23.1438 9.91823C22.8988 10.0407 22.6056 10.0407 22.3606 9.91823L20.8994 9.18761H17.9419C17.4606 9.18761 17.0669 8.79386 17.0669 8.31261V7.65636C17.0669 7.38073 17.1981 7.11823 17.4169 6.95636L18.375 6.24323V5.42948C18.375 5.26323 18.4231 5.09698 18.515 4.95698L19.1888 3.91136L18.9438 3.42136C18.8388 3.21136 18.8213 2.97511 18.8956 2.75198L19.2763 1.61011L20.1075 1.88573L19.7269 3.02761L19.9719 3.51761C20.1075 3.79323 20.09 4.12136 19.9238 4.38386L19.25 5.42948V6.24323C19.25 6.51886 19.1188 6.78136 18.9 6.94323L17.9419 7.65636V8.31261H20.8994C21.035 8.31261 21.1706 8.34323 21.2888 8.40448L22.75 9.13511L23.3363 8.84198C23.4588 8.78073 23.5944 8.75011 23.7256 8.75011H24.4956C24.9769 8.75011 25.3706 9.14386 25.3706 9.62511V10.3207C25.3706 10.5526 25.2788 10.7757 25.1125 10.9376L24.4956 11.5545V11.8914C24.4956 12.307 24.1981 12.6657 23.7913 12.7489L22.085 13.0901L21.4331 13.742V15.597L22.9906 17.5439C23.1131 17.697 23.1831 17.8939 23.1831 18.0907V20.3439L24.7581 21.5251L24.2331 22.2251H24.2375Z" fill="#004020"/>
<path d="M4.8125 5.25C3.605 5.25 2.625 4.27 2.625 3.0625C2.625 1.855 3.605 0.875 4.8125 0.875C6.02 0.875 7 1.855 7 3.0625C7 4.27 6.02 5.25 4.8125 5.25ZM4.8125 1.75C4.09063 1.75 3.5 2.34063 3.5 3.0625C3.5 3.78437 4.09063 4.375 4.8125 4.375C5.53437 4.375 6.125 3.78437 6.125 3.0625C6.125 2.34063 5.53437 1.75 4.8125 1.75Z" fill="#004020"/>
<path d="M4.8125 8.75C4.57187 8.75 4.375 8.55312 4.375 8.3125V4.8125C4.375 4.57187 4.57187 4.375 4.8125 4.375C5.05313 4.375 5.25 4.57187 5.25 4.8125V8.3125C5.25 8.55312 5.05313 8.75 4.8125 8.75Z" fill="#004020"/>
<path d="M23.1875 4.375C21.98 4.375 21 3.395 21 2.1875C21 0.98 21.98 0 23.1875 0C24.395 0 25.375 0.98 25.375 2.1875C25.375 3.395 24.395 4.375 23.1875 4.375ZM23.1875 0.875C22.4656 0.875 21.875 1.46563 21.875 2.1875C21.875 2.90937 22.4656 3.5 23.1875 3.5C23.9094 3.5 24.5 2.90937 24.5 2.1875C24.5 1.46563 23.9094 0.875 23.1875 0.875Z" fill="#004020"/>
<path d="M23.1875 7.875C22.9469 7.875 22.75 7.67812 22.75 7.4375V3.9375C22.75 3.69687 22.9469 3.5 23.1875 3.5C23.4281 3.5 23.625 3.69687 23.625 3.9375V7.4375C23.625 7.67812 23.4281 7.875 23.1875 7.875Z" fill="#004020"/>
<path d="M10.5 14.4375C9.2925 14.4375 8.3125 13.4575 8.3125 12.25C8.3125 11.0425 9.2925 10.0625 10.5 10.0625C11.7075 10.0625 12.6875 11.0425 12.6875 12.25C12.6875 13.4575 11.7075 14.4375 10.5 14.4375ZM10.5 10.9375C9.77813 10.9375 9.1875 11.5281 9.1875 12.25C9.1875 12.9719 9.77813 13.5625 10.5 13.5625C11.2219 13.5625 11.8125 12.9719 11.8125 12.25C11.8125 11.5281 11.2219 10.9375 10.5 10.9375Z" fill="#004020"/>
<path d="M10.5 17.9375C10.2594 17.9375 10.0625 17.7406 10.0625 17.5V14C10.0625 13.7594 10.2594 13.5625 10.5 13.5625C10.7406 13.5625 10.9375 13.7594 10.9375 14V17.5C10.9375 17.7406 10.7406 17.9375 10.5 17.9375Z" fill="#004020"/>
</g>
<defs>
<clipPath id="clip0_35_170">
<rect width="28" height="28" fill="white"/>
</clipPath>
</defs>
</svg>
