<svg width="35" height="24" viewBox="0 0 35 24" fill="none" xmlns="http://www.w3.org/2000/svg">
<path d="M0.192507 17.808C0.0218405 14.8213 0.619174 11.5786 1.98451 8.07997C3.43517 4.5813 4.97117 1.97864 6.59251 0.271973L9.28051 1.80798C7.57384 4.45331 6.59251 7.82397 6.33651 11.92C8.04317 11.92 9.45117 12.5173 10.5605 13.712C11.7552 14.9066 12.3525 16.3146 12.3525 17.936C12.3525 19.472 11.7552 20.8373 10.5605 22.032C9.36584 23.1413 7.95784 23.696 6.33651 23.696C4.62984 23.696 3.22184 23.1413 2.11251 22.032C1.00317 20.8373 0.363174 19.4293 0.192507 17.808ZM22.5925 17.808C22.4218 14.8213 23.0192 11.5786 24.3845 8.07997C25.8352 4.5813 27.3712 1.97864 28.9925 0.271973L31.6805 1.80798C30.0592 4.11197 29.0352 7.48264 28.6085 11.92C30.4005 11.92 31.8512 12.5173 32.9605 13.712C34.1552 14.9066 34.7525 16.3146 34.7525 17.936C34.7525 19.472 34.1125 20.8373 32.8325 22.032C31.6378 23.1413 30.2298 23.696 28.6085 23.696C26.9872 23.696 25.5792 23.1413 24.3845 22.032C23.2752 20.8373 22.6778 19.4293 22.5925 17.808Z" fill="#004020"/>
</svg>
