<svg width="29" height="29" viewBox="0 0 29 29" fill="none" xmlns="http://www.w3.org/2000/svg">
<g clip-path="url(#clip0_79_15140)">
<path d="M25.9058 5.5472H26.8018C27.1144 5.5472 27.3678 5.29373 27.3678 4.98116C27.3678 4.6686 27.1144 4.41513 26.8018 4.41513H24.6509C24.3383 4.41513 24.0848 4.6686 24.0848 4.98116V7.13209C24.0848 7.44466 24.3383 7.69813 24.6509 7.69813C24.9634 7.69813 25.2169 7.44466 25.2169 7.13209V6.50929C26.9344 8.80858 27.8679 11.5984 27.8679 14.5C27.8679 21.8711 21.8711 27.8679 14.5 27.8679C7.12887 27.8679 1.13207 21.8711 1.13207 14.5C1.13207 7.12887 7.12887 1.13207 14.5 1.13207C15.0451 1.13207 15.5938 1.16518 16.1309 1.23045C16.4408 1.26792 16.7234 1.04722 16.7611 0.736864C16.7988 0.426564 16.5779 0.144339 16.2675 0.106641C15.6853 0.0358866 15.0907 0 14.5 0C10.6269 0 6.98561 1.50826 4.24696 4.24696C1.50826 6.98561 0 10.6269 0 14.5C0 18.3731 1.50826 22.0144 4.24696 24.753C6.98561 27.4917 10.6269 29 14.5 29C18.3731 29 22.0144 27.4917 24.753 24.753C27.4917 22.0144 29 18.3731 29 14.5C29 11.2317 27.9081 8.09401 25.9058 5.5472Z" fill="#004020"/>
<path d="M6.14001 8.54792C5.87584 8.38071 5.52621 8.45939 5.35894 8.72339C4.06674 10.7643 3.49471 13.2187 3.74823 15.6346C4.0055 18.0863 5.10898 20.3984 6.85542 22.1449C8.96306 24.2525 11.7316 25.3063 14.5002 25.3063C17.2688 25.3063 20.0372 24.2526 22.1449 22.1449C26.3602 17.9296 26.3602 11.0707 22.1449 6.85542C20.4011 5.11169 18.0929 4.00861 15.6453 3.74936C13.2338 3.4938 10.7821 4.06136 8.74202 5.34722C8.47751 5.51392 8.39832 5.86345 8.56496 6.1279C8.73166 6.3924 9.08119 6.47159 9.34564 6.30495C13.1912 3.88119 18.1251 4.43664 21.3444 7.65591C25.1183 11.4298 25.1183 17.5704 21.3444 21.3443C17.5705 25.1183 11.4298 25.1183 7.65597 21.3443C4.48119 18.1696 3.91742 13.1164 6.31548 9.32905C6.48263 9.06488 6.40413 8.71519 6.14001 8.54792Z" fill="#004020"/>
<path d="M21.8585 15.0752H22.5565C22.8691 15.0752 23.1226 14.8217 23.1226 14.5091C23.1226 14.1966 22.8691 13.9431 22.5565 13.9431H21.8585C21.546 13.9431 21.2925 14.1966 21.2925 14.5091C21.2925 14.8217 21.5459 15.0752 21.8585 15.0752Z" fill="#004020"/>
<path d="M5.87744 14.4908C5.87744 14.8034 6.13091 15.0569 6.44348 15.0569H7.14151C7.45407 15.0569 7.70755 14.8034 7.70755 14.4908C7.70755 14.1783 7.45407 13.9248 7.14151 13.9248H6.44348C6.13091 13.9248 5.87744 14.1782 5.87744 14.4908Z" fill="#004020"/>
<path d="M15.0752 7.14151V6.44348C15.0752 6.13091 14.8217 5.87744 14.5091 5.87744C14.1966 5.87744 13.9431 6.13091 13.9431 6.44348V7.14151C13.9431 7.45407 14.1966 7.70755 14.5091 7.70755C14.8217 7.70755 15.0752 7.45407 15.0752 7.14151Z" fill="#004020"/>
<path d="M13.9248 21.8585V22.5565C13.9248 22.8691 14.1783 23.1226 14.4908 23.1226C14.8034 23.1226 15.0569 22.8691 15.0569 22.5565V21.8585C15.0569 21.546 14.8034 21.2925 14.4908 21.2925C14.1783 21.2925 13.9248 21.5459 13.9248 21.8585Z" fill="#004020"/>
<path d="M11.6629 10.8622C11.4418 10.6413 11.0835 10.6413 10.8623 10.8622C10.6413 11.0833 10.6413 11.4417 10.8623 11.6628L12.7807 13.5811C12.6337 13.8551 12.5501 14.1679 12.5501 14.5C12.5501 15.5752 13.4248 16.45 14.5 16.45C15.5753 16.45 16.45 15.5752 16.45 14.5C16.45 14.1679 16.3664 13.8551 16.2194 13.5811L20.0901 9.71042C20.3112 9.48938 20.3112 9.13097 20.0901 8.90988C19.8691 8.6889 19.5108 8.6889 19.2896 8.90988L15.4189 12.7806C15.1449 12.6336 14.8321 12.55 14.5 12.55C14.168 12.55 13.8552 12.6336 13.5812 12.7806L11.6629 10.8622ZM15.318 14.5C15.318 14.951 14.9511 15.3179 14.5 15.3179C14.049 15.3179 13.6821 14.951 13.6821 14.5C13.6821 14.049 14.049 13.6821 14.5 13.6821C14.9511 13.6821 15.318 14.049 15.318 14.5Z" fill="#004020"/>
<path d="M7.65543 7.65555C7.76128 7.55027 7.82179 7.40423 7.82179 7.25537C7.82179 7.1065 7.76128 6.96103 7.65543 6.85518C7.55015 6.74995 7.40462 6.68933 7.25524 6.68933C7.10638 6.68933 6.96034 6.7499 6.85506 6.85518C6.74983 6.96046 6.68921 7.1065 6.68921 7.25537C6.68921 7.4048 6.74977 7.55027 6.85506 7.65555C6.96034 7.76078 7.10638 7.8214 7.25524 7.8214C7.40462 7.8214 7.55015 7.76078 7.65543 7.65555Z" fill="#004020"/>
<path d="M18.421 1.69115C18.5705 1.69115 18.7165 1.6311 18.8218 1.5253C18.9271 1.42002 18.9877 1.27449 18.9877 1.12512C18.9877 0.97625 18.9271 0.830213 18.8218 0.72493C18.7165 0.619704 18.5705 0.559082 18.421 0.559082C18.2721 0.559082 18.1261 0.619648 18.0209 0.72493C17.9156 0.830213 17.855 0.97625 17.855 1.12512C17.855 1.27455 17.9155 1.42002 18.0209 1.5253C18.1261 1.6311 18.2721 1.69115 18.421 1.69115Z" fill="#004020"/>
</g>
<defs>
<clipPath id="clip0_79_15140">
<rect width="29" height="29" fill="white"/>
</clipPath>
</defs>
</svg>
