<svg width="31" height="31" viewBox="0 0 31 31" fill="none" xmlns="http://www.w3.org/2000/svg">
<path d="M15.5 3.875C13.9672 3.875 12.4688 4.32953 11.1943 5.18111C9.91985 6.03269 8.92652 7.24308 8.33994 8.6592C7.75336 10.0753 7.59988 11.6336 7.89892 13.1369C8.19795 14.6403 8.93607 16.0212 10.0199 17.1051C11.1038 18.1889 12.4847 18.9271 13.9881 19.2261C15.4914 19.5251 17.0497 19.3716 18.4658 18.7851C19.8819 18.1985 21.0923 17.2051 21.9439 15.9307C22.7955 14.6562 23.25 13.1578 23.25 11.625C23.2473 9.5704 22.4299 7.60072 20.9771 6.1479C19.5243 4.69507 17.5546 3.87769 15.5 3.875ZM15.5 18.4062C14.1588 18.4062 12.8477 18.0085 11.7325 17.2634C10.6174 16.5183 9.7482 15.4592 9.23495 14.2201C8.72169 12.981 8.5874 11.6175 8.84905 10.302C9.11071 8.98661 9.75656 7.77831 10.7049 6.82993C11.6533 5.88156 12.8616 5.23571 14.177 4.97405C15.4925 4.71239 16.856 4.84669 18.0951 5.35994C19.3342 5.8732 20.3933 6.74237 21.1384 7.85754C21.8835 8.97271 22.2813 10.2838 22.2813 11.625C22.2793 13.4229 21.5643 15.1466 20.2929 16.4179C19.0216 17.6893 17.2979 18.4043 15.5 18.4062Z" fill="#004020"/>
<path d="M18.7841 24.3641C21.8405 20.9395 26.1562 15.4273 26.1562 11.625C26.1562 8.79879 25.0335 6.08833 23.0351 4.08989C21.0367 2.09146 18.3262 0.96875 15.5 0.96875C12.6738 0.96875 9.96333 2.09146 7.96489 4.08989C5.96646 6.08833 4.84375 8.79879 4.84375 11.625C4.84375 15.4273 9.15953 20.9395 12.2159 24.3641C9.94422 24.5723 5.32812 25.2311 5.32812 27.125C5.32812 29.1206 10.603 30.0312 15.5 30.0312C20.397 30.0312 25.6719 29.1206 25.6719 27.125C25.6719 25.2311 21.0558 24.5723 18.7841 24.3641ZM5.8125 11.625C5.8125 9.05572 6.83314 6.59166 8.6499 4.7749C10.4667 2.95814 12.9307 1.9375 15.5 1.9375C18.0693 1.9375 20.5333 2.95814 22.3501 4.7749C24.1669 6.59166 25.1875 9.05572 25.1875 11.625C25.1875 16.4106 17.2486 24.6789 15.5 26.442C13.7514 24.6789 5.8125 16.4106 5.8125 11.625ZM15.5 29.0625C9.54703 29.0625 6.29688 27.7838 6.29688 27.125C6.29688 26.6406 8.34094 25.5798 13.0345 25.2698C14.197 26.5292 15.0447 27.3575 15.1609 27.4738C15.2524 27.5608 15.3738 27.6094 15.5 27.6094C15.6262 27.6094 15.7476 27.5608 15.8391 27.4738C15.9553 27.3575 16.803 26.5292 17.9655 25.2698C22.6591 25.5798 24.7031 26.6406 24.7031 27.125C24.7031 27.7838 21.453 29.0625 15.5 29.0625Z" fill="#004020"/>
<path d="M19.8448 9.57125L19.3605 7.63375C19.3345 7.52874 19.2741 7.43543 19.189 7.36872C19.1038 7.302 18.9988 7.26571 18.8906 7.26562H12.1094C12.0012 7.26571 11.8962 7.302 11.811 7.36872C11.7259 7.43543 11.6655 7.52874 11.6395 7.63375L11.1552 9.57125C11.1473 9.60957 11.1425 9.64843 11.1406 9.6875V15.5C11.1406 15.6285 11.1917 15.7517 11.2825 15.8425C11.3733 15.9333 11.4965 15.9844 11.625 15.9844H19.375C19.5035 15.9844 19.6267 15.9333 19.7175 15.8425C19.8083 15.7517 19.8594 15.6285 19.8594 15.5V9.6875C19.8575 9.64843 19.8527 9.60957 19.8448 9.57125ZM16.9531 8.23438H18.5128L18.755 9.20312H16.9531V8.23438ZM15.0156 8.23438H15.9844V9.20312H15.0156V8.23438ZM15.0156 10.1719H15.9844V11.1406H15.0156V10.1719ZM12.4872 8.23438H14.0469V9.20312H12.245L12.4872 8.23438ZM18.8906 15.0156H12.1094V10.1719H14.0469V11.625C14.0469 11.7535 14.0979 11.8767 14.1887 11.9675C14.2796 12.0583 14.4028 12.1094 14.5312 12.1094H16.4688C16.5972 12.1094 16.7204 12.0583 16.8113 11.9675C16.9021 11.8767 16.9531 11.7535 16.9531 11.625V10.1719H18.8906V15.0156Z" fill="#004020"/>
<path d="M16.4688 13.5625C16.3403 13.5625 16.2171 13.6135 16.1262 13.7044C16.0354 13.7952 15.9844 13.9184 15.9844 14.0469C15.9844 14.1753 16.0354 14.2985 16.1262 14.3894C16.2171 14.4802 16.3403 14.5312 16.4688 14.5312H17.9219C18.0503 14.5312 18.1735 14.4802 18.2644 14.3894C18.3552 14.2985 18.4062 14.1753 18.4062 14.0469C18.4062 13.9184 18.3552 13.7952 18.2644 13.7044C18.1735 13.6135 18.0503 13.5625 17.9219 13.5625H16.4688Z" fill="#004020"/>
</svg>
