<svg width="28" height="28" viewBox="0 0 28 28" fill="none" xmlns="http://www.w3.org/2000/svg">
<g clip-path="url(#clip0_79_15118)">
<path d="M21.2898 2.90939H16.9641V2.38439C16.9641 1.93048 16.5922 1.55861 16.1383 1.55861H14.7328V1.07189C14.7328 0.743762 14.4648 0.481262 14.1422 0.481262H10.1391C9.81094 0.481262 9.54297 0.749231 9.54297 1.07189V1.55861H8.1375C7.6836 1.55861 7.31172 1.93048 7.31172 2.38439V2.90939H3.04063C2.85469 2.88751 2.69063 3.0297 2.69063 3.21564V3.51642L0.0546909 26.2664C0.0273472 26.4414 0.180472 26.6164 0.360941 26.611H6.4586L7.27344 27.4258C7.3336 27.486 7.41016 27.5188 7.49219 27.5188H21.2953C21.4648 27.5188 21.6016 27.382 21.6016 27.2125V3.21564C21.6016 3.04611 21.4648 2.90939 21.2898 2.90939ZM7.94063 2.38439C7.94063 2.26954 8.0336 2.17657 8.14844 2.17657H9.86016C10.0297 2.17657 10.1664 2.03986 10.1664 1.87032V1.1047H14.1258V1.87032C14.1258 2.03986 14.2625 2.17657 14.432 2.17657H16.1492C16.2641 2.17657 16.357 2.26954 16.357 2.38439V4.04689C16.357 4.16173 16.2641 4.2547 16.1492 4.2547H8.14297C8.02813 4.2547 7.93516 4.16173 7.93516 4.04689V2.38439H7.94063ZM0.705472 25.993L2.68516 8.87579V22.7117C2.69063 22.7938 2.71797 22.8703 2.77813 22.9305L5.84063 25.993H0.705472ZM7.18047 26.4633L3.74063 23.0235H7.18047V26.4633ZM20.9836 26.9008H7.79844V22.7172C7.79844 22.5477 7.66172 22.411 7.49219 22.411H3.3086C3.31407 22.3781 3.30313 3.5547 3.31407 3.52736H7.32813V4.04689C7.32813 4.50079 7.7 4.87267 8.15391 4.87267H16.1547C16.6086 4.87267 16.9805 4.50079 16.9805 4.04689V3.52736H20.9945V26.9008H20.9836ZM4.93829 9.45548V7.37189C4.93829 7.0547 5.19532 6.79767 5.5125 6.79767H7.5961C7.91329 6.79767 8.17032 7.0547 8.17032 7.37189C8.17032 7.74923 7.60704 7.78751 7.55782 7.41564H5.56172V9.41173H7.60157C8.00625 9.41173 8.00625 10.0242 7.60157 10.0297H5.51797C5.19532 10.0297 4.93829 9.77267 4.93829 9.45548ZM9.16016 7.70548L7.76016 9.10548C7.7 9.16564 7.62344 9.19845 7.54141 9.19845C7.46485 9.19845 7.38282 9.16564 7.32266 9.10548L6.60625 8.38907C6.32188 8.1047 6.75938 7.6672 7.04375 7.95157L7.54141 8.44923L8.72266 7.26798C9.00704 6.98361 9.43907 7.41564 9.16016 7.70548ZM4.93829 14.3117V12.2281C4.93829 11.911 5.19532 11.6539 5.5125 11.6539H7.5961C7.91329 11.6539 8.17032 11.911 8.17032 12.2281C8.17032 12.6055 7.60704 12.6438 7.55782 12.2719H5.56172V14.268H7.60157C8.00625 14.268 8.00625 14.8805 7.60157 14.886H5.51797C5.19532 14.886 4.93829 14.6289 4.93829 14.3117ZM9.16016 12.5563L7.76016 13.9563C7.63985 14.0766 7.44297 14.0766 7.32266 13.9563L6.60625 13.2399C6.32188 12.9555 6.75391 12.518 7.04375 12.8024L7.54141 13.3L8.72266 12.1188C9.00704 11.8344 9.43907 12.2719 9.16016 12.5563ZM7.89688 19.4305C7.89688 19.6 7.76016 19.7367 7.59063 19.7367H5.50703C5.18985 19.7367 4.93282 19.4797 4.93282 19.1625V17.0789C4.93282 16.7617 5.18985 16.5047 5.50703 16.5047H7.59063C7.90782 16.5047 8.16485 16.7617 8.16485 17.0789C8.16485 17.4563 7.60157 17.4945 7.55235 17.1227H5.55625V19.1188H7.5961C7.76016 19.1188 7.89688 19.261 7.89688 19.4305ZM9.16016 17.4125L7.75469 18.8125C7.63985 18.9328 7.43204 18.9328 7.31719 18.8125L6.60078 18.0961C6.31641 17.8117 6.74844 17.3742 7.03828 17.6586L7.53594 18.1563L8.71719 16.975C9.00704 16.6906 9.43907 17.1227 9.16016 17.4125ZM10.9594 7.31173H15.3016C15.7063 7.31173 15.7063 7.9297 15.3016 7.9297H10.9594C10.5547 7.9297 10.5547 7.3172 10.9594 7.31173ZM10.9594 8.90314H18.5719C18.9766 8.90314 18.9711 9.52111 18.5719 9.52111H10.9594C10.5547 9.51564 10.5547 8.90314 10.9594 8.90314ZM10.9594 12.168H15.3016C15.7063 12.168 15.7063 12.786 15.3016 12.786H10.9594C10.5547 12.7805 10.5547 12.168 10.9594 12.168ZM18.5719 14.3719H10.9594C10.5547 14.3719 10.5602 13.7539 10.9594 13.7539H18.5719C18.9766 13.7594 18.9711 14.3719 18.5719 14.3719ZM10.9594 17.0188H15.3016C15.7063 17.0188 15.7063 17.6367 15.3016 17.6367H10.9594C10.5547 17.6367 10.5547 17.0242 10.9594 17.0188ZM18.5719 19.2281H10.9594C10.5547 19.2281 10.5602 18.6102 10.9594 18.6102H18.5719C18.9766 18.6102 18.9711 19.2227 18.5719 19.2281ZM27.5352 7.43751L27.6117 6.94532C27.7648 6.08673 27.125 5.20079 26.2555 5.08595C25.3695 4.94923 24.5328 5.55626 24.3961 6.4422L24.3195 6.92892C24.0133 6.95626 23.7508 7.20783 23.7125 7.50861C23.7125 7.50861 23.6195 8.12111 23.6141 8.12111L22.7609 13.568L22.6625 14.1805C22.6078 14.4813 22.7828 14.8039 23.0617 14.9188C23.0617 14.9242 21.9188 22.1977 21.9242 22.2031C21.9188 22.2414 21.9242 22.2852 21.9297 22.3235L22.7938 25.3258C22.8539 25.5719 23.2094 25.6266 23.3461 25.4133L25.0906 22.8156C25.1125 22.7774 25.1289 22.7336 25.1399 22.6899L26.2828 15.4219C26.5891 15.4 26.8461 15.1485 26.8899 14.8477L27.9344 8.17579C27.9891 7.87501 27.8195 7.55783 27.5352 7.43751ZM25.0086 6.54064C25.2492 5.22814 27.1797 5.53439 27.0047 6.85236L26.9336 7.3172L24.9375 7.00548L25.0086 6.54064ZM24.1773 8.52579L24.8938 8.64064L24.1336 13.475L23.4172 13.3602L24.1773 8.52579ZM23.2094 24.5274L22.6625 22.6242L24.3141 22.8813L23.2094 24.5274ZM24.582 22.3016L22.5859 21.9899L23.6742 15.0445C23.9313 15.0828 25.3805 15.3125 25.6703 15.3563L24.582 22.3016ZM26.2828 14.7547C26.2719 14.8039 26.2445 14.8203 26.1953 14.8203L23.4719 14.3938H23.4664L23.3406 14.3719C23.2203 14.3609 23.3133 14.1313 23.3242 13.9727C23.3734 13.9891 24.1281 14.0984 24.1555 14.0984C24.4398 14.0984 24.6914 13.8906 24.7406 13.6008L25.5063 8.71173C25.5555 8.38908 25.3367 8.08829 25.0141 8.03907L24.2758 7.92423C24.3141 7.77657 24.2922 7.52501 24.4125 7.55236L27.2672 8.00079C27.3164 8.01173 27.3328 8.03907 27.3328 8.08829C27.3273 8.07736 26.2828 14.7547 26.2828 14.7547Z" fill="#004020"/>
</g>
<defs>
<clipPath id="clip0_79_15118">
<rect width="28" height="28" fill="white"/>
</clipPath>
</defs>
</svg>
