<svg width="26" height="26" viewBox="0 0 26 26" fill="none" xmlns="http://www.w3.org/2000/svg">
<g clip-path="url(#clip0_79_15154)">
<path d="M2.6 21.6667H3.9V24.375C3.89866 24.682 3.98467 24.983 4.14799 25.2429C4.31131 25.5028 4.54519 25.7109 4.82234 25.8429C5.09949 25.9749 5.40847 26.0253 5.7132 25.9883C6.01794 25.9513 6.30585 25.8283 6.54333 25.6338L11.4205 21.6667H23.4C24.0894 21.666 24.7503 21.3918 25.2377 20.9044C25.7252 20.4169 25.9993 19.756 26 19.0667V2.6C25.9993 1.91065 25.7252 1.24973 25.2377 0.762283C24.7503 0.274837 24.0894 0.00068832 23.4 0L2.6 0C1.91065 0.00068832 1.24973 0.274837 0.762283 0.762283C0.274837 1.24973 0.00068832 1.91065 0 2.6L0 19.0667C0.00068832 19.756 0.274837 20.4169 0.762283 20.9044C1.24973 21.3918 1.91065 21.666 2.6 21.6667ZM0.866667 2.6C0.866667 2.14029 1.04929 1.69941 1.37435 1.37435C1.69941 1.04929 2.14029 0.866667 2.6 0.866667H23.4C23.8597 0.866667 24.3006 1.04929 24.6257 1.37435C24.9507 1.69941 25.1333 2.14029 25.1333 2.6V19.0667C25.1333 19.5264 24.9507 19.9673 24.6257 20.2923C24.3006 20.6174 23.8597 20.8 23.4 20.8H11.2667C11.167 20.8001 11.0705 20.8345 10.9932 20.8975L5.99647 24.96C5.8858 25.0498 5.75195 25.1064 5.61043 25.1233C5.46892 25.1402 5.32551 25.1166 5.19683 25.0554C5.06814 24.9941 4.95944 24.8976 4.88331 24.7772C4.80719 24.6567 4.76674 24.5171 4.76667 24.3746V21.2333C4.76667 21.1184 4.72101 21.0082 4.63975 20.9269C4.55848 20.8457 4.44826 20.8 4.33333 20.8H2.6C2.14029 20.8 1.69941 20.6174 1.37435 20.2923C1.04929 19.9673 0.866667 19.5264 0.866667 19.0667V2.6Z" fill="#004020"/>
<path d="M4.33324 18.2001H21.6666C21.7815 18.2001 21.8917 18.1544 21.973 18.0731C22.0542 17.9919 22.0999 17.8817 22.0999 17.7667C22.0999 17.6518 22.0542 17.5416 21.973 17.4603C21.8917 17.379 21.7815 17.3334 21.6666 17.3334H19.4778C19.3916 16.0602 18.9327 14.8406 18.1584 13.8263C17.3841 12.812 16.3286 12.0478 15.1232 11.629C16.0857 11.1507 16.8584 10.3612 17.3157 9.38853C17.773 8.41588 17.8882 7.31722 17.6426 6.27088C17.3969 5.22453 16.8049 4.29191 15.9625 3.62439C15.1201 2.95687 14.0769 2.59363 13.0021 2.59363C11.9273 2.59363 10.884 2.95687 10.0416 3.62439C9.19927 4.29191 8.60721 5.22453 8.36157 6.27088C8.11592 7.31722 8.23111 8.41588 8.68844 9.38853C9.14577 10.3612 9.91839 11.1507 10.8809 11.629C9.67472 12.0471 8.61826 12.811 7.84315 13.8253C7.06805 14.8397 6.60858 16.0597 6.522 17.3334H4.33324C4.21831 17.3334 4.10809 17.379 4.02682 17.4603C3.94556 17.5416 3.8999 17.6518 3.8999 17.7667C3.8999 17.8817 3.94556 17.9919 4.02682 18.0731C4.10809 18.1544 4.21831 18.2001 4.33324 18.2001ZM9.0999 7.36672C9.0999 6.59538 9.32863 5.84135 9.75717 5.2C10.1857 4.55865 10.7948 4.05878 11.5074 3.76359C12.2201 3.46841 13.0042 3.39118 13.7608 3.54166C14.5173 3.69214 15.2122 4.06358 15.7576 4.60901C16.303 5.15443 16.6745 5.84935 16.825 6.60587C16.9754 7.3624 16.8982 8.14656 16.603 8.85919C16.3079 9.57182 15.808 10.1809 15.1666 10.6095C14.5253 11.038 13.7712 11.2667 12.9999 11.2667C11.9659 11.2656 10.9746 10.8543 10.2435 10.1232C9.51231 9.39203 9.10105 8.40072 9.0999 7.36672ZM12.9999 12.1334C14.4177 12.1357 15.7827 12.6721 16.8226 13.6359C17.8626 14.5996 18.5012 15.9198 18.6111 17.3334H7.3878C7.49778 15.9197 8.13651 14.5993 9.17664 13.6356C10.2168 12.6718 11.5819 12.1354 12.9999 12.1334Z" fill="#004020"/>
</g>
<defs>
<clipPath id="clip0_79_15154">
<rect width="26" height="26" fill="white"/>
</clipPath>
</defs>
</svg>
