<svg width="69" height="61" viewBox="0 0 69 61" fill="none" xmlns="http://www.w3.org/2000/svg">
<path d="M46.208 5.90784C46.6948 5.90784 47.0897 6.30293 47.0898 6.78967C47.0898 7.27653 46.6949 7.67151 46.208 7.67151C42.0957 7.67161 38.405 10.4224 37.2334 14.359C37.1047 14.793 36.6701 15.0547 36.2324 14.9752L36.2285 14.9801L36.1367 14.9528C35.6703 14.8136 35.4039 14.3229 35.543 13.8561C36.9067 9.27346 41.154 5.90794 46.208 5.90784Z" fill="#004020" stroke="#F9FFF9" stroke-width="0.3"/>
<path d="M56.4522 42.645H52.0618C51.6578 42.645 51.3301 42.3173 51.3301 41.9132C51.3301 41.5092 51.6578 41.1815 52.0618 41.1815H56.4522C62.504 41.1815 67.4281 36.2574 67.4281 30.2055C67.4281 24.1536 62.504 19.2296 56.4522 19.2296H56.3466C56.1344 19.2296 55.9326 19.1376 55.7936 18.9771C55.6546 18.8167 55.5918 18.604 55.6222 18.3938C55.6875 17.9381 55.7204 17.4802 55.7204 17.0344C55.7204 11.7895 51.4528 7.52185 46.2079 7.52185C44.1674 7.52185 42.2215 8.1595 40.5803 9.36632C40.2196 9.63132 39.7074 9.51372 39.4989 9.11701C34.8509 0.266242 22.7107 -0.922326 16.4166 6.77707C13.7652 10.0207 12.7234 14.2402 13.5582 18.3526C13.6502 18.8068 13.3026 19.2301 12.8411 19.2301H12.5479C6.496 19.2301 1.57193 24.1542 1.57193 30.2061C1.57193 36.258 6.496 41.182 12.5479 41.182H16.9382C17.3422 41.182 17.6699 41.5098 17.6699 41.9138C17.6699 42.3178 17.3422 42.6455 16.9382 42.6455H12.5479C5.6889 42.6455 0.108398 37.065 0.108398 30.206C0.108398 23.5395 5.37995 18.0807 11.9735 17.7797C11.3541 13.5131 12.5385 9.20949 15.2835 5.85092C22.0222 -2.39306 34.9364 -1.46902 40.3955 7.72362C42.1371 6.63176 44.1299 6.05898 46.2076 6.05898C52.5622 6.05898 57.5976 11.4675 57.157 17.7865C63.6897 18.1529 68.8913 23.5828 68.8913 30.2055C68.8913 37.065 63.3108 42.645 56.4518 42.645L56.4522 42.645Z" fill="#004020"/>
<path d="M34.4023 23.0562C44.5721 23.0564 52.8457 31.3307 52.8457 41.5005C52.8454 51.6699 44.5719 59.9436 34.4023 59.9438C24.2327 59.9438 15.9583 51.6702 15.958 41.5005C15.958 31.3307 24.2324 23.0562 34.4023 23.0562ZM34.4023 24.8208C25.2053 24.8208 17.7227 32.3036 17.7227 41.5005C17.7229 50.6973 25.2056 58.1802 34.4023 58.1802C43.5989 58.1799 51.0818 50.697 51.082 41.5005C51.082 32.3036 43.599 24.8211 34.4023 24.8208Z" fill="#004020" stroke="#F9FFF9" stroke-width="0.3"/>
<path d="M34.7373 34.2496C35.1157 34.2499 35.4229 34.5577 35.4229 34.9362V48.8639C35.4229 49.2428 35.1157 49.5502 34.7373 49.5504C34.3587 49.5504 34.0508 49.2425 34.0508 48.8639V34.9362C34.0508 34.5575 34.3587 34.2496 34.7373 34.2496Z" fill="#004020" stroke="#483EA8" stroke-width="0.3"/>
<path d="M34.252 34.452C34.5196 34.1843 34.954 34.1843 35.2217 34.452L39.5068 38.7382C39.7746 39.0061 39.7747 39.44 39.5068 39.7079L39.5059 39.7069C39.372 39.841 39.197 39.908 39.0225 39.9081C38.8474 39.9081 38.6708 39.8416 38.5371 39.7079L34.7363 35.9061L30.9355 39.7079C30.668 39.9756 30.2335 39.9755 29.9658 39.7079C29.698 39.4401 29.6982 39.0061 29.9658 38.7382L34.252 34.452Z" fill="#004020" stroke="#483EA8" stroke-width="0.3"/>
</svg>
