<svg width="29" height="29" viewBox="0 0 29 29" fill="none" xmlns="http://www.w3.org/2000/svg">
<path d="M24.9219 28.5469H6.79688C6.6767 28.5469 6.56144 28.4991 6.47647 28.4142C6.39149 28.3292 6.34375 28.2139 6.34375 28.0938V25.375C6.34375 25.2548 6.39149 25.1396 6.47647 25.0546C6.56144 24.9696 6.6767 24.9219 6.79688 24.9219C6.91705 24.9219 7.03231 24.9696 7.11728 25.0546C7.20226 25.1396 7.25 25.2548 7.25 25.375V27.6406H24.4688V4.07812H22.2031C22.0829 4.07812 21.9677 4.03039 21.8827 3.94541C21.7977 3.86043 21.75 3.74518 21.75 3.625C21.75 3.50482 21.7977 3.38957 21.8827 3.30459C21.9677 3.21961 22.0829 3.17187 22.2031 3.17188H24.9219C25.0421 3.17188 25.1573 3.21961 25.2423 3.30459C25.3273 3.38957 25.375 3.50482 25.375 3.625V28.0938C25.375 28.2139 25.3273 28.3292 25.2423 28.4142C25.1573 28.4991 25.0421 28.5469 24.9219 28.5469Z" fill="#004020"/>
<path d="M22.2031 25.8281H4.07812C3.95795 25.8281 3.84269 25.7804 3.75772 25.6954C3.67274 25.6104 3.625 25.4952 3.625 25.375V5.89062C3.62503 5.77046 3.67278 5.65522 3.75777 5.57027L8.74214 0.585891C8.8271 0.500907 8.94233 0.453151 9.0625 0.453125H22.2031C22.3233 0.453125 22.4386 0.500865 22.5235 0.585842C22.6085 0.67082 22.6562 0.786074 22.6562 0.90625V25.375C22.6562 25.4952 22.6085 25.6104 22.5235 25.6954C22.4386 25.7804 22.3233 25.8281 22.2031 25.8281ZM4.53125 24.9219H21.75V1.35938H9.25009L4.53125 6.07822V24.9219Z" fill="#004020"/>
<path d="M9.0625 6.34375H4.07812C3.95795 6.34375 3.84269 6.29601 3.75772 6.21103C3.67274 6.12606 3.625 6.0108 3.625 5.89062C3.625 5.77045 3.67274 5.65519 3.75772 5.57022C3.84269 5.48524 3.95795 5.4375 4.07812 5.4375H8.60938V0.90625C8.60938 0.786074 8.65711 0.67082 8.74209 0.585842C8.82707 0.500865 8.94232 0.453125 9.0625 0.453125C9.18268 0.453125 9.29793 0.500865 9.38291 0.585842C9.46789 0.67082 9.51562 0.786074 9.51562 0.90625V5.89062C9.51562 6.0108 9.46789 6.12606 9.38291 6.21103C9.29793 6.29601 9.18268 6.34375 9.0625 6.34375Z" fill="#004020"/>
<path d="M14.0469 8.15625H6.79688C6.6767 8.15625 6.56144 8.10851 6.47647 8.02353C6.39149 7.93856 6.34375 7.8233 6.34375 7.70312C6.34375 7.58295 6.39149 7.46769 6.47647 7.38272C6.56144 7.29774 6.6767 7.25 6.79688 7.25H14.0469C14.1671 7.25 14.2823 7.29774 14.3673 7.38272C14.4523 7.46769 14.5 7.58295 14.5 7.70312C14.5 7.8233 14.4523 7.93856 14.3673 8.02353C14.2823 8.10851 14.1671 8.15625 14.0469 8.15625Z" fill="#004020"/>
<path d="M14.0469 9.96875H6.79688C6.6767 9.96875 6.56144 9.92101 6.47647 9.83603C6.39149 9.75106 6.34375 9.6358 6.34375 9.51562C6.34375 9.39545 6.39149 9.28019 6.47647 9.19522C6.56144 9.11024 6.6767 9.0625 6.79688 9.0625H14.0469C14.1671 9.0625 14.2823 9.11024 14.3673 9.19522C14.4523 9.28019 14.5 9.39545 14.5 9.51562C14.5 9.6358 14.4523 9.75106 14.3673 9.83603C14.2823 9.92101 14.1671 9.96875 14.0469 9.96875Z" fill="#004020"/>
<path d="M17.801 9.5156H17.332C17.0318 9.51906 16.7378 9.42997 16.4899 9.26045C16.2421 9.09093 16.0525 8.8492 15.9468 8.56812C15.9062 8.45497 15.9122 8.33032 15.9635 8.22159C16.0148 8.11286 16.1071 8.02896 16.2203 7.98834C16.3334 7.94772 16.4581 7.95371 16.5668 8.005C16.6755 8.05628 16.7594 8.14866 16.8001 8.2618C16.8423 8.36734 16.9161 8.4573 17.0112 8.51948C17.1064 8.58166 17.2184 8.61304 17.332 8.60935H17.801C17.9839 8.62181 18.1649 8.5656 18.3087 8.45173C18.4524 8.33785 18.5484 8.17449 18.5781 7.99355C18.5838 7.84714 18.5354 7.70376 18.4422 7.59073C18.3437 7.47223 18.2093 7.38904 18.0593 7.35374L17.0756 7.12174C16.7335 7.04537 16.4272 6.85569 16.2065 6.58345C15.9857 6.3112 15.8634 5.97237 15.8594 5.6219C15.8596 5.41592 15.902 5.21217 15.9841 5.02325C16.0662 4.83433 16.1861 4.66425 16.3365 4.52352C16.6387 4.23598 17.0404 4.07639 17.4575 4.0781H18.0117C18.312 4.07464 18.606 4.16373 18.8538 4.33325C19.1017 4.50277 19.2913 4.74451 19.3969 5.02558C19.417 5.08161 19.4259 5.14105 19.4231 5.2005C19.4202 5.25996 19.4057 5.31827 19.3803 5.37211C19.3549 5.42594 19.3191 5.47425 19.2751 5.51427C19.231 5.55429 19.1795 5.58525 19.1235 5.60536C19.0674 5.62547 19.008 5.63435 18.9485 5.63149C18.8891 5.62864 18.8308 5.6141 18.7769 5.5887C18.7231 5.56331 18.6748 5.52756 18.6348 5.4835C18.5948 5.43944 18.5638 5.38792 18.5437 5.3319C18.5014 5.22636 18.4277 5.1364 18.3325 5.07422C18.2373 5.01204 18.1253 4.98067 18.0117 4.98435H17.4575C17.2723 4.98262 17.0937 5.05279 16.9591 5.1801C16.898 5.23651 16.849 5.30486 16.8154 5.38093C16.7817 5.457 16.764 5.53917 16.7634 5.62235C16.7679 5.76872 16.8217 5.90928 16.9159 6.0214C17.0101 6.13352 17.1393 6.21067 17.2826 6.24041L18.2664 6.47241C18.6085 6.55395 18.9148 6.74485 19.1386 7.01616C19.3743 7.29894 19.4974 7.65873 19.4844 8.02663C19.4472 8.44293 19.252 8.82919 18.939 9.10609C18.6259 9.383 18.2187 9.52953 17.801 9.5156Z" fill="#004020"/>
<path d="M17.6719 4.98438C17.5517 4.98438 17.4364 4.93664 17.3515 4.85166C17.2665 4.76668 17.2188 4.65143 17.2188 4.53125V3.625C17.2188 3.50482 17.2665 3.38957 17.3515 3.30459C17.4364 3.21961 17.5517 3.17187 17.6719 3.17188C17.7921 3.17187 17.9073 3.21961 17.9923 3.30459C18.0773 3.38957 18.125 3.50482 18.125 3.625V4.53125C18.125 4.65143 18.0773 4.76668 17.9923 4.85166C17.9073 4.93664 17.7921 4.98438 17.6719 4.98438Z" fill="#004020"/>
<path d="M17.6719 10.4219C17.5517 10.4219 17.4364 10.3741 17.3515 10.2892C17.2665 10.2042 17.2188 10.0889 17.2188 9.96875V9.0625C17.2188 8.94232 17.2665 8.82707 17.3515 8.74209C17.4364 8.65711 17.5517 8.60938 17.6719 8.60938C17.7921 8.60938 17.9073 8.65711 17.9923 8.74209C18.0773 8.82707 18.125 8.94232 18.125 9.0625V9.96875C18.125 10.0889 18.0773 10.2042 17.9923 10.2892C17.9073 10.3741 17.7921 10.4219 17.6719 10.4219Z" fill="#004020"/>
<path d="M18.5781 23.1094H7.70312C7.3426 23.1094 6.99683 22.9662 6.7419 22.7112C6.48697 22.4563 6.34375 22.1105 6.34375 21.75V12.6875C6.34375 12.327 6.48697 11.9812 6.7419 11.7263C6.99683 11.4713 7.3426 11.3281 7.70312 11.3281H18.5781C18.9387 11.3281 19.2844 11.4713 19.5393 11.7263C19.7943 11.9812 19.9375 12.327 19.9375 12.6875V21.75C19.9375 22.1105 19.7943 22.4563 19.5393 22.7112C19.2844 22.9662 18.9387 23.1094 18.5781 23.1094ZM7.70312 12.2344C7.58295 12.2344 7.46769 12.2821 7.38272 12.3671C7.29774 12.4521 7.25 12.5673 7.25 12.6875V21.75C7.25 21.8702 7.29774 21.9854 7.38272 22.0704C7.46769 22.1554 7.58295 22.2031 7.70312 22.2031H18.5781C18.6983 22.2031 18.8136 22.1554 18.8985 22.0704C18.9835 21.9854 19.0312 21.8702 19.0312 21.75V12.6875C19.0312 12.5673 18.9835 12.4521 18.8985 12.3671C18.8136 12.2821 18.6983 12.2344 18.5781 12.2344H7.70312Z" fill="#004020"/>
<path d="M19.4844 14.9531H6.79688C6.6767 14.9531 6.56144 14.9054 6.47647 14.8204C6.39149 14.7354 6.34375 14.6202 6.34375 14.5C6.34375 14.3798 6.39149 14.2646 6.47647 14.1796C6.56144 14.0946 6.6767 14.0469 6.79688 14.0469H19.4844C19.6046 14.0469 19.7198 14.0946 19.8048 14.1796C19.8898 14.2646 19.9375 14.3798 19.9375 14.5C19.9375 14.6202 19.8898 14.7354 19.8048 14.8204C19.7198 14.9054 19.6046 14.9531 19.4844 14.9531Z" fill="#004020"/>
<path d="M19.4844 17.6719H6.79688C6.6767 17.6719 6.56144 17.6241 6.47647 17.5392C6.39149 17.4542 6.34375 17.3389 6.34375 17.2188C6.34375 17.0986 6.39149 16.9833 6.47647 16.8983C6.56144 16.8134 6.6767 16.7656 6.79688 16.7656H19.4844C19.6046 16.7656 19.7198 16.8134 19.8048 16.8983C19.8898 16.9833 19.9375 17.0986 19.9375 17.2188C19.9375 17.3389 19.8898 17.4542 19.8048 17.5392C19.7198 17.6241 19.6046 17.6719 19.4844 17.6719Z" fill="#004020"/>
<path d="M19.4844 20.3906H6.79688C6.6767 20.3906 6.56144 20.3429 6.47647 20.2579C6.39149 20.1729 6.34375 20.0577 6.34375 19.9375C6.34375 19.8173 6.39149 19.7021 6.47647 19.6171C6.56144 19.5321 6.6767 19.4844 6.79688 19.4844H19.4844C19.6046 19.4844 19.7198 19.5321 19.8048 19.6171C19.8898 19.7021 19.9375 19.8173 19.9375 19.9375C19.9375 20.0577 19.8898 20.1729 19.8048 20.2579C19.7198 20.3429 19.6046 20.3906 19.4844 20.3906Z" fill="#004020"/>
<path d="M9.51562 23.1094C9.39545 23.1094 9.28019 23.0616 9.19522 22.9767C9.11024 22.8917 9.0625 22.7764 9.0625 22.6562V11.7812C9.0625 11.6611 9.11024 11.5458 9.19522 11.4608C9.28019 11.3759 9.39545 11.3281 9.51562 11.3281C9.6358 11.3281 9.75106 11.3759 9.83603 11.4608C9.92101 11.5458 9.96875 11.6611 9.96875 11.7812V22.6562C9.96875 22.7764 9.92101 22.8917 9.83603 22.9767C9.75106 23.0616 9.6358 23.1094 9.51562 23.1094Z" fill="#004020"/>
<path d="M16.7656 23.1094C16.6454 23.1094 16.5302 23.0616 16.4452 22.9767C16.3602 22.8917 16.3125 22.7764 16.3125 22.6562V11.7812C16.3125 11.6611 16.3602 11.5458 16.4452 11.4608C16.5302 11.3759 16.6454 11.3281 16.7656 11.3281C16.8858 11.3281 17.0011 11.3759 17.086 11.4608C17.171 11.5458 17.2188 11.6611 17.2188 11.7812V22.6562C17.2188 22.7764 17.171 22.8917 17.086 22.9767C17.0011 23.0616 16.8858 23.1094 16.7656 23.1094Z" fill="#004020"/>
</svg>
