<svg width="28" height="28" viewBox="0 0 28 28" fill="none" xmlns="http://www.w3.org/2000/svg">
<g clip-path="url(#clip0_112_8075)">
<path d="M27.5333 0.260437H0.466667C0.20895 0.260437 0 0.469387 0 0.727104V19.3938C0 19.6515 0.20895 19.8604 0.466667 19.8604H8.89327C8.90727 20.0158 8.93013 20.1689 8.95767 20.3206L6.398 23.3712C6.23222 23.5685 6.25783 23.8629 6.45517 24.0286C6.51076 24.0754 6.57656 24.1084 6.6472 24.1253L9.46493 24.7982L10.6171 27.4582C10.7196 27.6947 10.9943 27.8035 11.2308 27.701C11.2974 27.6722 11.3563 27.6282 11.403 27.5726L13.9585 24.5271C13.9725 24.5271 13.986 24.5271 14 24.5271C14.014 24.5271 14.0275 24.5271 14.0415 24.5271L16.597 27.5726C16.7626 27.7701 17.0569 27.796 17.2544 27.6304C17.31 27.5838 17.354 27.5249 17.3829 27.4582L18.5351 24.7982L21.3528 24.1253C21.6035 24.0656 21.7584 23.8139 21.6987 23.5632C21.6818 23.4926 21.6487 23.4268 21.602 23.3712L19.0423 20.3206C19.0699 20.1689 19.0927 20.0158 19.1067 19.8604H27.5333C27.791 19.8604 28 19.6515 28 19.3938V0.727104C28 0.469329 27.791 0.260437 27.5333 0.260437ZM11.1734 26.3938L10.2284 24.2144C10.17 24.0797 10.0516 23.9803 9.90873 23.9461L7.59873 23.394L9.27407 21.3972C9.28293 21.4177 9.2946 21.4364 9.30347 21.4569C9.36413 21.5969 9.42993 21.7299 9.50273 21.862C9.5326 21.917 9.56433 21.9712 9.59607 22.0248C9.66018 22.1315 9.72796 22.2361 9.79953 22.3384C9.84947 22.4098 9.90173 22.4784 9.9554 22.5484C10.0179 22.6278 10.0823 22.7052 10.15 22.7818C10.2177 22.8583 10.2965 22.9428 10.3745 23.0202C10.4319 23.0776 10.4911 23.1332 10.5518 23.1878C10.6022 23.2344 10.6475 23.2834 10.7002 23.3278C10.7529 23.3721 10.8024 23.402 10.8528 23.4412C10.8757 23.4589 10.8953 23.4794 10.9186 23.4967C10.9606 23.5284 11.0049 23.556 11.0479 23.5863C11.1151 23.633 11.1813 23.6834 11.2509 23.7263C11.3834 23.8112 11.5201 23.8887 11.6587 23.9596C11.7119 23.9867 11.7661 24.0114 11.8202 24.0366C11.9446 24.0951 12.0699 24.1483 12.1959 24.1962C12.2323 24.2098 12.2682 24.2252 12.3046 24.2378C12.4813 24.2999 12.6615 24.3521 12.8441 24.3941L12.8492 24.3955L11.1734 26.3938ZM14.8764 23.4948C14.6624 23.54 14.4452 23.5686 14.2268 23.5802H14.2207C14.147 23.584 14.0733 23.5891 13.9991 23.5891C13.9249 23.5891 13.8511 23.584 13.7774 23.5802H13.7713C13.5534 23.5686 13.3367 23.5402 13.1231 23.4953L13.0839 23.4874C13.0009 23.4692 12.9187 23.4468 12.8375 23.4234C12.8035 23.4136 12.7689 23.4048 12.7353 23.394C12.677 23.3758 12.6196 23.3544 12.5622 23.3338C12.5048 23.3133 12.4502 23.2932 12.3951 23.2704C12.3611 23.2559 12.3275 23.2405 12.2939 23.2237C12.2173 23.1892 12.1413 23.1542 12.0671 23.1154L12.0297 23.0949C11.8373 22.992 11.6532 22.8743 11.4791 22.743C11.382 22.6707 11.2924 22.5909 11.2042 22.512C11.0999 22.419 11.0003 22.3207 10.906 22.2176C10.8687 22.1774 10.8285 22.1392 10.7931 22.0976C10.6628 21.9443 10.5439 21.7816 10.4375 21.6109C10.4216 21.5857 10.4081 21.5591 10.3908 21.533C10.2916 21.3672 10.2042 21.1945 10.1295 21.0164C10.1229 21.0005 10.1155 20.9846 10.1094 20.9697C10.0267 20.7655 9.96024 20.5552 9.9106 20.3406C9.9106 20.3322 9.90407 20.3257 9.90173 20.3173C9.83395 20.0141 9.79982 19.7044 9.8 19.3938C9.7986 17.0741 11.6779 15.1927 13.9974 15.1912C16.3171 15.1898 18.1985 17.0691 18.2 19.3886C18.2002 19.7028 18.1651 20.016 18.0955 20.3224C18.0931 20.3303 18.0885 20.3373 18.0866 20.3452C18.037 20.5596 17.9707 20.7698 17.8883 20.9738C17.8817 20.9902 17.8743 21.0065 17.8673 21.0205C17.7927 21.1976 17.7057 21.3691 17.6069 21.5338C17.5915 21.56 17.5775 21.5875 17.5602 21.6136C17.4538 21.7842 17.3351 21.9467 17.2051 22.0999C17.1701 22.141 17.1304 22.1783 17.0935 22.2184C16.9979 22.3225 16.8971 22.4217 16.7916 22.5157C16.7029 22.5946 16.6147 22.6744 16.5181 22.7462C16.4215 22.8181 16.3352 22.8788 16.2409 22.939L16.2353 22.9422C16.1509 22.9959 16.0645 23.0454 15.9768 23.092C15.9595 23.1014 15.9427 23.1112 15.9255 23.12C15.855 23.1569 15.7855 23.19 15.7113 23.2222C15.6739 23.239 15.6371 23.2563 15.5993 23.2717C15.547 23.2936 15.4938 23.3128 15.4406 23.3319C15.3874 23.351 15.3216 23.3758 15.2609 23.3944C15.2287 23.4047 15.1961 23.4136 15.1634 23.4229C15.0808 23.4462 14.9977 23.4696 14.9137 23.4873L14.8764 23.4948ZM20.4013 23.3926L18.0913 23.9447C17.9484 23.9789 17.83 24.0783 17.7716 24.213L16.8266 26.3938L15.1508 24.3969H15.155C15.3383 24.355 15.5191 24.3027 15.6963 24.2401C15.7313 24.228 15.7649 24.2135 15.7999 24.2009C15.9301 24.1514 16.0585 24.0973 16.1845 24.0371C16.2358 24.0133 16.2871 23.9904 16.3375 23.9643C16.4775 23.8915 16.6175 23.8126 16.7519 23.7263C16.8168 23.6852 16.8789 23.639 16.9419 23.5947C16.9885 23.5625 17.0352 23.5331 17.0819 23.499C17.1066 23.4804 17.1285 23.4584 17.1528 23.4393C17.1995 23.401 17.2536 23.3688 17.3012 23.3287C17.3488 23.2886 17.3973 23.2354 17.4468 23.1915C17.5084 23.1355 17.5691 23.079 17.6279 23.0207C17.7047 22.9439 17.7791 22.8648 17.8509 22.7836C17.9186 22.7071 17.983 22.6296 18.046 22.5503C18.0997 22.4817 18.1519 22.4103 18.2019 22.3403C18.2737 22.2386 18.3419 22.134 18.4049 22.0276C18.4375 21.9735 18.4693 21.9189 18.4982 21.8634C18.5707 21.7318 18.6368 21.5972 18.6965 21.4597C18.7049 21.4359 18.7171 21.4168 18.7259 21.3958L20.4013 23.3926ZM27.0667 18.9271H19.1095C18.8563 16.1049 16.3631 14.0224 13.541 14.2757C11.0697 14.4974 9.11132 16.4559 8.88953 18.9271H0.933333V1.19377H27.0667V18.9271Z" fill="#004020"/>
<path d="M2.33385 2.12714C2.07614 2.12714 1.86719 2.33609 1.86719 2.5938V4.46047H2.80052V3.06047H4.20052V2.12714H2.33385Z" fill="#004020"/>
<path d="M25.6674 2.12714H23.8008V3.06047H25.2008V4.46047H26.1341V2.5938C26.1341 2.33603 25.9252 2.12714 25.6674 2.12714Z" fill="#004020"/>
<path d="M25.2008 15.6605V17.0605H23.8008V17.9938H25.6674C25.9252 17.9938 26.1341 17.7848 26.1341 17.5271V15.6605H25.2008Z" fill="#004020"/>
<path d="M2.80052 17.0605V15.6605H1.86719V17.5271C1.86719 17.7848 2.07614 17.9938 2.33385 17.9938H4.20052V17.0605H2.80052Z" fill="#004020"/>
<path d="M19.6004 5.3938H8.40039V6.32713H19.6004V5.3938Z" fill="#004020"/>
<path d="M22.3996 8.19379H5.59961V9.12712H22.3996V8.19379Z" fill="#004020"/>
<path d="M13.9991 16.1271C12.195 16.1271 10.7324 17.5897 10.7324 19.3938C10.7345 21.1971 12.1958 22.6584 13.9991 22.6605C15.8032 22.6605 17.2658 21.1979 17.2658 19.3938C17.2658 17.5897 15.8032 16.1271 13.9991 16.1271ZM13.9991 21.7271C12.7104 21.7271 11.6658 20.6824 11.6658 19.3938C11.6673 18.1058 12.7111 17.062 13.9991 17.0605C15.2877 17.0605 16.3324 18.1052 16.3324 19.3938C16.3324 20.6824 15.2877 21.7271 13.9991 21.7271Z" fill="#004020"/>
</g>
<defs>
<clipPath id="clip0_112_8075">
<rect width="28" height="28" fill="white"/>
</clipPath>
</defs>
</svg>
