<svg width="29" height="29" viewBox="0 0 29 29" fill="none" xmlns="http://www.w3.org/2000/svg">
<g clip-path="url(#clip0_112_8115)">
<path d="M24.3011 22.4843L14.8187 19.371C14.8695 18.7213 14.586 18.0903 14.0666 17.6966C13.5475 17.303 12.8633 17.2008 12.2514 17.4253L5.63037 11.704C5.52135 11.6096 5.37598 11.569 5.23392 11.5929C5.09185 11.6167 4.96773 11.7028 4.89575 11.8277L4.15145 13.1204C2.82592 12.6251 1.33661 13.1605 0.63007 14.3867L0.388421 14.8049C0.00187622 15.4744 -0.10125 16.2708 0.101934 17.017C0.305354 17.7629 0.798092 18.397 1.47112 18.7779L8.84993 22.5603C8.71447 23.1288 8.84308 23.728 9.19989 24.191L7.67802 26.8269C7.58032 26.9961 7.59401 27.2076 7.71318 27.3629C7.83212 27.5179 8.03294 27.5861 8.22173 27.5354L9.73582 27.1295L10.1415 28.6435C10.192 28.8321 10.351 28.9716 10.5445 28.9973C10.5655 29.0001 10.5865 29.0015 10.6078 29.0018C10.7805 29.0018 10.9403 28.9097 11.0269 28.7601L13.1109 25.1502L18.1917 28.4323C18.8581 28.8172 19.6503 28.9215 20.3936 28.7221C21.137 28.5227 21.7706 28.0359 22.1548 27.369L22.3965 26.9511L24.5713 23.1838C24.644 23.0575 24.656 22.9056 24.6041 22.7694C24.552 22.6335 24.4413 22.5282 24.303 22.4829L24.3011 22.4843ZM13.3785 18.3996C13.8406 18.6665 13.9989 19.2577 13.7318 19.72L11.5569 23.4896C11.2884 23.9481 10.7001 24.1037 10.2399 23.8379C9.77971 23.5722 9.62018 22.9848 9.88284 22.523L12.0577 18.7562C12.1854 18.533 12.3968 18.3697 12.6453 18.3029C12.8935 18.2359 13.1583 18.2708 13.3809 18.3996H13.3785ZM5.44276 12.8174L10.2826 17.001L4.9977 13.5879L5.44276 12.8174ZM1.03219 16.7553C0.898386 16.26 0.968002 15.7318 1.22546 15.2882L1.46711 14.87C1.99619 13.9532 3.16385 13.6323 4.08703 14.15L11.0186 18.6262L9.25559 21.6805L1.93248 17.9288C1.48764 17.6737 1.1634 17.2511 1.03219 16.7553ZM10.7725 27.2661L10.5445 26.4125C10.4754 26.1548 10.2104 26.0017 9.95245 26.0711L9.09842 26.2995L9.97322 24.7849C10.6616 25.0759 11.4564 24.9416 12.0107 24.4404L12.2974 24.6249L10.7725 27.2661ZM18.6957 27.6078L12.5783 23.656L14.3902 20.5178L20.8498 23.8304C21.7744 24.3642 22.0913 25.5465 21.5575 26.4711L21.3159 26.8892C20.7863 27.8053 19.6187 28.1258 18.6957 27.6078ZM22.6308 24.6115C22.4116 23.9215 21.9412 23.3393 21.3128 22.9799L18.818 21.7039L23.4346 23.2194L22.6308 24.6115Z" fill="#004020"/>
<path d="M28.3743 5.32012L28.974 3.46716C29.0471 3.24061 28.9447 2.99448 28.7323 2.8871L26.9997 2.00168L26.1138 0.267189C26.0065 0.0548015 25.7603 -0.0478523 25.5338 0.0255393L23.6813 0.627303L21.8279 0.0274272C21.6015 -0.0457284 21.3554 0.0566894 21.248 0.269077L20.3631 2.00168L18.6286 2.88757C18.6208 2.89182 18.6154 2.89914 18.6078 2.90362H10.1489C8.81512 2.90504 7.73407 3.98609 7.73242 5.32012V11.9655C7.73242 12.2324 7.94882 12.4488 8.21572 12.4488C8.48286 12.4488 8.69902 12.2324 8.69902 11.9655V5.32012C8.69902 4.51918 9.34822 3.87022 10.1489 3.87022H18.5193L18.9885 5.32012L18.3888 7.17308C18.3154 7.39939 18.4181 7.64552 18.6305 7.75289L20.365 8.63879L21.2509 10.3733C21.3582 10.5857 21.6044 10.6883 21.8309 10.6149L23.6813 10.0129L24.1646 10.1694V20.7857C24.1646 21.0526 24.381 21.269 24.6479 21.269C24.915 21.269 25.1312 21.0526 25.1312 20.7857V10.4821L25.535 10.6126C25.7613 10.686 26.0074 10.5833 26.1148 10.3709L27.0007 8.63643L28.7352 7.75053C28.9475 7.64316 29.0502 7.39703 28.9768 7.17048L28.3743 5.32012ZM27.4077 5.46879L27.9286 7.07868L26.4218 7.8487C26.3312 7.89496 26.2575 7.96882 26.2115 8.05944L25.4406 9.56621L23.8302 9.04539C23.7337 9.01377 23.6296 9.01377 23.5331 9.04539L21.9227 9.56621L21.1527 8.05944C21.1064 7.96859 21.0328 7.89496 20.942 7.8487L19.4352 7.07868L19.956 5.46879C19.9881 5.37227 19.9881 5.26773 19.956 5.17121L19.4352 3.56131L20.942 2.79129C21.0328 2.74504 21.1064 2.67141 21.1527 2.58079L21.9227 1.07379L23.5331 1.59484C23.6296 1.62623 23.7337 1.62623 23.8302 1.59484L25.4406 1.07379L26.2106 2.58079C26.2566 2.67118 26.3302 2.74504 26.4208 2.79129L27.9276 3.56131L27.4066 5.17121C27.3754 5.26796 27.3754 5.37203 27.4066 5.46879H27.4077Z" fill="#004020"/>
<path d="M23.6802 2.90369C22.3457 2.90369 21.2637 3.98545 21.2637 5.32018C21.2637 6.65468 22.3457 7.73668 23.6802 7.73668C25.0149 7.73668 26.0967 6.65468 26.0967 5.32018C26.0952 3.98615 25.0142 2.9051 23.6802 2.90369ZM23.6802 6.77008C22.8795 6.77008 22.2303 6.12088 22.2303 5.32018C22.2303 4.51925 22.8795 3.87028 23.6802 3.87028C24.4811 3.87028 25.1301 4.51925 25.1301 5.32018C25.1301 6.12088 24.4811 6.77008 23.6802 6.77008Z" fill="#004020"/>
<path d="M12.081 12.5696H20.297C20.5642 12.5696 20.7803 12.3532 20.7803 12.0863C20.7803 11.8194 20.5642 11.603 20.297 11.603H12.081C11.8141 11.603 11.5977 11.8194 11.5977 12.0863C11.5977 12.3532 11.8141 12.5696 12.081 12.5696Z" fill="#004020"/>
<path d="M20.2983 14.0195H13.5321C13.2652 14.0195 13.0488 14.2359 13.0488 14.5028C13.0488 14.7697 13.2652 14.9861 13.5321 14.9861H20.2983C20.5654 14.9861 20.7816 14.7697 20.7816 14.5028C20.7816 14.2359 20.5654 14.0195 20.2983 14.0195Z" fill="#004020"/>
<path d="M20.298 16.436H16.9149C16.648 16.436 16.4316 16.6524 16.4316 16.9193C16.4316 17.1862 16.648 17.4026 16.9149 17.4026H20.298C20.5652 17.4026 20.7813 17.1862 20.7813 16.9193C20.7813 16.6524 20.5652 16.436 20.298 16.436Z" fill="#004020"/>
<path d="M13.0476 7.73662H15.9473C16.2145 7.73662 16.4306 7.52022 16.4306 7.25332C16.4306 6.98642 16.2145 6.77002 15.9473 6.77002H13.0476C12.2469 6.77002 11.5977 7.41898 11.5977 8.21992C11.5977 9.02062 12.2469 9.66981 13.0476 9.66981H15.9473C16.2145 9.66981 16.4306 9.45341 16.4306 9.18651C16.4306 8.91961 16.2145 8.70322 15.9473 8.70322H13.0476C12.7807 8.70322 12.5643 8.48682 12.5643 8.21992C12.5643 7.95302 12.7807 7.73662 13.0476 7.73662Z" fill="#004020"/>
</g>
<defs>
<clipPath id="clip0_112_8115">
<rect width="29" height="29" fill="white"/>
</clipPath>
</defs>
</svg>
