<svg width="26" height="26" viewBox="0 0 26 26" fill="none" xmlns="http://www.w3.org/2000/svg">
<path d="M19.9607 21.2613C20.055 21.1853 20.1155 21.0689 20.1155 20.9383C20.1155 20.9346 20.1155 2.07447 20.1155 2.07447C20.1155 1.84528 19.9298 1.65957 19.7006 1.65957H7.69716C7.40115 0.699621 6.50581 0 5.45004 0C4.41126 0 3.50231 0.692264 3.20331 1.65957H1.87388C1.64469 1.65957 1.45898 1.84528 1.45898 2.07447V25.5851C1.45898 25.8143 1.64469 26 1.87388 26H15.0502C15.1843 26 15.3006 25.9396 15.3767 25.8454L19.9607 21.2613ZM15.4687 24.5798V21.3532H18.6953L15.4687 24.5798ZM5.45004 0.829787C6.03991 0.829787 6.55211 1.16751 6.80436 1.65957H4.09561C4.3503 1.16458 4.86869 0.829787 5.45004 0.829787ZM2.28877 2.48936H6.97132V5.39362C6.97132 5.77493 6.66114 6.08511 6.27983 6.08511C5.89851 6.08511 5.58834 5.77493 5.58834 5.39362V3.73404C5.58834 3.50486 5.40263 3.31915 5.17344 3.31915C4.94426 3.31915 4.75855 3.50486 4.75855 3.73404V5.39362C4.75855 6.23242 5.44102 6.91489 6.27983 6.91489C7.11863 6.91489 7.8011 6.23242 7.8011 5.39362V2.48936H19.2857V20.5234H15.0538C14.8246 20.5234 14.6389 20.7091 14.6389 20.9383V25.1702H2.28877V2.48936Z" fill="#004020"/>
<path d="M16.3806 19.1127C16.6098 19.1127 16.7955 18.927 16.7955 18.6979C16.7955 18.4687 16.6098 18.283 16.3806 18.283H5.19224C4.96305 18.283 4.77734 18.4687 4.77734 18.6979C4.77734 18.927 4.96305 19.1127 5.19224 19.1127H16.3806Z" fill="#004020"/>
<path d="M5.19224 16.6234H16.3806C16.6098 16.6234 16.7955 16.4377 16.7955 16.2085C16.7955 15.9793 16.6098 15.7936 16.3806 15.7936H5.19224C4.96305 15.7936 4.77734 15.9793 4.77734 16.2085C4.77734 16.4377 4.96305 16.6234 5.19224 16.6234Z" fill="#004020"/>
<path d="M5.19224 14.134H16.3806C16.6098 14.134 16.7955 13.9483 16.7955 13.7191C16.7955 13.4899 16.6098 13.3042 16.3806 13.3042H5.19224C4.96305 13.3042 4.77734 13.4899 4.77734 13.7191C4.77734 13.9483 4.96305 14.134 5.19224 14.134Z" fill="#004020"/>
<path d="M5.19224 11.6447H16.3806C16.6098 11.6447 16.7955 11.459 16.7955 11.2298C16.7955 11.0006 16.6098 10.8149 16.3806 10.8149H5.19224C4.96305 10.8149 4.77734 11.0006 4.77734 11.2298C4.77734 11.459 4.96305 11.6447 5.19224 11.6447Z" fill="#004020"/>
<path d="M5.19224 9.15535H16.3806C16.6098 9.15535 16.7955 8.96964 16.7955 8.74046C16.7955 8.51127 16.6098 8.32556 16.3806 8.32556H5.19224C4.96305 8.32556 4.77734 8.51127 4.77734 8.74046C4.77734 8.96964 4.96305 9.15535 5.19224 9.15535Z" fill="#004020"/>
<path d="M21.9136 1.65955H21.3604C21.1312 1.65955 20.9455 1.84525 20.9455 2.07444C20.9455 2.30363 21.1312 2.48933 21.3604 2.48933H21.4987V25.1702H17.0692C16.84 25.1702 16.6543 25.3559 16.6543 25.5851C16.6543 25.8143 16.84 26 17.0692 26H21.9136C22.1428 26 22.3285 25.8143 22.3285 25.5851V2.07444C22.3285 1.84525 22.1428 1.65955 21.9136 1.65955Z" fill="#004020"/>
<path d="M24.1263 1.65955H23.5731C23.3439 1.65955 23.1582 1.84525 23.1582 2.07444C23.1582 2.30363 23.3439 2.48933 23.5731 2.48933H23.7114V25.1702H23.5731C23.3439 25.1702 23.1582 25.3559 23.1582 25.5851C23.1582 25.8143 23.3439 26 23.5731 26H24.1263C24.3555 26 24.5412 25.8143 24.5412 25.5851V2.07444C24.5412 1.84525 24.3555 1.65955 24.1263 1.65955Z" fill="#004020"/>
</svg>
