<svg width="27" height="27" viewBox="0 0 27 27" fill="none" xmlns="http://www.w3.org/2000/svg">
<g clip-path="url(#clip0_112_8164)">
<path d="M3.375 4.64062H5.90625C6.01814 4.64062 6.12544 4.59618 6.20456 4.51706C6.28368 4.43794 6.32812 4.33064 6.32812 4.21875V2.53125C6.32812 2.41936 6.28368 2.31206 6.20456 2.23294C6.12544 2.15382 6.01814 2.10938 5.90625 2.10938H3.375C3.26311 2.10938 3.15581 2.15382 3.07669 2.23294C2.99757 2.31206 2.95312 2.41936 2.95312 2.53125V4.21875C2.95312 4.33064 2.99757 4.43794 3.07669 4.51706C3.15581 4.59618 3.26311 4.64062 3.375 4.64062ZM3.79688 2.95312H5.48438V3.79688H3.79688V2.95312Z" fill="#004020"/>
<path d="M7.17188 2.10938H14.3438V2.95312H7.17188V2.10938Z" fill="#004020"/>
<path d="M7.17188 3.79688H18.1406V4.64062H7.17188V3.79688Z" fill="#004020"/>
<path d="M3.375 8.85938H5.90625C6.01814 8.85938 6.12544 8.81493 6.20456 8.73581C6.28368 8.65669 6.32812 8.54939 6.32812 8.4375V6.75C6.32812 6.63811 6.28368 6.53081 6.20456 6.45169C6.12544 6.37257 6.01814 6.32812 5.90625 6.32812H3.375C3.26311 6.32812 3.15581 6.37257 3.07669 6.45169C2.99757 6.53081 2.95312 6.63811 2.95312 6.75V8.4375C2.95312 8.54939 2.99757 8.65669 3.07669 8.73581C3.15581 8.81493 3.26311 8.85938 3.375 8.85938ZM3.79688 7.17188H5.48438V8.01562H3.79688V7.17188Z" fill="#004020"/>
<path d="M7.17188 6.32812H14.3438V7.17188H7.17188V6.32812Z" fill="#004020"/>
<path d="M7.17188 18.1406V21.9375H8.01562V20.25H9.28125V19.4062H8.01562V18.5625H9.28125V17.7188H7.59375C7.48186 17.7188 7.37456 17.7632 7.29544 17.8423C7.21632 17.9214 7.17188 18.0287 7.17188 18.1406Z" fill="#004020"/>
<path d="M11.3906 17.7188H10.5469C10.435 17.7188 10.3277 17.7632 10.2486 17.8423C10.1694 17.9214 10.125 18.0287 10.125 18.1406V21.5156C10.125 21.6275 10.1694 21.7348 10.2486 21.8139C10.3277 21.8931 10.435 21.9375 10.5469 21.9375H11.3906C11.6349 21.9373 11.8738 21.8665 12.0787 21.7335C12.2836 21.6006 12.4456 21.4112 12.5453 21.1882C12.6449 20.9652 12.6779 20.7181 12.6403 20.4768C12.6026 20.2355 12.4959 20.0102 12.3331 19.8281C12.4959 19.6461 12.6026 19.4208 12.6403 19.1795C12.6779 18.9381 12.6449 18.6911 12.5453 18.4681C12.4456 18.2451 12.2836 18.0557 12.0787 17.9227C11.8738 17.7898 11.6349 17.7189 11.3906 17.7188ZM11.3906 21.0938H10.9688V20.25H11.3906C11.5025 20.25 11.6098 20.2944 11.6889 20.3736C11.7681 20.4527 11.8125 20.56 11.8125 20.6719C11.8125 20.7838 11.7681 20.8911 11.6889 20.9702C11.6098 21.0493 11.5025 21.0938 11.3906 21.0938ZM11.3906 19.4062H10.9688V18.5625H11.3906C11.5025 18.5625 11.6098 18.6069 11.6889 18.6861C11.7681 18.7652 11.8125 18.8725 11.8125 18.9844C11.8125 19.0963 11.7681 19.2036 11.6889 19.2827C11.6098 19.3618 11.5025 19.4062 11.3906 19.4062Z" fill="#004020"/>
<path d="M13.0781 18.5625H13.9219V21.0938H13.0781V21.9375H15.6094V21.0938H14.7656V18.5625H15.6094V17.7188H13.0781V18.5625Z" fill="#004020"/>
<path d="M16.0312 16.0312H6.75C6.30245 16.0312 5.87322 16.209 5.55676 16.5255C5.24029 16.842 5.0625 17.2712 5.0625 17.7188V21.9375C5.0625 22.3851 5.24029 22.8143 5.55676 23.1307C5.87322 23.4472 6.30245 23.625 6.75 23.625H16.0312C16.4788 23.625 16.908 23.4472 17.2245 23.1307C17.541 22.8143 17.7188 22.3851 17.7188 21.9375V17.7188C17.7188 17.2712 17.541 16.842 17.2245 16.5255C16.908 16.209 16.4788 16.0312 16.0312 16.0312ZM16.875 21.9375C16.875 22.1613 16.7861 22.3759 16.6279 22.5341C16.4696 22.6924 16.255 22.7812 16.0312 22.7812H6.75C6.52622 22.7812 6.31161 22.6924 6.15338 22.5341C5.99515 22.3759 5.90625 22.1613 5.90625 21.9375V17.7188C5.90625 17.495 5.99515 17.2804 6.15338 17.1221C6.31161 16.9639 6.52622 16.875 6.75 16.875H16.0312C16.255 16.875 16.4696 16.9639 16.6279 17.1221C16.7861 17.2804 16.875 17.495 16.875 17.7188V21.9375Z" fill="#004020"/>
<path d="M21.5156 6.34964V3.79688C21.5156 3.34932 21.3378 2.9201 21.0214 2.60363C20.7049 2.28716 20.2757 2.10938 19.8281 2.10938C19.8281 1.66182 19.6503 1.2326 19.3339 0.916132C19.0174 0.599665 18.5882 0.421875 18.1406 0.421875H2.95313C2.50557 0.421875 2.07635 0.599665 1.75988 0.916132C1.44341 1.2326 1.26563 1.66182 1.26563 2.10938V10.9797C1.00457 11.1746 0.792436 11.4275 0.645995 11.7185C0.499554 12.0094 0.422824 12.3305 0.421875 12.6562V24.4688C0.422545 25.028 0.644997 25.5641 1.04044 25.9596C1.43588 26.355 1.97201 26.5775 2.53125 26.5781H20.25C20.8092 26.5775 21.3454 26.355 21.7408 25.9596C22.1363 25.5641 22.3587 25.028 22.3594 24.4688V17.1437C23.6315 16.843 24.7542 16.0973 25.5246 15.0412C26.2951 13.9852 26.6626 12.6885 26.5607 11.3853C26.4589 10.0821 25.8943 8.85822 24.9691 7.93475C24.044 7.01128 22.819 6.44907 21.5156 6.34964ZM20.6719 3.79688V6.34964C20.3876 6.37138 20.1055 6.41539 19.8281 6.48127V2.95312C20.0519 2.95312 20.2665 3.04202 20.4247 3.20025C20.583 3.35849 20.6719 3.5731 20.6719 3.79688ZM2.10938 2.10938C2.10938 1.8856 2.19827 1.67099 2.3565 1.51275C2.51474 1.35452 2.72935 1.26562 2.95313 1.26562H18.1406C18.3644 1.26562 18.579 1.35452 18.7372 1.51275C18.8955 1.67099 18.9844 1.8856 18.9844 2.10938V6.75C18.2913 7.04169 17.6654 7.47244 17.1454 8.01562H7.17188V8.85938H16.4797C16.0793 9.47672 15.8091 10.1693 15.6858 10.8948C15.5625 11.6202 15.5886 12.3631 15.7625 13.0781H15.3984L14.2594 11.5594C14.2201 11.507 14.1691 11.4645 14.1105 11.4352C14.052 11.4059 13.9874 11.3906 13.9219 11.3906H8.38181L7.94475 10.7346C7.90621 10.6768 7.85401 10.6295 7.79278 10.5967C7.73155 10.564 7.66319 10.5469 7.59375 10.5469H2.53125C2.38957 10.5467 2.24823 10.5609 2.10938 10.5891V2.10938ZM14.3438 13.0781H9.50695L8.94375 12.2344H13.7109L14.3438 13.0781ZM21.5156 24.4688C21.5156 24.8044 21.3823 25.1263 21.1449 25.3637C20.9076 25.601 20.5857 25.7344 20.25 25.7344H2.53125C2.19559 25.7344 1.87367 25.601 1.63632 25.3637C1.39897 25.1263 1.26563 24.8044 1.26563 24.4688V12.6562C1.26563 12.3206 1.39897 11.9987 1.63632 11.7613C1.87367 11.524 2.19559 11.3906 2.53125 11.3906H7.36805L8.92899 13.7341C8.96764 13.7921 9.02004 13.8395 9.08151 13.8723C9.14298 13.9051 9.2116 13.9221 9.28125 13.9219H16.0313C16.4485 14.9207 17.1517 15.774 18.0524 16.3745C18.9531 16.975 20.0112 17.2959 21.0938 17.2969C21.2363 17.2969 21.376 17.2863 21.5156 17.2754V24.4688ZM21.0938 16.4531C20.1759 16.4531 19.2787 16.181 18.5156 15.671C17.7524 15.1611 17.1576 14.4364 16.8064 13.5884C16.4551 12.7404 16.3632 11.8074 16.5423 10.9072C16.7214 10.007 17.1633 9.18009 17.8123 8.53108C18.4613 7.88208 19.2882 7.4401 20.1884 7.26104C21.0886 7.08198 22.0217 7.17388 22.8696 7.52512C23.7176 7.87636 24.4424 8.47116 24.9523 9.23431C25.4622 9.99745 25.7344 10.8947 25.7344 11.8125C25.7329 13.0428 25.2435 14.2223 24.3736 15.0923C23.5036 15.9623 22.3241 16.4517 21.0938 16.4531Z" fill="#004020"/>
<path d="M23.2031 10.9688V10.5469C23.2031 9.98743 22.9809 9.45091 22.5853 9.05532C22.1897 8.65974 21.6532 8.4375 21.0938 8.4375C20.5343 8.4375 19.9978 8.65974 19.6022 9.05532C19.2066 9.45091 18.9844 9.98743 18.9844 10.5469V10.9688C18.8725 10.9688 18.7652 11.0132 18.6861 11.0923C18.6069 11.1714 18.5625 11.2787 18.5625 11.3906V14.7656C18.5625 14.8775 18.6069 14.9848 18.6861 15.0639C18.7652 15.1431 18.8725 15.1875 18.9844 15.1875H23.2031C23.315 15.1875 23.4223 15.1431 23.5014 15.0639C23.5806 14.9848 23.625 14.8775 23.625 14.7656V11.3906C23.625 11.2787 23.5806 11.1714 23.5014 11.0923C23.4223 11.0132 23.315 10.9688 23.2031 10.9688ZM19.8281 10.5469C19.8281 10.2112 19.9615 9.88929 20.1988 9.65194C20.4362 9.41459 20.7581 9.28125 21.0938 9.28125C21.4294 9.28125 21.7513 9.41459 21.9887 9.65194C22.226 9.88929 22.3594 10.2112 22.3594 10.5469V10.9688H19.8281V10.5469ZM22.7812 14.3438H19.4062V11.8125H22.7812V14.3438Z" fill="#004020"/>
<path d="M20.6719 12.6562H21.5156V13.5H20.6719V12.6562Z" fill="#004020"/>
</g>
<defs>
<clipPath id="clip0_112_8164">
<rect width="27" height="27" fill="white"/>
</clipPath>
</defs>
</svg>
